<svg width="38" height="38" viewBox="0 0 38 38" fill="none" xmlns="http://www.w3.org/2000/svg">
<path d="M32.0739 0.556152H5.69218C4.24299 0.557818 2.85363 1.13424 1.8289 2.15898C0.804166 3.18371 0.227739 4.57307 0.226074 6.02226L0.226074 32.404C0.227739 33.8532 0.804166 35.2426 1.8289 36.2673C2.85363 37.292 4.24299 37.8685 5.69218 37.8701H16.6974V24.6792H12.3235V18.1197H16.6961V13.674C16.6981 11.9355 17.3895 10.2687 18.6188 9.03927C19.848 7.80981 21.5146 7.11806 23.2532 7.11573H29.8857V13.6753H23.2532V18.1209H29.8857L28.7897 24.6792H23.2532V37.8701H32.0739C33.5231 37.8685 34.9125 37.292 35.9372 36.2673C36.9619 35.2426 37.5384 33.8532 37.54 32.404V6.02226C37.5384 4.57307 36.9619 3.18371 35.9372 2.15898C34.9125 1.13424 33.5231 0.557818 32.0739 0.556152Z" fill="#B89207"/>
</svg>
