<svg width="168" height="112" viewBox="0 0 168 112" fill="none" xmlns="http://www.w3.org/2000/svg">
<g clip-path="url(#clip0_2031_425)">
<path d="M143.525 72.0306H128.369L122.307 78.0931" stroke="#B89207" stroke-width="6.06242" stroke-linecap="round" stroke-linejoin="round"/>
<path d="M152.619 96.2501V105.344C152.619 106.148 152.3 106.919 151.731 107.487C151.163 108.056 150.392 108.375 149.588 108.375H128.369C127.566 108.375 126.795 108.056 126.226 107.487C125.658 106.919 125.338 106.148 125.338 105.344" stroke="#B89207" stroke-width="6.06242" stroke-linecap="round" stroke-linejoin="round"/>
<path d="M107.939 53.8132H131.4L140.494 50.782L146.556 41.6884H161.712C162.516 41.6884 163.287 42.0077 163.856 42.5762C164.424 43.1446 164.744 43.9156 164.744 44.7196V50.782C164.744 51.5859 164.424 52.3569 163.856 52.9254C163.287 53.4938 162.516 53.8132 161.712 53.8132L149.588 56.8444L152.619 61.3609C154.603 64.3526 155.658 67.8647 155.65 71.4548V87.1565C155.65 89.5683 154.692 91.8813 152.987 93.5866C151.281 95.292 148.968 96.2501 146.556 96.2501H49.5577C47.146 96.2501 44.833 95.292 43.1276 93.5866C41.4222 91.8813 40.4641 89.5683 40.4641 87.1565V71.4548" stroke="#B89207" stroke-width="6.06242" stroke-linecap="round" stroke-linejoin="round"/>
<path d="M107.939 26.5323H128.369C130.711 26.7015 132.891 27.7914 134.432 29.5635C135.826 31.2307 143.525 44.7195 143.525 44.7195" stroke="#B89207" stroke-width="6.06242" stroke-linecap="round" stroke-linejoin="round"/>
<path d="M73.8076 78.0931L67.7452 72.0306H52.5892" stroke="#B89207" stroke-width="6.06242" stroke-linecap="round" stroke-linejoin="round"/>
<path d="M43.496 96.2501V105.344C43.496 106.148 43.8153 106.919 44.3838 107.487C44.9523 108.056 45.7233 108.375 46.5272 108.375H67.7456C68.5496 108.375 69.3206 108.056 69.889 107.487C70.4575 106.919 70.7769 106.148 70.7769 105.344" stroke="#B89207" stroke-width="6.06242" stroke-linecap="round" stroke-linejoin="round"/>
<path d="M3.24134 3.07068H95.0566V59.148H3.24134V3.07068Z" stroke="#B89207" stroke-width="6.06242" stroke-linecap="round" stroke-linejoin="round"/>
<path d="M93.4805 18.2873C90.9526 18.2873 88.9034 16.2381 88.9034 13.7102C88.9034 11.1823 90.9526 9.13306 93.4805 9.13306C96.0084 9.13306 98.0576 11.1823 98.0576 13.7102C98.0576 16.2381 96.0084 18.2873 93.4805 18.2873Z" fill="#B89207"/>
<path d="M68.1086 8.04186C66.7359 8.04186 65.6231 6.92902 65.6231 5.55627C65.6231 4.18352 66.7359 3.07068 68.1086 3.07068C69.4814 3.07068 70.5942 4.18352 70.5942 5.55627C70.5942 6.92902 69.4814 8.04186 68.1086 8.04186Z" fill="#B89207"/>
<path d="M68.1086 42.1127C66.7359 42.1127 65.6231 40.9998 65.6231 39.6271C65.6231 38.2543 66.7359 37.1415 68.1086 37.1415C69.4814 37.1415 70.5942 38.2543 70.5942 39.6271C70.5942 40.9998 69.4814 42.1127 68.1086 42.1127Z" fill="#B89207"/>
<path d="M68.1086 50.6305C66.7359 50.6305 65.6231 49.5176 65.6231 48.1449C65.6231 46.7721 66.7359 45.6593 68.1086 45.6593C69.4814 45.6593 70.5942 46.7721 70.5942 48.1449C70.5942 49.5176 69.4814 50.6305 68.1086 50.6305Z" fill="#B89207"/>
<path d="M68.1086 16.5595C66.7359 16.5595 65.6231 15.4467 65.6231 14.0739C65.6231 12.7012 66.7359 11.5883 68.1086 11.5883C69.4814 11.5883 70.5942 12.7012 70.5942 14.0739C70.5942 15.4467 69.4814 16.5595 68.1086 16.5595Z" fill="#B89207"/>
<path d="M68.1086 25.0772C66.7359 25.0772 65.6231 23.9644 65.6231 22.5916C65.6231 21.2189 66.7359 20.106 68.1086 20.106C69.4814 20.106 70.5942 21.2189 70.5942 22.5916C70.5942 23.9644 69.4814 25.0772 68.1086 25.0772Z" fill="#B89207"/>
<path d="M68.1086 33.595C66.7359 33.595 65.6231 32.4821 65.6231 31.1094C65.6231 29.7366 66.7359 28.6238 68.1086 28.6238C69.4814 28.6238 70.5942 29.7366 70.5942 31.1094C70.5942 32.4821 69.4814 33.595 68.1086 33.595Z" fill="#B89207"/>
<path d="M68.1086 59.148C66.7359 59.148 65.6231 58.0352 65.6231 56.6624C65.6231 55.2897 66.7359 54.1768 68.1086 54.1768C69.4814 54.1768 70.5942 55.2897 70.5942 56.6624C70.5942 58.0352 69.4814 59.148 68.1086 59.148Z" fill="#B89207"/>
<path d="M93.4805 29.8969C90.9526 29.8969 88.9034 27.8477 88.9034 25.3198C88.9034 22.7919 90.9526 20.7427 93.4805 20.7427C96.0084 20.7427 98.0576 22.7919 98.0576 25.3198C98.0576 27.8477 96.0084 29.8969 93.4805 29.8969Z" fill="#B89207"/>
<path d="M93.4805 41.4763C90.9526 41.4763 88.9034 39.427 88.9034 36.8991C88.9034 34.3713 90.9526 32.322 93.4805 32.322C96.0084 32.322 98.0576 34.3713 98.0576 36.8991C98.0576 39.427 96.0084 41.4763 93.4805 41.4763Z" fill="#B89207"/>
<path d="M93.4805 53.0856C90.9526 53.0856 88.9034 51.0363 88.9034 48.5085C88.9034 45.9806 90.9526 43.9313 93.4805 43.9313C96.0084 43.9313 98.0576 45.9806 98.0576 48.5085C98.0576 51.0363 96.0084 53.0856 93.4805 53.0856Z" fill="#B89207"/>
<path d="M4.78713 18.2873C2.25925 18.2873 0.210008 16.2381 0.210008 13.7102C0.210008 11.1823 2.25925 9.13306 4.78713 9.13306C7.315 9.13306 9.36426 11.1823 9.36426 13.7102C9.36426 16.2381 7.315 18.2873 4.78713 18.2873Z" fill="#B89207"/>
<path d="M4.78713 29.8969C2.25925 29.8969 0.210008 27.8477 0.210008 25.3198C0.210008 22.7919 2.25925 20.7427 4.78713 20.7427C7.315 20.7427 9.36426 22.7919 9.36426 25.3198C9.36426 27.8477 7.315 29.8969 4.78713 29.8969Z" fill="#B89207"/>
<path d="M4.78713 41.4763C2.25925 41.4763 0.210008 39.427 0.210008 36.8991C0.210008 34.3713 2.25925 32.322 4.78713 32.322C7.315 32.322 9.36426 34.3713 9.36426 36.8991C9.36426 39.427 7.315 41.4763 4.78713 41.4763Z" fill="#B89207"/>
<path d="M4.78713 53.0856C2.25925 53.0856 0.210008 51.0363 0.210008 48.5085C0.210008 45.9806 2.25925 43.9313 4.78713 43.9313C7.315 43.9313 9.36426 45.9806 9.36426 48.5085C9.36426 51.0363 7.315 53.0856 4.78713 53.0856Z" fill="#B89207"/>
<path d="M55.6202 21.2579H51.7402L45.2534 38.5661H49.194L50.5277 34.7165H56.8933L58.2573 38.5661H62.1069L55.6202 21.2579ZM55.9839 31.8672H51.4977L53.5892 25.5016L55.9839 31.8672Z" fill="#B89207"/>
<path d="M43.4961 21.2579H30.5528V24.2891H39.6465V28.1388H31.3713V31.17H39.8586V35.4137H30.5225V38.5358H43.4961V21.2579Z" fill="#B89207"/>
<path d="M27.9463 21.2579H20.4592C19.4272 21.2604 18.4028 21.4346 17.428 21.7732C16.4841 22.1225 15.6261 22.6704 14.9121 23.3798C14.1875 24.1459 13.6301 25.0543 13.2752 26.0472C12.8532 27.2546 12.648 28.5271 12.669 29.8059C12.6677 31.0168 12.8413 32.2215 13.1843 33.3828C13.4813 34.405 13.987 35.3546 14.6696 36.1715C15.3407 36.9548 16.18 37.5765 17.1249 37.9902C18.204 38.4608 19.3733 38.6885 20.5501 38.6571H27.9463V21.2579ZM24.127 35.3531H20.732C20.1966 35.3638 19.6633 35.2818 19.1558 35.1106C18.6204 34.9326 18.1401 34.6194 17.7614 34.2012C17.3254 33.7423 16.9945 33.1942 16.7914 32.5947C16.5291 31.8139 16.406 30.9931 16.4277 30.1697C16.4239 29.3752 16.5052 28.5825 16.6702 27.8053C16.822 27.1554 17.1114 26.5455 17.5189 26.0169C17.9157 25.4953 18.4515 25.0961 19.0648 24.8651C19.8059 24.5153 20.6103 24.3193 21.4292 24.2891H24.127V35.3531Z" fill="#B89207"/>
</g>
<defs>
<clipPath id="clip0_2031_425">
<rect width="167.596" height="111.367" fill="white" transform="matrix(-1 0 0 1 167.775 0.0395508)"/>
</clipPath>
</defs>
</svg>
