<svg width="164" height="135" viewBox="0 0 164 135" fill="none" xmlns="http://www.w3.org/2000/svg">
<path d="M155.251 99.0557C154.992 98.8786 154.7 98.7542 154.393 98.6899C154.085 98.6255 153.768 98.6224 153.46 98.6806C153.151 98.7388 152.857 98.8572 152.594 99.0291C152.332 99.2011 152.106 99.4231 151.929 99.6825L146.435 107.733C144.661 110.331 143.658 113.378 143.542 116.521L142.978 131.63C142.971 132.253 143.208 132.855 143.638 133.306C144.068 133.757 144.658 134.022 145.28 134.046C145.903 134.069 146.511 133.848 146.973 133.43C147.436 133.012 147.717 132.43 147.757 131.808L148.321 116.699C148.404 114.457 149.119 112.284 150.384 110.431L155.878 102.38C156.235 101.857 156.369 101.212 156.252 100.59C156.134 99.9666 155.774 99.4159 155.251 99.0582V99.0557Z" fill="#8D7008"/>
<path d="M159.897 73.8374L145.475 51.4651V9.8996C145.472 7.33497 144.452 4.87614 142.639 3.06267C140.826 1.24919 138.367 0.229217 135.802 0.226562H27.4355C24.8708 0.229217 22.412 1.24919 20.5985 3.06267C18.7851 4.87614 17.7651 7.33497 17.7624 9.8996V28.2678C17.7825 28.8885 18.0432 29.477 18.4894 29.9089C18.9355 30.3408 19.5321 30.5823 20.1531 30.5823C20.7741 30.5823 21.3707 30.3408 21.8169 29.9089C22.263 29.477 22.5237 28.8885 22.5438 28.2678V9.8996C22.5451 8.60309 23.0606 7.36002 23.9771 6.44302C24.8936 5.52601 26.1364 5.00992 27.433 5.00793H135.802C137.099 5.00992 138.341 5.52601 139.258 6.44302C140.174 7.36002 140.69 8.60309 140.691 9.8996V82.144C140.69 82.8119 140.552 83.4724 140.285 84.0846L135.423 78.8194V13.0863C135.425 12.3444 135.133 11.632 134.61 11.1056C134.088 10.5791 133.377 10.2815 132.635 10.2782H116.393C116.073 10.2678 115.754 10.322 115.454 10.4374C115.155 10.5529 114.882 10.7273 114.652 10.9504C114.422 11.1734 114.239 11.4404 114.113 11.7357C113.988 12.0309 113.924 12.3482 113.924 12.6689C113.924 12.9895 113.988 13.3069 114.113 13.6021C114.239 13.8973 114.422 14.1644 114.652 14.3874C114.882 14.6104 115.155 14.7848 115.454 14.9003C115.754 15.0158 116.073 15.0699 116.393 15.0596H130.642V73.6243L122.661 64.9717C121.369 63.5693 119.584 62.7221 117.68 62.608C115.776 62.494 113.902 63.1219 112.452 64.3599H74.2161C73.8956 64.3496 73.5763 64.4037 73.2772 64.5192C72.9781 64.6347 72.7052 64.8091 72.4749 65.0321C72.2445 65.2551 72.0613 65.5222 71.9362 65.8174C71.8111 66.1126 71.7467 66.43 71.7467 66.7506C71.7467 67.0713 71.8111 67.3886 71.9362 67.6838C72.0613 67.9791 72.2445 68.2461 72.4749 68.4691C72.7052 68.6922 72.9781 68.8666 73.2772 68.9821C73.5763 69.0975 73.8956 69.1517 74.2161 69.1413H109.917C109.74 70.664 110.042 72.204 110.782 73.5466L112.685 76.984H50.5525L52.4555 73.5466C52.677 73.1426 52.86 72.7187 53.0021 72.2804L53.8094 72.8771C54.2944 73.2367 54.8975 73.3994 55.4976 73.3324C56.0976 73.2654 56.65 72.9738 57.0438 72.5161L64.2823 64.1042C64.4958 63.8675 64.6599 63.5904 64.7648 63.2893C64.8698 62.9882 64.9135 62.6692 64.8933 62.351C64.8732 62.0328 64.7896 61.7218 64.6476 61.4364C64.5055 61.1509 64.3078 60.8967 64.0661 60.6888C63.8244 60.4809 63.5436 60.3234 63.2401 60.2255C62.9366 60.1277 62.6167 60.0915 62.299 60.1191C61.9814 60.1467 61.6725 60.2376 61.3904 60.3863C61.1084 60.535 60.859 60.7386 60.6567 60.9852L54.8675 67.7122L51.8287 65.4556C51.622 65.1853 51.3966 64.9298 51.1542 64.6909C50.4485 64.001 49.6114 63.4597 48.6927 63.0991C47.7739 62.7385 46.7922 62.566 45.8056 62.5917C44.8189 62.6174 43.8475 62.8409 42.9488 63.2488C42.0501 63.6568 41.2424 64.241 40.5735 64.9667L35.3233 70.6607V15.0596H106.833C107.454 15.0395 108.042 14.7788 108.474 14.3326C108.906 13.8865 109.148 13.2899 109.148 12.6689C109.148 12.0479 108.906 11.4513 108.474 11.0051C108.042 10.559 107.454 10.2983 106.833 10.2782H33.33C32.5877 10.2815 31.8771 10.5794 31.3543 11.1064C30.8315 11.6335 30.5393 12.3465 30.542 13.0888V75.8508L22.95 84.0846C22.6832 83.4724 22.5449 82.8119 22.5438 82.144V37.8281C22.5237 37.2074 22.263 36.6189 21.8169 36.187C21.3707 35.755 20.7741 35.5135 20.1531 35.5135C19.5321 35.5135 18.9355 35.755 18.4894 36.187C18.0432 36.6189 17.7825 37.2074 17.7624 37.8281V51.4651L3.34062 73.8374C1.10939 77.2892 -0.0521767 81.3232 0.00179918 85.433C0.055775 89.5427 1.32289 93.5449 3.644 96.9369L12.8507 110.423C14.1165 112.276 14.8327 114.449 14.9167 116.692L15.4808 131.8C15.4842 132.12 15.5515 132.435 15.6789 132.728C15.8062 133.021 15.9909 133.286 16.2222 133.506C16.4534 133.727 16.7265 133.899 17.0252 134.012C17.324 134.125 17.6424 134.177 17.9616 134.165C18.2809 134.154 18.5945 134.078 18.8841 133.943C19.1736 133.808 19.4331 133.616 19.6473 133.379C19.8615 133.142 20.026 132.864 20.1312 132.563C20.2364 132.261 20.2801 131.941 20.2597 131.622L19.6955 116.511C19.5768 113.372 18.5738 110.33 16.8021 107.736L7.59295 94.2416C5.80576 91.6269 4.83026 88.5428 4.78878 85.376C4.7473 82.2091 5.64168 79.1005 7.35977 76.44L17.7624 60.2781V82.1315C17.7597 84.1482 18.3873 86.1153 19.5576 87.7578L18.2664 89.1593C18.0353 89.3863 17.8527 89.6579 17.7297 89.9575C17.6067 90.2572 17.5459 90.5787 17.5509 90.9025C17.5559 91.2264 17.6266 91.5459 17.7587 91.8416C17.8909 92.1374 18.0817 92.4032 18.3197 92.6229C18.5576 92.8427 18.8377 93.0118 19.143 93.1201C19.4483 93.2284 19.7724 93.2735 20.0956 93.2528C20.4189 93.2321 20.7345 93.1459 21.0235 92.9995C21.3124 92.8531 21.5686 92.6496 21.7766 92.4012L44.0912 68.2136C44.5226 67.753 45.1069 67.4651 45.735 67.4038C46.363 67.3425 46.992 67.512 47.5042 67.8805C48.0165 68.2491 48.3771 68.7915 48.5186 69.4065C48.6602 70.0215 48.573 70.6669 48.2734 71.2223L34.852 95.4576C34.3682 96.3222 34.1573 97.3128 34.2468 98.2995C34.3363 99.2861 34.722 100.223 35.3534 100.986C36.6377 102.557 37.4988 104.43 37.8547 106.428C38.2106 108.426 38.0495 110.481 37.3868 112.399C36.7211 114.303 36.3582 116.3 36.3112 118.316L36.0605 129.396C36.0602 130.021 36.3046 130.621 36.7414 131.068C37.1781 131.515 37.7724 131.774 38.3972 131.788C39.022 131.803 39.6277 131.572 40.0845 131.145C40.5414 130.719 40.8132 130.131 40.8418 129.506L41.0925 118.427C41.1271 116.909 41.3995 115.407 41.8999 113.974C42.8308 111.28 43.0571 108.393 42.5572 105.588C42.0573 102.782 40.848 100.151 39.0441 97.9448C39.0241 97.9205 39.012 97.8907 39.0093 97.8594C39.0066 97.828 39.0135 97.7966 39.0291 97.7693L42.3261 91.812H120.894L124.191 97.7693C124.206 97.7966 124.213 97.828 124.211 97.8594C124.208 97.8907 124.196 97.9205 124.176 97.9448C122.372 100.151 121.163 102.782 120.663 105.588C120.163 108.393 120.389 111.28 121.32 113.974C121.821 115.407 122.093 116.909 122.127 118.427L122.378 129.506C122.378 129.825 122.442 130.14 122.566 130.434C122.69 130.728 122.871 130.994 123.099 131.216C123.327 131.439 123.597 131.614 123.893 131.731C124.19 131.848 124.507 131.904 124.825 131.897C125.144 131.889 125.458 131.818 125.749 131.688C126.039 131.558 126.301 131.371 126.519 131.138C126.736 130.905 126.905 130.631 127.015 130.331C127.125 130.032 127.174 129.714 127.16 129.396L126.909 118.316C126.863 116.3 126.501 114.303 125.836 112.399C125.173 110.481 125.013 108.425 125.369 106.428C125.725 104.43 126.587 102.557 127.872 100.986C128.503 100.223 128.889 99.2861 128.978 98.2995C129.068 97.3128 128.857 96.3222 128.373 95.4576L114.964 71.2324C114.665 70.677 114.577 70.0315 114.719 69.4165C114.86 68.8015 115.221 68.2591 115.733 67.8905C116.246 67.522 116.874 67.3525 117.503 67.4138C118.131 67.4751 118.715 67.763 119.146 68.2236L141.461 92.4113C141.669 92.6596 141.925 92.8632 142.214 93.0095C142.503 93.1559 142.819 93.2421 143.142 93.2628C143.465 93.2836 143.789 93.2384 144.095 93.1301C144.4 93.0219 144.68 92.8527 144.918 92.6329C145.156 92.4132 145.347 92.1474 145.479 91.8517C145.611 91.5559 145.682 91.2364 145.687 90.9126C145.692 90.5887 145.631 90.2672 145.508 89.9675C145.385 89.6679 145.202 89.3963 144.971 89.1694L143.667 87.7578C144.837 86.1195 145.466 84.157 145.468 82.144V60.2781L155.87 76.4174C157.357 78.7076 158.233 81.3396 158.417 84.0638C158.6 86.7879 158.084 89.5137 156.918 91.9825C156.777 92.2679 156.693 92.5787 156.673 92.8967C156.653 93.2147 156.697 93.5335 156.802 93.8344C156.907 94.1352 157.071 94.4121 157.284 94.6487C157.498 94.8853 157.756 95.0768 158.045 95.2121C158.333 95.3474 158.646 95.4238 158.964 95.4366C159.283 95.4494 159.6 95.3985 159.899 95.2868C160.197 95.1751 160.47 95.005 160.702 94.7863C160.934 94.5676 161.12 94.3048 161.248 94.0134C162.76 90.8136 163.429 87.2808 163.193 83.7499C162.956 80.219 161.822 76.807 159.897 73.8374ZM44.9913 87.0332L47.9073 81.7679H115.335L118.251 87.0332H44.9913Z" fill="#8D7008"/>
<path d="M28.9974 47.7468V44.2943C28.9773 43.6736 28.7167 43.0851 28.2705 42.6532C27.8244 42.2212 27.2277 41.9797 26.6068 41.9797C25.9858 41.9797 25.3892 42.2212 24.943 42.6532C24.4969 43.0851 24.2362 43.6736 24.2161 44.2943V47.7468C24.2057 48.0672 24.2599 48.3865 24.3753 48.6856C24.4908 48.9847 24.6652 49.2576 24.8883 49.4879C25.1113 49.7183 25.3783 49.9015 25.6736 50.0266C25.9688 50.1516 26.2861 50.2161 26.6068 50.2161C26.9274 50.2161 27.2448 50.1516 27.54 50.0266C27.8352 49.9015 28.1023 49.7183 28.3253 49.4879C28.5483 49.2576 28.7227 48.9847 28.8382 48.6856C28.9537 48.3865 29.0078 48.0672 28.9974 47.7468Z" fill="#8D7008"/>
<path d="M64.0289 22.7265C63.5484 22.3128 62.9232 22.1068 62.2908 22.1538C61.6585 22.2008 61.0707 22.497 60.6566 22.9772L54.8673 29.7043L51.3622 27.1293C51.1111 26.9281 50.822 26.7797 50.5122 26.6928C50.2024 26.606 49.8783 26.5825 49.5592 26.6239C49.2402 26.6652 48.9327 26.7705 48.6553 26.9334C48.3778 27.0963 48.1362 27.3136 47.9446 27.5721C47.7531 27.8306 47.6157 28.1251 47.5406 28.4379C47.4656 28.7508 47.4544 29.0756 47.5078 29.3929C47.5611 29.7101 47.678 30.0134 47.8513 30.2844C48.0246 30.5555 48.2508 30.7888 48.5164 30.9704L53.7992 34.8818C54.2842 35.2413 54.8874 35.404 55.4874 35.337C56.0874 35.27 56.6399 34.9784 57.0336 34.5207L64.2721 26.1088C64.4789 25.8711 64.6368 25.5949 64.7365 25.296C64.8363 24.9971 64.876 24.6814 64.8534 24.3671C64.8308 24.0528 64.7464 23.7461 64.6049 23.4646C64.4634 23.183 64.2676 22.9322 64.0289 22.7265Z" fill="#8D7008"/>
<path d="M119.206 26.3548H74.211C73.5903 26.3749 73.0018 26.6356 72.5699 27.0817C72.138 27.5279 71.8965 28.1245 71.8965 28.7455C71.8965 29.3664 72.138 29.9631 72.5699 30.4092C73.0018 30.8554 73.5903 31.116 74.211 31.1361H119.206C119.527 31.1465 119.846 31.0924 120.145 30.9769C120.444 30.8614 120.717 30.687 120.948 30.464C121.178 30.2409 121.361 29.9739 121.486 29.6787C121.611 29.3835 121.676 29.0661 121.676 28.7455C121.676 28.4248 121.611 28.1075 121.486 27.8122C121.361 27.517 121.178 27.25 120.948 27.027C120.717 26.8039 120.444 26.6295 120.145 26.514C119.846 26.3986 119.527 26.3444 119.206 26.3548Z" fill="#8D7008"/>
<path d="M119.206 45.3575H74.211C73.5903 45.3776 73.0018 45.6382 72.5699 46.0844C72.138 46.5305 71.8965 47.1272 71.8965 47.7481C71.8965 48.3691 72.138 48.9658 72.5699 49.4119C73.0018 49.8581 73.5903 50.1187 74.211 50.1388H119.206C119.527 50.1492 119.846 50.095 120.145 49.9796C120.444 49.8641 120.717 49.6897 120.948 49.4667C121.178 49.2436 121.361 48.9766 121.486 48.6813C121.611 48.3861 121.676 48.0688 121.676 47.7481C121.676 47.4275 121.611 47.1101 121.486 46.8149C121.361 46.5197 121.178 46.2527 120.948 46.0296C120.717 45.8066 120.444 45.6322 120.145 45.5167C119.846 45.4013 119.527 45.3471 119.206 45.3575Z" fill="#8D7008"/>
<path d="M61.5691 41.8271C61.3472 41.6052 61.0838 41.4291 60.7938 41.3089C60.5039 41.1888 60.1931 41.127 59.8792 41.127C59.5654 41.127 59.2545 41.1888 58.9646 41.3089C58.6746 41.4291 58.4112 41.6052 58.1893 41.8271L55.6494 44.367L53.1096 41.8271C52.8876 41.6052 52.6242 41.4292 52.3342 41.3091C52.0443 41.189 51.7335 41.1271 51.4197 41.1271C51.1058 41.1271 50.7951 41.189 50.5051 41.3091C50.2152 41.4292 49.9517 41.6052 49.7298 41.8271C49.5079 42.0491 49.3318 42.3125 49.2117 42.6024C49.0916 42.8924 49.0298 43.2032 49.0298 43.517C49.0298 43.8309 49.0916 44.1416 49.2117 44.4316C49.3318 44.7215 49.5079 44.985 49.7298 45.2069L52.2697 47.7468L49.7298 50.2866C49.2816 50.7348 49.0298 51.3427 49.0298 51.9765C49.0298 52.6104 49.2816 53.2183 49.7298 53.6665C50.178 54.1147 50.7858 54.3664 51.4197 54.3664C52.0535 54.3664 52.6614 54.1147 53.1096 53.6665L55.6494 51.1266L58.1893 53.6665C58.4112 53.8884 58.6747 54.0644 58.9646 54.1845C59.2546 54.3046 59.5654 54.3664 59.8792 54.3664C60.1931 54.3664 60.5038 54.3046 60.7938 54.1845C61.0837 54.0644 61.3472 53.8884 61.5691 53.6665C61.791 53.4445 61.9671 53.1811 62.0872 52.8911C62.2073 52.6012 62.2691 52.2904 62.2691 51.9765C62.2691 51.6627 62.2073 51.3519 62.0872 51.062C61.9671 50.772 61.791 50.5086 61.5691 50.2866L59.0292 47.7468L61.5691 45.2069C61.7915 44.985 61.9679 44.7214 62.0882 44.4312C62.2086 44.141 62.2705 43.8299 62.2705 43.5158C62.2705 43.2016 62.2086 42.8905 62.0882 42.6003C61.9679 42.3102 61.7915 42.0466 61.5691 41.8246V41.8271Z" fill="#8D7008"/>
</svg>
