<svg width="98" height="116" viewBox="0 0 98 116" fill="none" xmlns="http://www.w3.org/2000/svg">
<path d="M89.1174 0.226563H19.7979C19.3302 0.226563 18.8818 0.412325 18.5511 0.742983C18.2204 1.07364 18.0347 1.52211 18.0347 1.98973C18.0347 2.45736 18.2204 2.90582 18.5511 3.23648C18.8818 3.56714 19.3302 3.7529 19.7979 3.7529H89.1174C90.5397 3.75459 91.9033 4.32037 92.9091 5.32613C93.9149 6.33189 94.4806 7.69552 94.4823 9.11788V93.2059C94.4823 93.6736 94.6681 94.122 94.9987 94.4527C95.3294 94.7833 95.7779 94.9691 96.2455 94.9691C96.7131 94.9691 97.1616 94.7833 97.4922 94.4527C97.8229 94.122 98.0087 93.6736 98.0087 93.2059V9.11788C98.0059 6.76062 97.0682 4.50071 95.4013 2.83387C93.7345 1.16704 91.4746 0.229375 89.1174 0.226563Z" fill="#8D7008"/>
<path d="M96.2379 98.8536C95.7706 98.8536 95.3223 99.0393 94.9919 99.3697C94.6614 99.7002 94.4758 100.148 94.4758 100.616V106.992C94.4741 108.415 93.9083 109.778 92.9026 110.784C91.8968 111.79 90.5332 112.356 89.1108 112.357H8.89131C7.46913 112.355 6.10583 111.789 5.10019 110.784C4.09455 109.778 3.52859 108.415 3.52634 106.992V9.11788C3.52803 7.69552 4.09381 6.33189 5.09957 5.32613C6.10533 4.32037 7.46895 3.75459 8.89131 3.75291H12.22C12.4515 3.75291 12.6808 3.7073 12.8947 3.61869C13.1086 3.53008 13.303 3.40021 13.4667 3.23648C13.6305 3.07276 13.7603 2.87839 13.8489 2.66447C13.9375 2.45055 13.9831 2.22128 13.9831 1.98973C13.9831 1.75819 13.9375 1.52892 13.8489 1.315C13.7603 1.10108 13.6305 0.906709 13.4667 0.742983C13.303 0.579258 13.1086 0.449384 12.8947 0.360776C12.6808 0.272168 12.4515 0.226562 12.22 0.226563L8.89131 0.226563C6.53405 0.229375 4.27415 1.16704 2.60731 2.83387C0.940476 4.50071 0.00281263 6.76062 0 9.11788V106.978C0.00562255 109.333 0.944527 111.59 2.61106 113.255C4.27759 114.919 6.53589 115.855 8.89131 115.858H89.1108C91.4682 115.856 93.7285 114.919 95.3954 113.252C97.0624 111.585 97.9999 109.324 98.0021 106.967V100.59C97.9954 100.127 97.8065 99.685 97.4763 99.3599C97.1461 99.0349 96.7012 98.853 96.2379 98.8536Z" fill="#8D7008"/>
<path d="M24.5317 11.6008C21.8857 11.6008 19.299 12.3855 17.0989 13.8557C14.8988 15.3258 13.184 17.4153 12.1715 19.86C11.159 22.3048 10.8942 24.9948 11.4105 27.59C11.9269 30.1852 13.2013 32.5691 15.0725 34.44C16.9437 36.3109 19.3277 37.5849 21.923 38.1009C24.5183 38.6168 27.2084 38.3516 29.6529 37.3387C32.0975 36.3258 34.1867 34.6107 35.6565 32.4104C37.1263 30.21 37.9106 27.6232 37.9102 24.9771C37.9062 21.4303 36.4954 18.03 33.9872 15.5223C31.4791 13.0145 28.0785 11.6042 24.5317 11.6008ZM24.5317 34.8313C22.5832 34.8313 20.6784 34.2535 19.0582 33.171C17.4381 32.0884 16.1753 30.5497 15.4296 28.7495C14.6839 26.9492 14.4888 24.9683 14.869 23.0572C15.2491 21.1461 16.1874 19.3906 17.5653 18.0128C18.9431 16.6349 20.6986 15.6966 22.6097 15.3165C24.5208 14.9363 26.5017 15.1314 28.302 15.8771C30.1022 16.6228 31.6409 17.8856 32.7234 19.5057C33.806 21.1259 34.3838 23.0307 34.3838 24.9793C34.381 27.5913 33.3421 30.0956 31.4951 31.9426C29.6481 33.7896 27.1438 34.8285 24.5317 34.8313Z" fill="#8D7008"/>
<path d="M46.1274 18.4153H84.5473C85.015 18.4153 85.4634 18.2295 85.7941 17.8988C86.1247 17.5682 86.3105 17.1197 86.3105 16.6521C86.3105 16.1845 86.1247 15.736 85.7941 15.4053C85.4634 15.0747 85.015 14.8889 84.5473 14.8889H46.1274C45.6598 14.8889 45.2113 15.0747 44.8807 15.4053C44.55 15.736 44.3643 16.1845 44.3643 16.6521C44.3643 17.1197 44.55 17.5682 44.8807 17.8988C45.2113 18.2295 45.6598 18.4153 46.1274 18.4153Z" fill="#8D7008"/>
<path d="M46.1274 26.7409H73.9386C74.4062 26.7409 74.8546 26.5552 75.1853 26.2245C75.516 25.8938 75.7017 25.4454 75.7017 24.9778C75.7017 24.5101 75.516 24.0617 75.1853 23.731C74.8546 23.4004 74.4062 23.2146 73.9386 23.2146H46.1274C45.6598 23.2146 45.2113 23.4004 44.8807 23.731C44.55 24.0617 44.3643 24.5101 44.3643 24.9778C44.3643 25.4454 44.55 25.8938 44.8807 26.2245C45.2113 26.5552 45.6598 26.7409 46.1274 26.7409Z" fill="#8D7008"/>
<path d="M46.1274 35.0688H79.6649C80.1325 35.0688 80.581 34.8831 80.9116 34.5524C81.2423 34.2217 81.428 33.7733 81.428 33.3056C81.428 32.838 81.2423 32.3896 80.9116 32.0589C80.581 31.7282 80.1325 31.5425 79.6649 31.5425H46.1274C45.6598 31.5425 45.2113 31.7282 44.8807 32.0589C44.55 32.3896 44.3643 32.838 44.3643 33.3056C44.3643 33.7733 44.55 34.2217 44.8807 34.5524C45.2113 34.8831 45.6598 35.0688 46.1274 35.0688Z" fill="#8D7008"/>
<path d="M46.1274 51.5022H84.5473C85.015 51.5022 85.4634 51.3164 85.7941 50.9858C86.1247 50.6551 86.3105 50.2066 86.3105 49.739C86.3105 49.2714 86.1247 48.8229 85.7941 48.4923C85.4634 48.1616 85.015 47.9758 84.5473 47.9758H46.1274C45.6598 47.9758 45.2113 48.1616 44.8807 48.4923C44.55 48.8229 44.3643 49.2714 44.3643 49.739C44.3643 50.2066 44.55 50.6551 44.8807 50.9858C45.2113 51.3164 45.6598 51.5022 46.1274 51.5022Z" fill="#8D7008"/>
<path d="M46.1274 59.8366H73.9386C74.4062 59.8366 74.8546 59.6509 75.1853 59.3202C75.516 58.9896 75.7017 58.5411 75.7017 58.0735C75.7017 57.6058 75.516 57.1574 75.1853 56.8267C74.8546 56.4961 74.4062 56.3103 73.9386 56.3103H46.1274C45.6598 56.3103 45.2113 56.4961 44.8807 56.8267C44.55 57.1574 44.3643 57.6058 44.3643 58.0735C44.3643 58.5411 44.55 58.9896 44.8807 59.3202C45.2113 59.6509 45.6598 59.8366 46.1274 59.8366Z" fill="#8D7008"/>
<path d="M46.1274 68.1645H79.6649C80.1325 68.1645 80.581 67.9788 80.9116 67.6481C81.2423 67.3174 81.428 66.869 81.428 66.4014C81.428 65.9337 81.2423 65.4853 80.9116 65.1546C80.581 64.8239 80.1325 64.6382 79.6649 64.6382H46.1274C45.6598 64.6382 45.2113 64.8239 44.8807 65.1546C44.55 65.4853 44.3643 65.9337 44.3643 66.4014C44.3643 66.869 44.55 67.3174 44.8807 67.6481C45.2113 67.9788 45.6598 68.1645 46.1274 68.1645Z" fill="#8D7008"/>
<path d="M24.5317 77.7913C21.8857 77.7913 19.299 78.5759 17.0989 80.0461C14.8988 81.5162 13.184 83.6058 12.1715 86.0505C11.159 88.4952 10.8942 91.1853 11.4105 93.7805C11.9269 96.3757 13.2013 98.7595 15.0725 100.63C16.9437 102.501 19.3277 103.775 21.923 104.291C24.5183 104.807 27.2084 104.542 29.6529 103.529C32.0975 102.516 34.1867 100.801 35.6565 98.6008C37.1263 96.4004 37.9106 93.8136 37.9102 91.1676C37.9062 87.6208 36.4954 84.2205 33.9872 81.7127C31.4791 79.205 28.0785 77.7946 24.5317 77.7913ZM24.5317 101.022C22.5832 101.022 20.6784 100.444 19.0582 99.3614C17.4381 98.2788 16.1753 96.7402 15.4296 94.9399C14.6839 93.1397 14.4888 91.1588 14.869 89.2477C15.2491 87.3365 16.1874 85.5811 17.5653 84.2032C18.9431 82.8254 20.6986 81.887 22.6097 81.5069C24.5208 81.1267 26.5017 81.3218 28.302 82.0675C30.1022 82.8132 31.6409 84.076 32.7234 85.6962C33.806 87.3163 34.3838 89.2211 34.3838 91.1697C34.381 93.7818 33.3421 96.286 31.4951 98.133C29.6481 99.9801 27.1438 101.019 24.5317 101.022Z" fill="#8D7008"/>
<path d="M46.1274 84.6035H84.5473C85.015 84.6035 85.4634 84.4177 85.7941 84.0871C86.1247 83.7564 86.3105 83.308 86.3105 82.8404C86.3105 82.3728 86.1247 81.9243 85.7941 81.5936C85.4634 81.263 85.015 81.0771 84.5473 81.0771H46.1274C45.6598 81.0771 45.2113 81.263 44.8807 81.5936C44.55 81.9243 44.3643 82.3728 44.3643 82.8404C44.3643 83.308 44.55 83.7564 44.8807 84.0871C45.2113 84.4177 45.6598 84.6035 46.1274 84.6035Z" fill="#8D7008"/>
<path d="M46.1274 92.9278H73.9385C74.4058 92.9278 74.854 92.7421 75.1845 92.4117C75.5149 92.0812 75.7006 91.633 75.7006 91.1656C75.7006 90.6983 75.5149 90.2501 75.1845 89.9197C74.854 89.5892 74.4058 89.4036 73.9385 89.4036H46.1274C45.66 89.4036 45.2118 89.5892 44.8814 89.9197C44.5509 90.2501 44.3652 90.6983 44.3652 91.1656C44.3652 91.633 44.5509 92.0812 44.8814 92.4117C45.2118 92.7421 45.66 92.9278 46.1274 92.9278Z" fill="#8D7008"/>
<path d="M46.1274 101.262H79.6649C80.1325 101.262 80.581 101.076 80.9116 100.746C81.2423 100.415 81.428 99.9664 81.428 99.4988C81.428 99.0311 81.2423 98.5827 80.9116 98.252C80.581 97.9213 80.1325 97.7356 79.6649 97.7356H46.1274C45.6598 97.7356 45.2113 97.9213 44.8807 98.252C44.55 98.5827 44.3643 99.0311 44.3643 99.4988C44.3643 99.9664 44.55 100.415 44.8807 100.746C45.2113 101.076 45.6598 101.262 46.1274 101.262Z" fill="#8D7008"/>
<path d="M22.104 55.3561C21.9403 55.1924 21.7459 55.0626 21.532 54.974C21.3181 54.8854 21.0889 54.8398 20.8573 54.8398C20.6258 54.8398 20.3966 54.8854 20.1827 54.974C19.9688 55.0626 19.7744 55.1924 19.6107 55.3561C19.447 55.5199 19.3171 55.7142 19.2285 55.9281C19.1399 56.142 19.0943 56.3713 19.0943 56.6028C19.0943 56.8343 19.1399 57.0636 19.2285 57.2775C19.3171 57.4914 19.447 57.6857 19.6107 57.8495L23.9575 62.1984C24.2883 62.5288 24.7367 62.7143 25.2042 62.7143C25.6717 62.7143 26.12 62.5288 26.4508 62.1984L35.5462 53.103L35.5717 53.0775L41.6105 47.0387C41.7742 46.875 41.9041 46.6807 41.9927 46.4668C42.0813 46.2529 42.1269 46.0236 42.1269 45.7921C42.1269 45.5606 42.0813 45.3313 41.9927 45.1174C41.9041 44.9035 41.7742 44.7091 41.6105 44.5454C41.4468 44.3817 41.2524 44.2519 41.0385 44.1633C40.8246 44.0747 40.5954 44.0291 40.3638 44.0291C40.1323 44.0291 39.903 44.0747 39.6891 44.1633C39.4752 44.2519 39.2809 44.3817 39.1172 44.5454L34.5068 49.1579C32.4237 46.826 29.5896 45.2973 26.4967 44.8375C23.4039 44.3776 20.2476 45.0157 17.5762 46.6408C14.9048 48.2659 12.887 50.7754 11.8734 53.7334C10.8597 56.6914 10.9142 59.9111 12.0273 62.8331C13.1405 65.7551 15.242 68.1949 17.9668 69.7287C20.6917 71.2626 23.8677 71.7935 26.9432 71.2293C30.0188 70.6651 32.7996 69.0414 34.8026 66.6403C36.8056 64.2391 37.9042 61.2123 37.9077 58.0854C37.9077 57.6178 37.722 57.1693 37.3913 56.8387C37.0606 56.508 36.6122 56.3222 36.1445 56.3222C35.6769 56.3222 35.2284 56.508 34.8978 56.8387C34.5671 57.1693 34.3814 57.6178 34.3814 58.0854C34.3823 60.398 33.57 62.6373 32.0866 64.4115C30.6033 66.1857 28.5433 67.3817 26.2671 67.7905C23.9909 68.1992 21.6434 67.7945 19.6355 66.6473C17.6275 65.5001 16.0869 63.6833 15.2831 61.5148C14.4794 59.3464 14.4637 56.9644 15.2389 54.7856C16.0141 52.6068 17.5307 50.7699 19.5234 49.5964C21.5161 48.4228 23.858 47.9873 26.1394 48.3661C28.4207 48.7448 30.4963 49.9137 32.0028 51.6683L25.201 58.4701L22.104 55.3561Z" fill="#8D7008"/>
</svg>
