<svg width="179" height="27" viewBox="0 0 179 27" fill="none" xmlns="http://www.w3.org/2000/svg">
<path d="M27.1129 10.5034C27.1129 10.7384 26.974 10.9947 26.6961 11.2724L20.8769 16.9439L22.2555 24.9545C22.2662 25.0292 22.2716 25.136 22.2716 25.2749C22.2716 25.4992 22.2155 25.6888 22.1032 25.8436C21.991 25.9985 21.8281 26.0759 21.6143 26.0759C21.4112 26.0759 21.1975 26.0118 20.9731 25.8837L13.7752 22.1027L6.57733 25.8837C6.34221 26.0118 6.12847 26.0759 5.9361 26.0759C5.71166 26.0759 5.54334 25.9985 5.43112 25.8436C5.31891 25.6888 5.2628 25.4992 5.2628 25.2749C5.2628 25.2108 5.27349 25.104 5.29486 24.9545L6.67352 16.9439L0.838272 11.2724C0.571091 10.9841 0.4375 10.7277 0.4375 10.5034C0.4375 10.1082 0.736743 9.86259 1.33523 9.76646L9.38274 8.59692L12.9897 1.30733C13.1927 0.869419 13.4546 0.650465 13.7752 0.650465C14.0958 0.650465 14.3577 0.869419 14.5607 1.30733L18.1677 8.59692L26.2152 9.76646C26.8137 9.86259 27.1129 10.1082 27.1129 10.5034Z" fill="#B68A35"/>
<path d="M178.988 10.5034C178.988 10.7384 178.849 10.9947 178.571 11.2724L172.752 16.9439L174.131 24.9545C174.141 25.0292 174.147 25.136 174.147 25.2749C174.147 25.4992 174.09 25.6888 173.978 25.8436C173.866 25.9985 173.703 26.0759 173.489 26.0759C173.286 26.0759 173.073 26.0118 172.848 25.8837L165.65 22.1027L158.452 25.8837C158.217 26.0118 158.003 26.0759 157.811 26.0759C157.587 26.0759 157.418 25.9985 157.306 25.8436C157.194 25.6888 157.138 25.4992 157.138 25.2749C157.138 25.2108 157.148 25.104 157.17 24.9545L158.549 16.9439L152.713 11.2724C152.446 10.9841 152.312 10.7277 152.312 10.5034C152.312 10.1082 152.612 9.86259 153.21 9.76646L161.258 8.59692L164.865 1.30733C165.068 0.869419 165.33 0.650465 165.65 0.650465C165.971 0.650465 166.233 0.869419 166.436 1.30733L170.043 8.59692L178.09 9.76646C178.689 9.86259 178.988 10.1082 178.988 10.5034Z" fill="#B68A35"/>
<path d="M65.0817 10.5034C65.0817 10.7384 64.9427 10.9947 64.6648 11.2724L58.8456 16.9439L60.2243 24.9545C60.235 25.0292 60.2403 25.136 60.2403 25.2749C60.2403 25.4992 60.1842 25.6888 60.072 25.8436C59.9598 25.9985 59.7968 26.0759 59.5831 26.0759C59.38 26.0759 59.1663 26.0118 58.9418 25.8837L51.744 22.1027L44.5461 25.8837C44.311 26.0118 44.0972 26.0759 43.9048 26.0759C43.6804 26.0759 43.5121 25.9985 43.3999 25.8436C43.2877 25.6888 43.2315 25.4992 43.2315 25.2749C43.2315 25.2108 43.2422 25.104 43.2636 24.9545L44.6423 16.9439L38.807 11.2724C38.5398 10.9841 38.4062 10.7277 38.4062 10.5034C38.4062 10.1082 38.7055 9.86259 39.304 9.76646L47.3515 8.59692L50.9584 1.30733C51.1615 0.869419 51.4233 0.650465 51.744 0.650465C52.0646 0.650465 52.3264 0.869419 52.5295 1.30733L56.1364 8.59692L64.1839 9.76646C64.7824 9.86259 65.0817 10.1082 65.0817 10.5034Z" fill="#B68A35"/>
<path d="M103.05 10.5034C103.05 10.7384 102.911 10.9947 102.634 11.2724L96.8144 16.9439L98.193 24.9545C98.2037 25.0292 98.2091 25.136 98.2091 25.2749C98.2091 25.4992 98.153 25.6888 98.0407 25.8436C97.9285 25.9985 97.7656 26.0759 97.5518 26.0759C97.3487 26.0759 97.135 26.0118 96.9106 25.8837L89.7127 22.1027L82.5148 25.8837C82.2797 26.0118 82.066 26.0759 81.8736 26.0759C81.6492 26.0759 81.4808 25.9985 81.3686 25.8436C81.2564 25.6888 81.2003 25.4992 81.2003 25.2749C81.2003 25.2108 81.211 25.104 81.2324 24.9545L82.611 16.9439L76.7758 11.2724C76.5086 10.9841 76.375 10.7277 76.375 10.5034C76.375 10.1082 76.6742 9.86259 77.2727 9.76646L85.3202 8.59692L88.9272 1.30733C89.1302 0.869419 89.3921 0.650465 89.7127 0.650465C90.0333 0.650465 90.2952 0.869419 90.4982 1.30733L94.1052 8.59692L102.153 9.76646C102.751 9.86259 103.05 10.1082 103.05 10.5034Z" fill="#B68A35"/>
<path d="M141.019 10.5034C141.019 10.7384 140.88 10.9947 140.602 11.2724L134.783 16.9439L136.162 24.9545C136.172 25.0292 136.178 25.136 136.178 25.2749C136.178 25.4992 136.122 25.6888 136.009 25.8436C135.897 25.9985 135.734 26.0759 135.521 26.0759C135.317 26.0759 135.104 26.0118 134.879 25.8837L127.681 22.1027L120.484 25.8837C120.248 26.0118 120.035 26.0759 119.842 26.0759C119.618 26.0759 119.45 25.9985 119.337 25.8436C119.225 25.6888 119.169 25.4992 119.169 25.2749C119.169 25.2108 119.18 25.104 119.201 24.9545L120.58 16.9439L114.745 11.2724C114.477 10.9841 114.344 10.7277 114.344 10.5034C114.344 10.1082 114.643 9.86259 115.241 9.76646L123.289 8.59692L126.896 1.30733C127.099 0.869419 127.361 0.650465 127.681 0.650465C128.002 0.650465 128.264 0.869419 128.467 1.30733L132.074 8.59692L140.121 9.76646C140.72 9.86259 141.019 10.1082 141.019 10.5034Z" fill="#B68A35"/>
</svg>
