<svg width="139" height="146" viewBox="0 0 139 146" fill="none" xmlns="http://www.w3.org/2000/svg">
<g clip-path="url(#clip0_4001_54)">
<path d="M32.0627 98.4343C30.1982 99.4278 28.118 99.9475 26.0053 99.9475C23.8926 99.9475 21.8124 99.4278 19.9479 98.4343C19.452 98.1625 18.8685 98.0988 18.3257 98.2573C17.7829 98.4157 17.3252 98.7833 17.0534 99.2792C16.7817 99.7751 16.718 100.359 16.8764 100.901C17.0349 101.444 17.4025 101.902 17.8983 102.174C20.3921 103.513 23.1787 104.214 26.0094 104.214C28.8401 104.214 31.6267 103.513 34.1205 102.174C34.3658 102.039 34.5822 101.856 34.7571 101.638C34.9321 101.419 35.0623 101.168 35.1402 100.899C35.2182 100.63 35.2424 100.348 35.2114 100.07C35.1805 99.7914 35.095 99.5218 34.9599 99.2764C34.8248 99.0311 34.6427 98.8148 34.424 98.6398C34.2052 98.4649 33.9542 98.3347 33.6852 98.2567C33.4161 98.1788 33.1344 98.1546 32.856 98.1855C32.5776 98.2165 32.3081 98.3019 32.0627 98.437V98.4343Z" fill="#8D7008"/>
<path d="M24.0718 91.3233C24.0718 91.7448 23.9468 92.1569 23.7126 92.5073C23.4784 92.8578 23.1455 93.131 22.756 93.2924C22.3666 93.4537 21.938 93.4959 21.5246 93.4136C21.1112 93.3314 20.7314 93.1284 20.4333 92.8303C20.1353 92.5322 19.9323 92.1525 19.85 91.7391C19.7678 91.3256 19.81 90.8971 19.9713 90.5076C20.1326 90.1182 20.4058 89.7853 20.7563 89.5511C21.1068 89.3169 21.5189 89.1919 21.9404 89.1919C22.5057 89.1919 23.0478 89.4165 23.4475 89.8162C23.8472 90.2159 24.0718 90.758 24.0718 91.3233Z" fill="#8D7008"/>
<path d="M32.2099 91.3233C32.2099 91.7448 32.0849 92.1569 31.8507 92.5073C31.6165 92.8578 31.2837 93.131 30.8942 93.2924C30.5048 93.4537 30.0762 93.4959 29.6628 93.4136C29.2494 93.3314 28.8696 93.1284 28.5715 92.8303C28.2735 92.5322 28.0705 92.1525 27.9882 91.7391C27.906 91.3256 27.9482 90.8971 28.1095 90.5076C28.2708 90.1182 28.544 89.7853 28.8945 89.5511C29.245 89.3169 29.6571 89.1919 30.0786 89.1919C30.6439 89.1919 31.186 89.4165 31.5857 89.8162C31.9854 90.2159 32.2099 90.758 32.2099 91.3233Z" fill="#8D7008"/>
<path d="M136.065 123.089C135.935 122.841 135.758 122.621 135.544 122.441C135.329 122.261 135.081 122.125 134.814 122.041C134.547 121.957 134.266 121.927 133.988 121.951C133.709 121.976 133.438 122.055 133.189 122.184C132.941 122.314 132.721 122.491 132.541 122.705C132.361 122.92 132.225 123.168 132.141 123.435C132.057 123.702 132.027 123.982 132.051 124.261C132.076 124.54 132.155 124.811 132.284 125.06C133.907 128.158 134.749 131.606 134.737 135.103V135.139C134.735 136.825 134.064 138.442 132.872 139.634C131.679 140.827 130.063 141.498 128.376 141.5H97.608C96.3561 141.5 95.132 141.13 94.0894 140.437C95.0214 138.827 95.5112 136.999 95.5094 135.139V135.103C95.5124 131.738 94.8588 128.406 93.5852 125.291C95.0755 122.347 97.216 119.781 99.8447 117.787C102.473 115.792 105.521 114.422 108.758 113.78C111.994 113.137 115.335 113.24 118.526 114.079C121.717 114.919 124.675 116.473 127.177 118.625C127.389 118.807 127.635 118.947 127.901 119.034C128.167 119.122 128.447 119.156 128.726 119.136C129.005 119.115 129.278 119.039 129.528 118.913C129.778 118.787 130 118.613 130.183 118.401C130.366 118.189 130.505 117.943 130.593 117.677C130.68 117.412 130.715 117.131 130.694 116.852C130.673 116.573 130.598 116.3 130.472 116.05C130.346 115.8 130.172 115.578 129.96 115.395C127.661 113.417 125.034 111.857 122.197 110.786C125.515 108.777 128.083 105.737 129.511 102.13C130.939 98.5239 131.147 94.5494 130.104 90.8136C129.06 87.0779 126.823 83.7863 123.734 81.4414C120.644 79.0964 116.872 77.827 112.993 77.827C109.115 77.827 105.343 79.0964 102.253 81.4414C99.1637 83.7863 96.9265 87.0779 95.8833 90.8136C94.8401 94.5494 95.0481 98.5239 96.4757 102.13C97.9033 105.737 100.472 108.777 103.789 110.786C98.6565 112.738 94.2695 116.258 91.2522 120.846C88.2336 116.258 83.8471 112.738 78.7149 110.784C82.032 108.773 84.6001 105.732 86.027 102.125C87.4539 98.5186 87.6613 94.5438 86.6176 90.8081C85.5738 87.0723 83.3362 83.7807 80.2464 81.4359C77.1566 79.091 73.3843 77.8216 69.5055 77.8216C65.6266 77.8216 61.8544 79.091 58.7645 81.4359C55.6747 83.7807 53.4371 87.0723 52.3934 90.8081C51.3496 94.5438 51.557 98.5186 52.984 102.125C54.4109 105.732 56.9789 108.773 60.296 110.784C55.1642 112.74 50.7779 116.261 47.7588 120.849C44.7482 116.252 40.3593 112.727 35.2215 110.778C38.5372 108.766 41.1035 105.725 42.529 102.118C43.9545 98.5118 44.1607 94.5378 43.1163 90.8029C42.0719 87.068 39.8342 83.7774 36.7446 81.4333C33.6551 79.0892 29.8834 77.8203 26.0053 77.8203C22.1271 77.8203 18.3555 79.0892 15.2659 81.4333C12.1764 83.7774 9.93867 87.068 8.89425 90.8029C7.84984 94.5378 8.0561 98.5118 9.48158 102.118C10.907 105.725 13.4734 108.766 16.789 110.778C13.4417 112.048 10.3933 113.996 7.83581 116.502C7.63538 116.697 7.47544 116.93 7.36511 117.188C7.25479 117.445 7.19625 117.722 7.19283 118.002C7.18942 118.282 7.24119 118.56 7.3452 118.82C7.44921 119.08 7.60342 119.317 7.79902 119.517C7.99462 119.718 8.22778 119.878 8.4852 119.988C8.74261 120.098 9.01924 120.157 9.29928 120.16C9.57931 120.164 9.85728 120.112 10.1173 120.008C10.3773 119.904 10.6143 119.75 10.8148 119.554C13.2589 117.17 16.2299 115.394 19.4875 114.372C22.7451 113.349 26.1978 113.107 29.5661 113.666C32.9344 114.225 36.1238 115.569 38.8762 117.59C41.6286 119.611 43.8667 122.251 45.4094 125.297C44.136 128.411 43.4824 131.744 43.4852 135.109V135.144C43.4834 137.004 43.9732 138.832 44.9052 140.442C43.8625 141.135 42.6385 141.505 41.3866 141.505H10.6294C8.94298 141.503 7.32622 140.832 6.13372 139.64C4.94121 138.447 4.27031 136.83 4.26815 135.144V135.109C4.26191 132.142 4.86681 129.205 6.04517 126.482C6.1563 126.225 6.21573 125.949 6.22006 125.669C6.22439 125.389 6.17353 125.111 6.0704 124.851C5.96727 124.59 5.81388 124.353 5.61898 124.152C5.42409 123.951 5.19151 123.79 4.93453 123.679C4.67754 123.568 4.40119 123.509 4.12124 123.504C3.84129 123.5 3.56322 123.551 3.30292 123.654C3.04263 123.757 2.80519 123.91 2.60417 124.105C2.40316 124.3 2.24249 124.533 2.13136 124.79C0.720275 128.045 -0.00524396 131.555 2.8532e-05 135.103V135.139C2.8532e-05 137.958 1.11991 140.661 3.11331 142.655C5.10671 144.648 7.81035 145.768 10.6294 145.768H41.392C43.6857 145.766 45.9172 145.022 47.7533 143.647C49.5874 145.026 51.8203 145.77 54.1146 145.768H84.8854C87.1799 145.771 89.4129 145.027 91.2467 143.647C93.0828 145.022 95.3143 145.766 97.608 145.768H128.371C131.19 145.768 133.893 144.648 135.887 142.655C137.88 140.661 139 137.958 139 135.139V135.103C138.999 130.921 137.993 126.8 136.065 123.089ZM99.4804 95.5916C99.4804 92.9212 100.272 90.3107 101.756 88.0903C103.24 85.8699 105.348 84.1393 107.815 83.1173C110.283 82.0954 112.997 81.828 115.617 82.349C118.236 82.8699 120.642 84.1559 122.53 86.0442C124.418 87.9325 125.704 90.3383 126.225 92.9575C126.746 95.5766 126.479 98.2915 125.457 100.759C124.435 103.226 122.704 105.335 120.484 106.818C118.263 108.302 115.653 109.094 112.982 109.094C109.403 109.089 105.971 107.665 103.44 105.134C100.909 102.603 99.4847 99.1713 99.4804 95.5916ZM12.4991 95.5916C12.4991 92.9212 13.291 90.3107 14.7746 88.0903C16.2583 85.8699 18.367 84.1393 20.8342 83.1173C23.3014 82.0954 26.0162 81.828 28.6353 82.349C31.2545 82.8699 33.6603 84.1559 35.5486 86.0442C37.4369 87.9325 38.7229 90.3383 39.2438 92.9575C39.7648 95.5766 39.4974 98.2915 38.4755 100.759C37.4536 103.226 35.723 105.335 33.5026 106.818C31.2822 108.302 28.6717 109.094 26.0012 109.094C22.423 109.087 18.9933 107.662 16.4639 105.131C13.9344 102.6 12.5116 99.1699 12.5073 95.5916H12.4991ZM55.9898 95.5916C55.9898 92.9212 56.7817 90.3107 58.2653 88.0903C59.7489 85.8699 61.8576 84.1393 64.3248 83.1173C66.792 82.0954 69.5068 81.828 72.126 82.349C74.7451 82.8699 77.151 84.1559 79.0393 86.0442C80.9276 87.9325 82.2135 90.3383 82.7345 92.9575C83.2555 95.5766 82.9881 98.2915 81.9661 100.759C80.9442 103.226 79.2136 105.335 76.9932 106.818C74.7728 108.302 72.1623 109.094 69.4918 109.094C65.9136 109.087 62.4839 107.662 59.9545 105.131C57.4251 102.6 56.0023 99.1699 55.9979 95.5916H55.9898ZM54.1065 141.5C52.42 141.498 50.8032 140.827 49.6107 139.634C48.4182 138.442 47.7473 136.825 47.7452 135.139V135.103C47.8093 129.378 50.1285 123.909 54.1996 119.883C58.2706 115.858 63.7651 113.6 69.4905 113.6C75.2159 113.6 80.7103 115.858 84.7814 119.883C88.8525 123.909 91.1717 129.378 91.2358 135.103V135.139C91.2336 136.825 90.5628 138.442 89.3702 139.634C88.1777 140.827 86.561 141.498 84.8745 141.5H54.1065Z" fill="#8D7008"/>
<path d="M119.044 98.4343C117.18 99.4278 115.099 99.9475 112.987 99.9475C110.874 99.9475 108.794 99.4278 106.929 98.4343C106.434 98.1625 105.85 98.0988 105.307 98.2573C104.764 98.4157 104.307 98.7833 104.035 99.2792C103.763 99.7751 103.699 100.359 103.858 100.901C104.016 101.444 104.384 101.902 104.88 102.174C107.373 103.513 110.16 104.214 112.991 104.214C115.822 104.214 118.608 103.513 121.102 102.174C121.347 102.039 121.564 101.857 121.739 101.638C121.914 101.42 122.044 101.169 122.122 100.9C122.2 100.631 122.224 100.349 122.194 100.071C122.163 99.7927 122.078 99.5232 121.943 99.2779C121.808 99.0325 121.626 98.8161 121.407 98.6411C121.189 98.466 120.938 98.3358 120.669 98.2577C120.4 98.1796 120.118 98.1552 119.84 98.186C119.562 98.2168 119.292 98.3021 119.047 98.437L119.044 98.4343Z" fill="#8D7008"/>
<path d="M111.053 91.3233C111.053 91.7448 110.928 92.1569 110.693 92.5073C110.459 92.8578 110.126 93.131 109.737 93.2924C109.348 93.4537 108.919 93.4959 108.506 93.4136C108.092 93.3314 107.712 93.1284 107.414 92.8303C107.116 92.5322 106.913 92.1525 106.831 91.7391C106.749 91.3256 106.791 90.8971 106.952 90.5076C107.114 90.1182 107.387 89.7853 107.737 89.5511C108.088 89.3169 108.5 89.1919 108.921 89.1919C109.487 89.1919 110.029 89.4165 110.428 89.8162C110.828 90.2159 111.053 90.758 111.053 91.3233Z" fill="#8D7008"/>
<path d="M119.194 91.3233C119.194 91.7448 119.069 92.1569 118.835 92.5073C118.6 92.8578 118.268 93.131 117.878 93.2924C117.489 93.4537 117.06 93.4959 116.647 93.4136C116.233 93.3314 115.853 93.1284 115.555 92.8303C115.257 92.5322 115.054 92.1525 114.972 91.7391C114.89 91.3256 114.932 90.8971 115.093 90.5076C115.255 90.1182 115.528 89.7853 115.878 89.5511C116.229 89.3169 116.641 89.1919 117.062 89.1919C117.628 89.1919 118.17 89.4165 118.57 89.8162C118.969 90.2159 119.194 90.758 119.194 91.3233Z" fill="#8D7008"/>
<path d="M75.553 98.4343C73.6885 99.4278 71.6082 99.9475 69.4956 99.9475C67.3829 99.9475 65.3026 99.4278 63.4382 98.4343C62.9423 98.1625 62.3588 98.0988 61.8159 98.2573C61.2731 98.4157 60.8155 98.7833 60.5437 99.2792C60.2719 99.7751 60.2082 100.359 60.3667 100.901C60.5251 101.444 60.8927 101.902 61.3886 102.174C63.8823 103.513 66.6689 104.214 69.4996 104.214C72.3304 104.214 75.117 103.513 77.6107 102.174C77.8561 102.039 78.0724 101.856 78.2474 101.638C78.4223 101.419 78.5525 101.168 78.6305 100.899C78.7084 100.63 78.7326 100.348 78.7017 100.07C78.6707 99.7914 78.5853 99.5218 78.4501 99.2764C78.315 99.0311 78.1329 98.8148 77.9142 98.6398C77.6955 98.4649 77.4444 98.3347 77.1754 98.2567C76.9064 98.1788 76.6246 98.1546 76.3463 98.1855C76.0679 98.2165 75.7983 98.3019 75.553 98.437V98.4343Z" fill="#8D7008"/>
<path d="M75.7031 91.3233C75.7031 91.7448 75.5781 92.1569 75.3439 92.5073C75.1097 92.8578 74.7768 93.131 74.3874 93.2924C73.9979 93.4537 73.5694 93.4959 73.156 93.4136C72.7425 93.3314 72.3627 93.1284 72.0647 92.8303C71.7666 92.5322 71.5636 92.1525 71.4814 91.7391C71.3991 91.3256 71.4413 90.8971 71.6027 90.5076C71.764 90.1182 72.0372 89.7853 72.3877 89.5511C72.7382 89.3169 73.1502 89.1919 73.5718 89.1919C74.137 89.1919 74.6791 89.4165 75.0788 89.8162C75.4785 90.2159 75.7031 90.758 75.7031 91.3233Z" fill="#8D7008"/>
<path d="M83.7134 30.1472H113.844C114.409 30.1472 114.951 29.9226 115.351 29.5229C115.75 29.1232 115.975 28.5811 115.975 28.0158C115.975 27.4506 115.75 26.9085 115.351 26.5088C114.951 26.1091 114.409 25.8845 113.844 25.8845H83.7134C83.1481 25.8845 82.606 26.1091 82.2063 26.5088C81.8066 26.9085 81.582 27.4506 81.582 28.0158C81.582 28.5811 81.8066 29.1232 82.2063 29.5229C82.606 29.9226 83.1481 30.1472 83.7134 30.1472Z" fill="#8D7008"/>
<path d="M83.7134 38.6723H113.844C114.409 38.6723 114.951 38.4478 115.351 38.0481C115.75 37.6484 115.975 37.1063 115.975 36.541C115.975 35.9757 115.75 35.4336 115.351 35.0339C114.951 34.6342 114.409 34.4097 113.844 34.4097H83.7134C83.1481 34.4097 82.606 34.6342 82.2063 35.0339C81.8066 35.4336 81.582 35.9757 81.582 36.541C81.582 37.1063 81.8066 37.6484 82.2063 38.0481C82.606 38.4478 83.1481 38.6723 83.7134 38.6723Z" fill="#8D7008"/>
<path d="M83.7134 47.2004H113.844C114.124 47.2004 114.401 47.1453 114.659 47.0382C114.918 46.9311 115.153 46.7741 115.351 46.5762C115.549 46.3783 115.706 46.1433 115.813 45.8847C115.92 45.6261 115.975 45.349 115.975 45.0691C115.975 44.7892 115.92 44.512 115.813 44.2535C115.706 43.9949 115.549 43.7599 115.351 43.562C115.153 43.3641 114.918 43.2071 114.659 43.1C114.401 42.9929 114.124 42.9377 113.844 42.9377H83.7134C83.1481 42.9377 82.606 43.1623 82.2063 43.562C81.8066 43.9617 81.582 44.5038 81.582 45.0691C81.582 45.6343 81.8066 46.1765 82.2063 46.5762C82.606 46.9759 83.1481 47.2004 83.7134 47.2004Z" fill="#8D7008"/>
<path d="M20.9997 59.4242H31.1984C31.3028 61.734 31.8801 63.9979 32.8946 66.0756C33.9091 68.1533 35.3392 70.0008 37.0964 71.5036C39.5467 73.2856 42.5166 74.2092 45.5454 74.131C46.9596 74.1261 48.3692 73.9717 49.7509 73.6703C50.3067 73.5507 50.8037 73.2418 51.1569 72.7962C51.5102 72.3507 51.6977 71.7963 51.6874 71.2279C51.6771 70.6594 51.4696 70.1122 51.1005 69.6797C50.7313 69.2473 50.2234 68.9565 49.6636 68.8571C49.0975 68.7897 48.5537 68.5964 48.0722 68.2912C47.5906 67.9861 47.1836 67.5769 46.8809 67.0937C45.847 64.6727 45.6364 61.9793 46.2813 59.4269H59.4454C61.6892 59.429 63.9029 58.9112 65.913 57.9143C66.9804 60.6707 68.853 63.0419 71.287 64.719C73.7211 66.3962 76.6037 67.3015 79.5596 67.3172H92.7237C93.3702 69.8703 93.1596 72.5652 92.1241 74.9868C91.8211 75.4702 91.4137 75.8796 90.9316 76.1848C90.4495 76.49 89.9052 76.6832 89.3386 76.7501C88.7799 76.8503 88.2733 77.1411 87.905 77.573C87.5368 78.0049 87.3297 78.5511 87.319 79.1186C87.303 79.6894 87.488 80.2477 87.8417 80.696C88.1953 81.1444 88.6953 81.4542 89.2541 81.5715C90.6349 81.8728 92.0436 82.0272 93.4568 82.0321C96.4859 82.1092 99.4557 81.1847 101.906 79.402C103.661 77.8963 105.088 76.0463 106.099 73.9667C107.111 71.8871 107.684 69.622 107.785 67.3118H117.994C121.865 67.3089 125.576 65.771 128.314 63.0354C131.052 60.2999 132.594 56.59 132.6 52.7195V22.7119C132.592 18.844 131.05 15.1373 128.313 12.4041C125.576 9.67088 121.868 8.13408 118 8.13048H79.5568C77.3139 8.13279 75.1013 8.64933 73.0892 9.64041C72.0343 6.87523 70.1655 4.49508 67.7295 2.81432C65.2935 1.13356 62.405 0.231246 59.4454 0.226562L33.1063 0.226563C32.541 0.226563 31.9989 0.451113 31.5992 0.850816C31.1995 1.25052 30.975 1.79263 30.975 2.3579C30.975 2.92316 31.1995 3.46527 31.5992 3.86498C31.9989 4.26468 32.541 4.48923 33.1063 4.48923H59.4345C62.1738 4.49354 64.7998 5.58288 66.7378 7.51881C68.6757 9.45474 69.7678 12.0796 69.775 14.8188V44.8292C69.7678 47.5685 68.6757 50.1933 66.7378 52.1292C64.7998 54.0652 62.1738 55.1545 59.4345 55.1588H44.5888C44.1287 55.1589 43.6809 55.3078 43.3125 55.5834C42.9441 55.859 42.6747 56.2465 42.5447 56.6878C42.3103 57.4837 40.3316 64.5917 43.2478 69.3259C43.3269 69.454 43.4086 69.5794 43.4931 69.702C42.111 69.4853 40.8018 68.9373 39.6774 68.1049C37.0746 66.1316 35.5892 62.4522 35.284 57.1648C35.2513 56.6222 35.0129 56.1126 34.6173 55.7398C34.2218 55.367 33.6989 55.1592 33.1553 55.1588H20.9997C18.2604 55.1545 15.6344 54.0652 13.6964 52.1292C11.7585 50.1933 10.6664 47.5685 10.6591 44.8292V14.8188C10.6664 12.0796 11.7585 9.45474 13.6964 7.51881C15.6344 5.58288 18.2604 4.49354 20.9997 4.48923H24.0195C24.5848 4.48923 25.1269 4.26468 25.5266 3.86498C25.9263 3.46527 26.1508 2.92316 26.1508 2.3579C26.1508 1.79263 25.9263 1.25052 25.5266 0.850816C25.1269 0.451113 24.5848 0.226563 24.0195 0.226563H20.9997C17.1294 0.229445 13.4184 1.76742 10.6807 4.50306C7.943 7.23871 6.40226 10.9486 6.39648 14.8188V44.8292C6.40154 48.6999 7.94196 52.4105 10.6797 55.1467C13.4175 57.883 17.129 59.4213 20.9997 59.4242ZM74.0486 44.8319V14.8188C74.0486 14.5463 74.0486 14.2601 74.0241 13.9821C75.6766 12.9287 77.5971 12.3724 79.5568 12.3795H118C120.739 12.3838 123.365 13.4732 125.303 15.4091C127.241 17.345 128.333 19.9699 128.34 22.7091V52.7195C128.333 55.4588 127.241 58.0836 125.303 60.0195C123.365 61.9555 120.739 63.0448 118 63.0491H105.839C105.295 63.0495 104.772 63.2573 104.377 63.6301C103.981 64.0029 103.743 64.5125 103.71 65.0551C103.397 70.3398 101.919 74.0219 99.3194 75.9952C98.1949 76.8275 96.8858 77.3755 95.5037 77.5923C95.5882 77.4697 95.6726 77.3443 95.749 77.2162C98.668 72.4929 96.6893 65.374 96.4549 64.5781C96.3248 64.1368 96.0555 63.7493 95.687 63.4737C95.3186 63.1981 94.8708 63.0492 94.4107 63.0491H79.5568C77.276 63.0383 75.0619 62.2783 73.2551 60.8862C71.4483 59.4941 70.149 57.5469 69.557 55.3441C70.9773 53.9859 72.1075 52.3539 72.8795 50.5466C73.6515 48.7394 74.0492 46.7971 74.0486 44.8319Z" fill="#8D7008"/>
<path d="M20.4658 25.6389C20.4658 30.1169 22.7934 38.8575 38.3695 47.0967C38.9402 47.3986 39.5759 47.5564 40.2215 47.5564C40.8671 47.5564 41.5029 47.3986 42.0735 47.0967C57.6497 38.8575 59.9772 30.1169 59.9772 25.6389C60.0714 24.1171 59.8619 22.5917 59.3609 21.1516C58.8599 19.7115 58.0774 18.3855 57.0591 17.2507C56.0407 16.1159 54.8067 15.195 53.4291 14.5416C52.0514 13.8883 50.5575 13.5155 49.0344 13.4451C45.7645 13.4528 42.6178 14.6937 40.2229 16.9201C37.8272 14.6931 34.6795 13.4521 31.4086 13.4451C29.8855 13.5155 28.3916 13.8883 27.014 14.5416C25.6363 15.195 24.4023 16.1159 23.3839 17.2507C22.3656 18.3855 21.5831 19.7115 21.0821 21.1516C20.5811 22.5917 20.3716 24.1171 20.4658 25.6389ZM31.4086 17.7077C32.5838 17.7087 33.7466 17.9478 34.8269 18.4106C35.9071 18.8734 36.8823 19.5503 37.6936 20.4005C38.0234 20.7359 38.4166 21.0023 38.8504 21.1841C39.2842 21.366 39.7498 21.4596 40.2201 21.4596C40.6905 21.4596 41.1561 21.366 41.5899 21.1841C42.0237 21.0023 42.4169 20.7359 42.7467 20.4005C43.5576 19.5496 44.5327 18.872 45.6129 18.4087C46.6932 17.9454 47.8562 17.706 49.0317 17.705C49.9941 17.7789 50.9322 18.0438 51.7912 18.4841C52.6502 18.9245 53.4129 19.5316 54.0348 20.2699C54.6566 21.0082 55.1252 21.863 55.4131 22.7843C55.7011 23.7057 55.8026 24.6752 55.7118 25.6362C55.7118 31.5941 50.0673 38.0099 40.2201 43.251C30.373 38.0099 24.7285 31.5968 24.7285 25.6362C24.6381 24.6754 24.7399 23.7062 25.028 22.7852C25.3161 21.8641 25.7848 21.0097 26.4066 20.2716C27.0284 19.5336 27.7909 18.9268 28.6498 18.4866C29.5086 18.0464 30.4464 17.7816 31.4086 17.7077Z" fill="#8D7008"/>
</g>
<defs>
<clipPath id="clip0_4001_54">
<rect width="139" height="145.538" fill="white" transform="translate(0 0.226562)"/>
</clipPath>
</defs>
</svg>
