<svg width="29" height="20" viewBox="0 0 29 20" fill="none" xmlns="http://www.w3.org/2000/svg">
<path d="M28.6834 2.19903C28.6884 2.27414 28.6985 2.34364 28.6985 2.42323V16.7725C28.6985 18.2584 27.9423 19.9114 26.4564 19.9114H3.1389C1.65353 19.9114 0 18.2584 0 16.7725V2.42323C0 2.34701 0.00728673 2.27414 0.015134 2.20127C-0.0252233 1.94848 0.0381152 1.67999 0.218602 1.47148C0.261201 1.42271 0.307724 1.38067 0.356489 1.34368C0.922051 0.573528 2.07167 0.181166 3.1389 0.181166H26.4564C27.6699 0.181166 28.388 0.693478 28.6138 1.68671C28.6884 1.84927 28.7108 2.02695 28.6834 2.19903ZM3.1389 1.97482C2.89115 1.97482 2.55316 1.96361 2.27906 2.01406L14.3492 11.6342L26.4687 1.97482H26.4564H3.1389ZM26.4564 18.1177C26.9514 18.1177 26.9048 17.2674 26.9048 16.7725V3.9243L14.9372 13.4991C14.7679 13.6448 14.5589 13.7177 14.3492 13.7177C14.1396 13.7177 13.9305 13.6448 13.7618 13.4991L1.79366 3.9243V16.7725C1.79366 17.2674 2.64452 18.1177 3.1389 18.1177H26.4564Z" fill="black"/>
</svg>
