<svg width="22" height="57" viewBox="0 0 22 57" fill="none" xmlns="http://www.w3.org/2000/svg">
<path d="M19.8419 29.8433C20.0608 30.0509 20.1703 30.2897 20.1703 30.5595C20.1703 30.8294 20.0608 31.0682 19.8419 31.2758L4.53941 45.7872C4.32049 45.9948 4.06874 46.0986 3.78414 46.0986C3.49955 46.0986 3.24779 45.9948 3.02887 45.7872L1.38697 44.2302C1.16805 44.0226 1.05859 43.7839 1.05859 43.514C1.05859 43.2441 1.16805 43.0053 1.38697 42.7977L14.2923 30.5595L1.38697 18.3214C1.16805 18.1137 1.05859 17.875 1.05859 17.6051C1.05859 17.3352 1.16805 17.0965 1.38697 16.8889L3.02887 15.3319C3.24779 15.1243 3.49955 15.0205 3.78414 15.0205C4.06874 15.0205 4.32049 15.1243 4.53941 15.3319L19.8419 29.8433Z" fill="#707070"/>
</svg>
