<svg width="21" height="20" viewBox="0 0 21 20" fill="none" xmlns="http://www.w3.org/2000/svg">
<path fill-rule="evenodd" clip-rule="evenodd" d="M14.3332 14.9974C13.0127 16.1216 11.3011 16.8 9.43092 16.8C5.25197 16.8 1.86426 13.4123 1.86426 9.23333C1.86426 5.05438 5.25197 1.66666 9.43092 1.66666C13.6099 1.66666 16.9976 5.05438 16.9976 9.23333C16.9976 11.0922 16.3273 12.7944 15.2153 14.1117L18.8473 17.7437L17.9634 18.6275L14.3332 14.9974ZM15.7476 9.23333C15.7476 12.7219 12.9195 15.55 9.43092 15.55C5.94233 15.55 3.11426 12.7219 3.11426 9.23333C3.11426 5.74473 5.94233 2.91666 9.43092 2.91666C12.9195 2.91666 15.7476 5.74473 15.7476 9.23333Z" fill="black" fill-opacity="0.7"/>
</svg>
