<svg width="34" height="34" viewBox="0 0 34 34" fill="none" xmlns="http://www.w3.org/2000/svg">
<g clip-path="url(#clip0_4005_176)">
<path d="M23.0651 0.556396H10.6075C7.8543 0.556692 5.2139 1.65055 3.26706 3.59739C1.32022 5.54423 0.22637 8.18462 0.226074 10.9379L0.226074 23.3954C0.22637 26.1487 1.32022 28.7891 3.26706 30.7359C5.2139 32.6827 7.8543 33.7766 10.6075 33.7769H23.0651C25.8183 33.7766 28.4587 32.6827 30.4056 30.7359C32.3524 28.7891 33.4463 26.1487 33.4466 23.3954V10.9379C33.4463 8.18462 32.3524 5.54423 30.4056 3.59739C28.4587 1.65055 25.8183 0.556692 23.0651 0.556396ZM30.3325 23.3954C30.3304 25.3222 29.5641 27.1695 28.2016 28.5319C26.8392 29.8944 24.9919 30.6607 23.0651 30.6628H10.6075C8.68153 30.6595 6.83539 29.8927 5.4739 28.5304C4.11242 27.1681 3.3467 25.3214 3.34464 23.3954V10.9379C3.34788 9.01262 4.11411 7.16715 5.47547 5.8058C6.83683 4.44444 8.6823 3.6782 10.6075 3.67496H23.0651C24.9919 3.67702 26.8392 4.44335 28.2016 5.8058C29.5641 7.16825 30.3304 9.01553 30.3325 10.9423V23.3954Z" fill="#B89207"/>
<path d="M16.8372 8.86206C15.1945 8.86206 13.5887 9.34916 12.2229 10.2618C10.8571 11.1744 9.79257 12.4715 9.16395 13.9891C8.53534 15.5067 8.37086 17.1767 8.69133 18.7878C9.01179 20.3989 9.8028 21.8787 10.9643 23.0403C12.1259 24.2018 13.6058 24.9928 15.2168 25.3133C16.8279 25.6338 18.4979 25.4693 20.0155 24.8407C21.5331 24.212 22.8302 23.1475 23.7428 21.7817C24.6555 20.4159 25.1426 18.8101 25.1426 17.1675C25.1426 14.9647 24.2675 12.8522 22.71 11.2946C21.1524 9.73708 19.0399 8.86206 16.8372 8.86206ZM16.8372 22.3576C15.8106 22.3576 14.8072 22.0532 13.9536 21.4829C13.1001 20.9126 12.4349 20.102 12.042 19.1537C11.6492 18.2053 11.5464 17.1617 11.7467 16.1549C11.947 15.1481 12.4413 14.2233 13.1671 13.4974C13.893 12.7716 14.8178 12.2773 15.8246 12.077C16.8314 11.8767 17.875 11.9795 18.8234 12.3724C19.7717 12.7652 20.5823 13.4304 21.1526 14.284C21.7229 15.1375 22.0273 16.1409 22.0273 17.1675C22.0253 18.5434 21.4778 19.8623 20.5049 20.8352C19.532 21.8081 18.213 22.3556 16.8372 22.3576Z" fill="#B89207"/>
</g>
<defs>
<clipPath id="clip0_4005_176">
<rect width="33.2205" height="33.2205" fill="white" transform="translate(0.226074 0.556152)"/>
</clipPath>
</defs>
</svg>
