<svg width="170" height="112" viewBox="0 0 170 112" fill="none" xmlns="http://www.w3.org/2000/svg">
<g clip-path="url(#clip0_2031_456)">
<path d="M24.2153 71.9589H39.3482L45.4013 78.0121" stroke="#B89207" stroke-width="6.05313" stroke-linecap="round" stroke-linejoin="round"/>
<path d="M15.1328 96.1683V105.248C15.1328 106.051 15.4516 106.821 16.0192 107.388C16.5868 107.956 17.3567 108.275 18.1594 108.275H39.3453C40.148 108.275 40.9178 107.956 41.4854 107.388C42.053 106.821 42.3719 106.051 42.3719 105.248" stroke="#B89207" stroke-width="6.05313" stroke-linecap="round" stroke-linejoin="round"/>
<path d="M59.7503 53.7963H36.3186L27.2389 50.7698L21.1858 41.6901H6.05293C5.25024 41.6901 4.48037 42.0092 3.91278 42.5768C3.34519 43.1443 3.02637 43.9139 3.02637 44.7166V50.7698C3.02637 51.5725 3.34519 52.3424 3.91278 52.91C4.48037 53.4776 5.25024 53.7963 6.05293 53.7963L18.1592 56.8229L15.1568 61.3265C13.168 64.3093 12.1065 67.814 12.1061 71.399V87.0886C12.1061 89.4966 13.0626 91.8062 14.7654 93.5089C16.4682 95.2117 18.7777 96.1683 21.1858 96.1683H118.036C120.444 96.1683 122.753 95.2117 124.456 93.5089C126.159 91.8062 127.116 89.4966 127.116 87.0886V71.399" stroke="#B89207" stroke-width="6.05313" stroke-linecap="round" stroke-linejoin="round"/>
<path d="M59.7504 26.5573H39.3452C38.1867 26.6383 37.0556 26.9475 36.0168 27.4668C34.9781 27.9862 34.0521 28.7056 33.2921 29.5838C31.9029 31.2303 24.2124 44.7166 24.2124 44.7166" stroke="#B89207" stroke-width="6.05313" stroke-linecap="round" stroke-linejoin="round"/>
<path d="M93.8228 78.0121L99.8759 71.9589H115.009" stroke="#B89207" stroke-width="6.05313" stroke-linecap="round" stroke-linejoin="round"/>
<path d="M124.09 96.1683V105.248C124.09 106.051 123.771 106.821 123.203 107.388C122.636 107.956 121.866 108.275 121.063 108.275H99.8772C99.0745 108.275 98.3046 107.956 97.737 107.388C97.1694 106.821 96.8506 106.051 96.8506 105.248" stroke="#B89207" stroke-width="6.05313" stroke-linecap="round" stroke-linejoin="round"/>
<path d="M157.602 3.11957H78.0397C73.0251 3.11957 68.96 7.18469 68.96 12.1993V50.0313C68.96 55.0459 73.0251 59.111 78.0397 59.111H157.602C162.617 59.111 166.682 55.0459 166.682 50.0313V12.1993C166.682 7.18469 162.617 3.11957 157.602 3.11957Z" stroke="#B89207" stroke-width="6.05313" stroke-linecap="round" stroke-linejoin="round"/>
<path d="M155.856 17.4384H85.7188" stroke="#B89207" stroke-width="6.05313" stroke-linecap="round" stroke-linejoin="round"/>
<path d="M155.854 30.9006H119.253" stroke="#B89207" stroke-width="6.05313" stroke-linecap="round" stroke-linejoin="round"/>
<path d="M155.856 44.3627H104.368" stroke="#B89207" stroke-width="6.05313" stroke-linecap="round" stroke-linejoin="round"/>
</g>
<defs>
<clipPath id="clip0_2031_456">
<rect width="169.709" height="111.208" fill="white" transform="translate(0 0.0928955)"/>
</clipPath>
</defs>
</svg>
