<svg width="5" height="5" viewBox="0 0 5 5" fill="none" xmlns="http://www.w3.org/2000/svg">
<path d="M4.26268 2.35793C4.26268 2.77947 4.13768 3.19152 3.90349 3.54202C3.66929 3.89251 3.33642 4.16571 2.94697 4.32702C2.55752 4.48834 2.129 4.53053 1.71556 4.44829C1.30212 4.36606 0.922328 4.16306 0.624256 3.86499C0.326184 3.56691 0.123185 3.18716 0.0409472 2.77372C-0.0412908 2.36029 0.000942861 1.93176 0.162258 1.54231C0.323574 1.15286 0.59673 0.819991 0.947226 0.585797C1.29772 0.351603 1.70981 0.226562 2.13135 0.226562C2.69662 0.226562 3.2387 0.451174 3.63841 0.850877C4.03811 1.25058 4.26268 1.79267 4.26268 2.35793Z" fill="#8D7008"/>
</svg>
