<svg width="86" height="86" viewBox="0 0 86 86" fill="none" xmlns="http://www.w3.org/2000/svg">
<path d="M28.3033 59.5591C29.9913 58.1349 31.1544 56.3023 31.6434 54.2964C32.1325 52.2905 31.9253 50.2026 31.0483 48.3003C30.1713 46.3981 28.6646 44.7681 26.7212 43.6194C24.7778 42.4707 22.4864 41.8557 20.1406 41.853C17.7948 41.8504 15.5016 42.4603 13.5548 43.6046C11.6081 44.749 10.0966 46.3755 9.21402 48.2758C8.33147 50.1761 8.11809 52.2635 8.60125 54.2705C9.08441 56.2775 10.2421 58.1127 11.9259 59.5407C8.53576 60.7008 5.61461 62.7129 3.53098 65.323C1.44736 67.9332 0.294642 71.0244 0.218262 74.2067C0.218262 74.7837 0.480407 75.337 0.94703 75.745C1.41365 76.153 2.04653 76.3822 2.70643 76.3822C3.36634 76.3822 3.99921 76.153 4.46583 75.745C4.93246 75.337 5.1946 74.7837 5.1946 74.2067C5.1946 67.7302 11.8913 62.4597 20.1221 62.4597C28.2613 62.4597 34.8844 67.7289 34.8844 74.2067C34.8844 74.7837 35.1465 75.337 35.6131 75.745C36.0798 76.153 36.7126 76.3822 37.3725 76.3822C38.0324 76.3822 38.6653 76.153 39.1319 75.745C39.5986 75.337 39.8607 74.7837 39.8607 74.2067C39.7936 71.0424 38.6616 67.9656 36.6061 65.3605C34.5506 62.7554 31.6628 60.7376 28.3033 59.5591ZM13.3217 52.1643C13.3217 50.9884 13.7206 49.8388 14.4678 48.861C15.215 47.8832 16.2771 47.1212 17.5197 46.6711C18.7623 46.2211 20.1297 46.1034 21.4488 46.3328C22.768 46.5622 23.9797 47.1285 24.9307 47.96C25.8818 48.7915 26.5295 49.851 26.7919 51.0043C27.0542 52.1577 26.9196 53.3532 26.4049 54.4397C25.8902 55.5261 25.0185 56.4547 23.9002 57.108C22.7819 57.7614 21.4671 58.1101 20.1221 58.1101C18.3192 58.1084 16.5906 57.4813 15.3157 56.3667C14.0408 55.252 13.3237 53.7407 13.3217 52.1643Z" fill="#B89207"/>
<path d="M45.4961 41.7231C45.4961 42.3001 45.7583 42.8534 46.2249 43.2614C46.6915 43.6694 47.3244 43.8986 47.9843 43.8986C48.6442 43.8986 49.277 43.6694 49.7437 43.2614C50.2103 42.8534 50.4725 42.3001 50.4725 41.7231C50.4725 35.2466 57.094 29.9761 65.2347 29.9761C73.4655 29.9761 80.1622 35.2453 80.1622 41.7231C80.1622 42.3001 80.4243 42.8534 80.891 43.2614C81.3576 43.6694 81.9905 43.8986 82.6504 43.8986C83.3103 43.8986 83.9431 43.6694 84.4097 43.2614C84.8764 42.8534 85.1385 42.3001 85.1385 41.7231C85.0631 38.542 83.9122 35.4516 81.8308 32.8416C79.7494 30.2316 76.8308 28.2188 73.4429 27.057C75.1267 25.629 76.2844 23.7939 76.7676 21.7869C77.2507 19.7799 77.0373 17.6925 76.1548 15.7922C75.2722 13.8919 73.7607 12.2653 71.814 11.121C69.8672 9.97669 67.574 9.36676 65.2282 9.36939C62.8824 9.37203 60.591 9.98711 58.6476 11.1358C56.7043 12.2845 55.1975 13.9144 54.3205 15.8167C53.4436 17.7189 53.2363 19.8069 53.7254 21.8128C54.2144 23.8187 55.3775 25.6512 57.0655 27.0754C53.7038 28.2523 50.8134 30.2694 48.7557 32.8746C46.698 35.4799 45.5642 38.5576 45.4961 41.7231ZM58.4328 19.6807C58.4328 18.5047 58.8316 17.3551 59.5789 16.3774C60.3261 15.3996 61.3881 14.6375 62.6308 14.1875C63.8734 13.7375 65.2407 13.6197 66.5599 13.8491C67.879 14.0786 69.0907 14.6448 70.0418 15.4764C70.9928 16.3079 71.6405 17.3673 71.9029 18.5207C72.1653 19.6741 72.0306 20.8696 71.5159 21.956C71.0012 23.0425 70.1296 23.9711 69.0113 24.6244C67.893 25.2777 66.5781 25.6264 65.2332 25.6264C63.4302 25.6247 61.7017 24.9977 60.4268 23.883C59.1519 22.7684 58.4347 21.257 58.4328 19.6807Z" fill="#B89207"/>
<path d="M10.6687 36.9373H34.8848C36.2042 36.9363 37.4693 36.4775 38.4023 35.6618C39.3353 34.8461 39.86 33.74 39.8611 32.5864V27.8006C40.073 27.6141 41.6642 26.056 46.1717 21.5724C46.9004 21.0442 47.4378 20.3422 47.7184 19.5518C47.999 18.7614 48.0107 17.9167 47.7522 17.1206C47.4936 16.3245 46.9759 15.6112 46.2621 15.0677C45.5482 14.5242 44.6691 14.1739 43.7316 14.0594C43.2178 13.9779 45.431 14.0239 10.6657 14.0239C9.3468 14.0257 8.08251 14.4847 7.15017 15.3004C6.21783 16.116 5.69357 17.2217 5.69238 18.3749V32.5864C5.69358 33.74 6.21825 34.8461 7.15124 35.6618C8.08422 36.4775 9.34928 36.9363 10.6687 36.9373ZM10.6687 18.3749C30.0257 18.3749 40.0249 18.3749 42.7926 18.3749C42.4815 18.6507 40.7281 20.2639 36.464 24.4664C35.4587 25.3532 34.8916 26.5495 34.8848 27.798V32.5838H10.6687V18.3749Z" fill="#B89207"/>
<path d="M59.8723 58.4766C59.4643 58.7161 59.1465 59.0558 58.9592 59.4531C58.7719 59.8503 58.7234 60.2871 58.8198 60.7084C58.9163 61.1297 59.1533 61.5166 59.501 61.8202C59.8487 62.1238 60.2916 62.3305 60.7735 62.4143C61.2555 62.498 61.7551 62.455 62.2092 62.2907C62.6632 62.1264 63.0514 61.8481 63.3247 61.491C63.598 61.134 63.7442 60.7141 63.7448 60.2844C63.7454 59.8548 63.6004 59.4346 63.3281 59.077C63.1465 58.8389 62.9131 58.6344 62.641 58.4753C62.369 58.3162 62.0637 58.2056 61.7427 58.1499C61.4216 58.0941 61.0912 58.0942 60.7702 58.1503C60.4493 58.2064 60.1442 58.3173 59.8723 58.4766Z" fill="#B89207"/>
<path d="M69.4289 60.71C69.5249 61.132 69.7619 61.5197 70.11 61.824C70.4581 62.1282 70.9015 62.3354 71.3843 62.4193C71.867 62.5032 72.3674 62.46 72.822 62.2952C73.2767 62.1305 73.6652 61.8515 73.9386 61.4936C74.2119 61.1357 74.3576 60.715 74.3574 60.2847C74.3572 59.8543 74.2111 59.4337 73.9374 59.076C73.6638 58.7184 73.2749 58.4397 72.8201 58.2752C72.3652 58.1108 71.8648 58.0679 71.3821 58.1522C70.7355 58.2654 70.1667 58.5984 69.8005 59.0779C69.4343 59.5574 69.3006 60.1444 69.4289 60.71Z" fill="#B89207"/>
<path d="M85.1356 67.3895V53.178C85.1344 52.0244 84.6097 50.9183 83.6768 50.1026C82.7438 49.2868 81.4788 48.8281 80.1594 48.827C39.2236 48.827 42.1008 48.7863 41.623 48.8625C40.6856 48.977 39.8065 49.3274 39.0927 49.8709C38.3789 50.4144 37.8612 51.1276 37.6027 51.9237C37.3441 52.7198 37.3558 53.5645 37.6364 54.3549C37.917 55.1453 38.4543 55.8473 39.183 56.3755C43.6904 60.8604 45.2845 62.4185 45.4933 62.6037V67.3895C45.4945 68.5431 46.0192 69.6492 46.9521 70.4649C47.8851 71.2807 49.15 71.7394 50.4694 71.7404H80.1579C81.4776 71.7397 82.743 71.2812 83.6762 70.4654C84.6095 69.6496 85.1344 68.5434 85.1356 67.3895ZM80.1594 67.3895H50.4724V62.6037C50.4656 61.3552 49.8986 60.1589 48.8934 59.2722C44.6294 55.0684 42.876 53.4565 42.565 53.1806C45.3325 53.1806 60.8048 53.1806 80.1609 53.1806L80.1594 67.3895Z" fill="#B89207"/>
</svg>
