<svg width="10" height="9" viewBox="0 0 10 9" fill="none" xmlns="http://www.w3.org/2000/svg">
<path d="M6.42002 0.834447L1.54049 4.4941C1.32694 4.6543 1.14704 4.85499 1.01105 5.08471C0.875068 5.31443 0.78566 5.56869 0.747937 5.83297C0.710214 6.09725 0.724914 6.36637 0.791196 6.62496C0.857479 6.88356 0.97405 7.12657 1.13425 7.34011C1.45778 7.77139 1.93938 8.05648 2.47311 8.13266C2.73739 8.17039 3.00651 8.15568 3.26511 8.0894C3.5237 8.02312 3.76671 7.90655 3.98026 7.74635L8.85979 4.0867C9.29107 3.76317 9.57616 3.28156 9.65234 2.74783C9.72853 2.2141 9.58957 1.67197 9.26603 1.24069C8.9425 0.809416 8.4609 0.524326 7.92717 0.448141C7.39344 0.371956 6.8513 0.510913 6.42002 0.834447Z" fill="#8D7008"/>
</svg>
