<svg width="17" height="25" viewBox="0 0 17 25" fill="none" xmlns="http://www.w3.org/2000/svg">
<path d="M11.1077 11.1013C11.1077 11.1013 11.3081 10.901 11.7088 10.5002C12.1095 10.0995 12.3098 9.33284 12.3098 8.20016C12.3098 7.06748 11.9091 6.10043 11.1077 5.29901C10.3063 4.49759 9.33924 4.09688 8.20656 4.09688C7.07388 4.09688 6.10684 4.49759 5.30541 5.29901C4.50399 6.10043 4.10328 7.06748 4.10328 8.20016C4.10328 9.33284 4.50399 10.2999 5.30541 11.1013C6.10684 11.9027 7.07388 12.3034 8.20656 12.3034C9.33924 12.3034 10.3063 11.9027 11.1077 11.1013ZM16.4131 8.20016C16.4131 9.36489 16.2368 10.3213 15.8842 11.0693L10.0498 23.4753C9.87886 23.8279 9.62508 24.1057 9.28848 24.3087C8.95188 24.5118 8.59124 24.6133 8.20656 24.6133C7.82188 24.6133 7.46124 24.5118 7.12464 24.3087C6.78804 24.1057 6.5396 23.8279 6.37932 23.4753L0.528939 11.0693C0.176313 10.3213 0 9.36489 0 8.20016C0 5.93481 0.801422 4.00071 2.40427 2.39786C4.00711 0.795019 5.94121 -0.00640106 8.20656 -0.00640106C10.4719 -0.00640106 12.406 0.795019 14.0089 2.39786C15.6117 4.00071 16.4131 5.93481 16.4131 8.20016Z" fill="black"/>
</svg>
