<svg width="29" height="33" viewBox="0 0 29 33" fill="none" xmlns="http://www.w3.org/2000/svg">
<path d="M17.3291 0.742459C15.2506 0.29071 13.0973 0.310168 11.0272 0.799403C8.9572 1.28864 7.02301 2.23523 5.36664 3.5697C3.71027 4.90416 2.37377 6.59262 1.45525 8.51113C0.536726 10.4296 0.0594947 12.5295 0.0585938 14.6565C0.0585938 15.1959 0.272836 15.7131 0.654196 16.0945C1.03556 16.4758 1.5528 16.6901 2.09212 16.6901C2.63145 16.6901 3.14868 16.4758 3.53004 16.0945C3.9114 15.7131 4.12565 15.1959 4.12565 14.6565C4.12577 12.708 4.68585 10.8006 5.73921 9.16128C6.79258 7.522 8.29484 6.21997 10.0671 5.41019C11.8394 4.60042 13.8071 4.31703 15.7359 4.59375C17.6647 4.87048 19.4733 5.69566 20.9465 6.97105C22.4196 8.24645 23.4952 9.91833 24.0452 11.7876C24.5952 13.6569 24.5964 15.6449 24.0487 17.5149C23.501 19.3849 22.4274 21.0581 20.9558 22.3352C19.4842 23.6124 17.6766 24.4398 15.7481 24.7189C14.7827 24.8595 13.8996 25.3415 13.2592 26.0775C12.6187 26.8135 12.2633 27.7547 12.2574 28.7304V30.9224C12.2574 31.4618 12.4717 31.979 12.853 32.3604C13.2344 32.7417 13.7516 32.956 14.291 32.956C14.8303 32.956 15.3475 32.7417 15.7289 32.3604C16.1102 31.979 16.3245 31.4618 16.3245 30.9224V28.7442C19.6363 28.2801 22.6789 26.6644 24.9184 24.1808C27.1579 21.6971 28.4512 18.5041 28.5713 15.1621C28.6915 11.82 27.6308 8.54238 25.5755 5.90432C23.5201 3.26626 20.6014 1.43629 17.3314 0.735514L17.3291 0.742459Z" fill="#8D7008"/>
</svg>
