<svg width="10" height="9" viewBox="0 0 10 9" fill="none" xmlns="http://www.w3.org/2000/svg">
<path d="M1.31719 1.23936C1.15681 1.45299 1.04013 1.69614 0.973801 1.9549C0.907475 2.21367 0.89281 2.48297 0.930648 2.7474C0.968485 3.01184 1.05808 3.26622 1.19432 3.496C1.33055 3.72578 1.51074 3.92645 1.72458 4.08653L6.60413 7.74618C7.0354 8.06971 7.57753 8.20867 8.11126 8.13249C8.64499 8.0563 9.1266 7.77121 9.45014 7.33994C9.77367 6.90866 9.91262 6.36653 9.83644 5.8328C9.76025 5.29907 9.47516 4.81746 9.04389 4.49393L4.16435 0.834274C3.95073 0.6739 3.70758 0.557213 3.44881 0.490887C3.19005 0.424562 2.92075 0.409901 2.65632 0.447739C2.39188 0.485577 2.13749 0.575172 1.90771 0.711403C1.67793 0.847634 1.47727 1.02551 1.31719 1.23936Z" fill="#8D7008"/>
</svg>
