<svg width="23" height="23" viewBox="0 0 23 23" fill="none" xmlns="http://www.w3.org/2000/svg">
<path d="M22.5476 18.1725C22.5476 18.4609 22.4943 18.8375 22.3875 19.3023C22.2807 19.767 22.1686 20.1329 22.0512 20.4C21.827 20.9342 21.1758 21.5004 20.0975 22.0987C19.094 22.6436 18.1011 22.916 17.1189 22.916C16.8307 22.916 16.5504 22.8973 16.2782 22.8599C16.0059 22.8225 15.699 22.7558 15.3574 22.6596C15.0158 22.5635 14.7622 22.486 14.5967 22.4272C14.4312 22.3685 14.135 22.259 13.7079 22.0987C13.2809 21.9385 13.0193 21.8423 12.9233 21.8103C11.877 21.4363 10.9429 20.993 10.1208 20.4801C8.75429 19.6361 7.3424 18.485 5.88513 17.0266C4.42786 15.5683 3.27752 14.1554 2.43412 12.7879C1.92167 11.9652 1.47862 11.0304 1.10496 9.98341C1.07293 9.88725 0.976851 9.6255 0.816712 9.19815C0.656572 8.77081 0.547143 8.47433 0.488426 8.30874C0.429708 8.14314 0.352307 7.8894 0.256223 7.54752C0.16014 7.20564 0.0934147 6.89849 0.0560488 6.62605C0.0186829 6.35362 0 6.07317 0 5.78471C0 4.80182 0.272237 3.80823 0.816712 2.80396C1.41457 1.72491 1.98039 1.07321 2.51419 0.848848C2.78109 0.731327 3.14674 0.619148 3.61115 0.512312C4.07555 0.405474 4.45188 0.352057 4.74013 0.352057C4.88959 0.352057 5.00169 0.368082 5.07642 0.400133C5.26859 0.464235 5.5515 0.870214 5.92516 1.61807C6.0426 1.82106 6.20274 2.10952 6.40558 2.48345C6.60843 2.85738 6.79525 3.19659 6.96607 3.50107C7.13689 3.80556 7.30236 4.09135 7.4625 4.35844C7.49453 4.40118 7.58794 4.53472 7.74275 4.75908C7.89755 4.98344 8.01231 5.17307 8.08705 5.32799C8.16178 5.4829 8.19914 5.63514 8.19914 5.78471C8.19914 5.99839 8.04701 6.26548 7.74275 6.58599C7.43848 6.9065 7.10753 7.2003 6.74988 7.4674C6.39224 7.73449 6.06128 8.01761 5.75702 8.31675C5.45275 8.61589 5.30062 8.86162 5.30062 9.05392C5.30062 9.15008 5.32731 9.27027 5.38069 9.4145C5.43407 9.55873 5.47944 9.66824 5.51681 9.74302C5.55417 9.81781 5.6289 9.94601 5.741 10.1276C5.8531 10.3093 5.91449 10.4108 5.92516 10.4321C6.73654 11.8958 7.66535 13.1511 8.71159 14.1981C9.75784 15.2451 11.0123 16.1746 12.4749 16.9866C12.4962 16.9972 12.5976 17.0587 12.7791 17.1709C12.9606 17.283 13.0887 17.3578 13.1635 17.3952C13.2382 17.4326 13.3476 17.478 13.4918 17.5314C13.6359 17.5849 13.756 17.6116 13.8521 17.6116C14.0442 17.6116 14.2898 17.4593 14.5887 17.1548C14.8876 16.8503 15.1706 16.5192 15.4375 16.1613C15.7044 15.8033 15.9979 15.4722 16.3182 15.1677C16.6385 14.8632 16.9054 14.7109 17.1189 14.7109C17.2684 14.7109 17.4205 14.7483 17.5753 14.8231C17.7301 14.8979 17.9196 15.0128 18.1438 15.1677C18.368 15.3226 18.5015 15.4161 18.5442 15.4481C18.8111 15.6084 19.0966 15.774 19.4009 15.9449C19.7052 16.1158 20.0441 16.3028 20.4178 16.5058C20.7915 16.7088 21.0797 16.869 21.2825 16.9866C22.0299 17.3605 22.4355 17.6436 22.4996 17.8359C22.5316 17.9107 22.5476 18.0229 22.5476 18.1725Z" fill="black"/>
</svg>
