<svg width="25" height="22" viewBox="0 0 25 22" fill="none" xmlns="http://www.w3.org/2000/svg">
<path d="M16.3971 11.7781H21.4621C21.4514 11.7461 21.438 11.7033 21.422 11.6499C21.406 11.5965 21.3926 11.5537 21.3819 11.5217L17.9839 3.57156H6.63577L3.23774 11.5217C3.22706 11.543 3.2137 11.5858 3.19767 11.6499C3.18165 11.714 3.16829 11.7567 3.1576 11.7781H8.22259L9.74529 14.8556H14.8744L16.3971 11.7781ZM24.6197 12.259V19.9847C24.6197 20.2625 24.5182 20.5029 24.3151 20.706C24.1121 20.909 23.8717 21.0105 23.5939 21.0105H1.02582C0.747994 21.0105 0.507567 20.909 0.30454 20.706C0.101513 20.5029 0 20.2625 0 19.9847V12.259C0 11.5965 0.13357 10.9393 0.400711 10.2875L4.21548 1.43977C4.32234 1.17263 4.51735 0.948235 4.80052 0.766579C5.08369 0.584923 5.36418 0.494095 5.64201 0.494095H18.9777C19.2555 0.494095 19.536 0.584923 19.8192 0.766579C20.1023 0.948235 20.2973 1.17263 20.4042 1.43977L24.219 10.2875C24.4861 10.9393 24.6197 11.5965 24.6197 12.259Z" fill="black"/>
</svg>
