<svg width="122" height="56" viewBox="0 0 122 56" fill="none" xmlns="http://www.w3.org/2000/svg">
<path d="M6.09942 55.2151H16.2659C17.1166 55.2135 17.9574 55.0315 18.7326 54.6812C19.5079 54.3308 20.2 53.8201 20.7635 53.1827H71.7579C74.7415 53.1845 77.6679 52.3643 80.2161 50.8124L118.317 27.6184C119.922 26.6502 121.113 25.1241 121.662 23.3322C122.212 21.5403 122.08 19.6088 121.294 17.9077C120.507 16.2065 119.121 14.8554 117.4 14.1131C115.679 13.3708 113.745 13.2895 111.968 13.8849C69.0959 28.1161 74.5356 26.7504 70.6005 26.7504C72.994 20.019 67.001 12.5192 59.2998 12.5192H48.8162C45.1158 12.5119 41.5297 11.2356 38.6567 8.90348C32.5688 3.99385 26.9509 4.38505 21.9903 4.38505C21.5711 3.20035 20.7962 2.17404 19.7716 1.44647C18.7469 0.718907 17.5226 0.325594 16.2659 0.320312H6.09942C4.48175 0.320312 2.93034 0.96293 1.78648 2.10679C0.642616 3.25066 0 4.80206 0 6.41973L0 49.1157C0 50.7334 0.642616 52.2848 1.78648 53.4286C2.93034 54.5725 4.48175 55.2151 6.09942 55.2151ZM36.1104 12.0655C39.7052 14.9807 44.1903 16.5762 48.8185 16.5862H59.3091C64.6654 16.5862 69.1908 22.4449 66.0497 26.7527H54.3254C50.3145 26.7556 46.3938 27.9425 43.0547 30.1647L41.5687 31.16C41.2058 31.4025 40.9306 31.7554 40.7839 32.1664C40.6371 32.5774 40.6265 33.0247 40.7538 33.4422C40.881 33.8597 41.1392 34.2251 41.4902 34.4845C41.8413 34.7438 42.2665 34.8832 42.7029 34.8822C43.483 34.8822 43.7607 34.5789 45.307 33.5465C47.9792 31.7619 51.1213 30.8112 54.3346 30.8151H72.4083C74.7069 30.8151 72.4246 31.3336 113.259 17.7413C114.084 17.4805 114.975 17.5297 115.766 17.8797C116.557 18.2297 117.192 18.8564 117.554 19.642C117.915 20.4277 117.977 21.3182 117.728 22.1464C117.479 22.9745 116.936 23.6832 116.201 24.1393L78.1096 47.3379C76.1961 48.5033 73.9983 49.1184 71.7579 49.1157H22.3653V8.4521H25.944C29.6452 8.4648 33.2314 9.73942 36.1104 12.0655ZM4.06705 6.41973C4.06705 5.88071 4.28118 5.36377 4.66232 4.98263C5.04346 4.60149 5.5604 4.38736 6.09942 4.38736H16.2659C16.8049 4.38736 17.3219 4.60149 17.703 4.98263C18.0841 5.36377 18.2983 5.88071 18.2983 6.41973V49.1157C18.2983 49.6547 18.0841 50.1716 17.703 50.5528C17.3219 50.9339 16.8049 51.148 16.2659 51.148H6.09942C5.5604 51.148 5.04346 50.9339 4.66232 50.5528C4.28118 50.1716 4.06705 49.6547 4.06705 49.1157V6.41973Z" fill="#8D7008"/>
</svg>
