<svg width="10" height="8" viewBox="0 0 10 8" fill="none" xmlns="http://www.w3.org/2000/svg">
<path d="M9.44679 1.03904C9.2867 0.825191 9.08603 0.644998 8.85625 0.508767C8.62647 0.372536 8.37209 0.282939 8.10766 0.245101C7.84322 0.207263 7.57392 0.221927 7.31516 0.288252C7.0564 0.354578 6.81324 0.471265 6.59961 0.631639L1.72008 4.29361C1.37822 4.54939 1.1256 4.90634 0.998064 5.3138C0.870527 5.72126 0.874554 6.15854 1.00957 6.56358C1.14458 6.96863 1.40373 7.32087 1.75023 7.57031C2.09674 7.81976 2.51301 7.95375 2.93996 7.95326C3.83578 7.95326 3.71772 7.87687 9.03938 3.88621C9.25323 3.72613 9.43343 3.52546 9.56966 3.29568C9.70589 3.0659 9.79548 2.81151 9.83332 2.54708C9.87115 2.28264 9.8565 2.01334 9.79017 1.75458C9.72385 1.49582 9.60716 1.25267 9.44679 1.03904Z" fill="#8D7008"/>
</svg>
