<svg width="10" height="8" viewBox="0 0 10 8" fill="none" xmlns="http://www.w3.org/2000/svg">
<path d="M3.98027 0.633756C3.76672 0.473559 3.52371 0.356991 3.26512 0.290708C3.00652 0.224425 2.7374 0.209726 2.47312 0.247449C1.93939 0.323634 1.45779 0.608723 1.13426 1.04C0.810722 1.47127 0.67176 2.01341 0.747945 2.54714C0.824131 3.08087 1.10922 3.56248 1.5405 3.88601C6.86447 7.87204 6.74179 7.95306 7.63992 7.95306C8.06687 7.95355 8.48314 7.81956 8.82964 7.57011C9.17615 7.32067 9.4353 6.96843 9.57031 6.56339C9.70533 6.15834 9.70935 5.72106 9.58181 5.3136C9.45428 4.90614 9.20166 4.54919 8.8598 4.29341L3.98027 0.633756Z" fill="#8D7008"/>
</svg>
