<svg width="58" height="86" viewBox="0 0 58 86" fill="none" xmlns="http://www.w3.org/2000/svg">
<path d="M30.4588 0.251748C24.4032 0.0070174 18.4276 1.70096 13.4013 5.08711C8.37498 8.47325 4.56031 13.3749 2.51231 19.0789C0.464315 24.7829 0.289849 30.9915 2.0143 36.8015C3.73875 42.6115 7.27215 47.7197 12.1004 51.3827C14.058 52.8245 15.6887 54.6639 16.8855 56.7802C18.0822 58.8965 18.8181 61.2419 19.0447 63.6626C17.8732 64.0949 16.8636 64.878 16.1536 65.9051C15.4435 66.9323 15.0675 68.1534 15.0769 69.402C15.0863 70.6507 15.4805 71.866 16.2059 72.8824C16.9313 73.8988 17.9525 74.6666 19.1303 75.0813C19.1706 77.7508 20.2593 80.2972 22.1613 82.1707C24.0633 84.0443 26.6259 85.0944 29.2956 85.0944C31.9654 85.0944 34.528 84.0443 36.43 82.1707C38.332 80.2972 39.4207 77.7508 39.4609 75.0813C40.6393 74.6665 41.661 73.8984 42.3867 72.8816C43.1125 71.8648 43.5069 70.6489 43.5163 69.3997C43.5257 68.1506 43.1495 66.9289 42.4391 65.9013C41.7287 64.8738 40.7186 64.0904 39.5466 63.6579C39.7918 61.2233 40.544 58.8669 41.7548 56.7404C42.9655 54.6139 44.608 52.7645 46.5766 51.311C51.2237 47.7553 54.6624 42.8543 56.4249 37.2747C58.1873 31.6951 58.1879 25.708 56.4265 20.1281C54.6651 14.5482 51.2273 9.64649 46.5809 6.08999C41.9344 2.53349 36.3051 0.494942 30.4588 0.251748ZM29.3014 81.5511C28.5 81.5523 27.7063 81.3956 26.9655 81.0899C26.2247 80.7842 25.5514 80.3356 24.9841 79.7696C24.4168 79.2035 23.9666 78.5313 23.6592 77.7912C23.3519 77.0511 23.1933 76.2577 23.1927 75.4563H35.3916C35.3904 77.0716 34.7485 78.6204 33.6067 79.763C32.465 80.9056 30.9167 81.5487 29.3014 81.5511ZM37.4332 71.3847H21.1604C20.621 71.3847 20.1038 71.1704 19.7225 70.789C19.3411 70.4077 19.1268 69.8904 19.1268 69.3511C19.1268 68.8118 19.3411 68.2946 19.7225 67.9132C20.1038 67.5318 20.621 67.3176 21.1604 67.3176H37.4263C37.9656 67.3176 38.4828 67.5318 38.8642 67.9132C39.2455 68.2946 39.4598 68.8118 39.4598 69.3511C39.4598 69.8904 39.2455 70.4077 38.8642 70.789C38.4828 71.1704 37.9656 71.3847 37.4263 71.3847H37.4332ZM44.116 48.0749C41.6986 49.8637 39.6817 52.1379 38.1945 54.7516C36.7073 57.3653 35.7825 60.2609 35.4795 63.2529H23.114C22.8287 60.2733 21.9185 57.3874 20.4427 54.7833C18.967 52.1792 16.9589 49.9155 14.5494 48.1397C10.4799 45.0551 7.48066 40.7715 5.97406 35.8924C4.46747 31.0133 4.52945 25.7845 6.15128 20.9425C7.77312 16.1004 10.8731 11.8892 15.0145 8.90186C19.156 5.91455 24.1302 4.30171 29.2366 4.29052C34.343 4.27933 39.3243 5.87034 43.4788 8.83946C47.6333 11.8086 50.7517 16.0062 52.3947 20.8411C54.0378 25.676 54.1227 30.9044 52.6375 35.7901C51.1523 40.6758 48.1719 44.9725 44.116 48.0749Z" fill="#8D7008"/>
</svg>
