<svg width="18" height="18" viewBox="0 0 18 18" fill="none" xmlns="http://www.w3.org/2000/svg">
<path d="M12.2677 0.813143C12.6367 0.965052 12.9269 1.20919 13.1385 1.54556C13.3501 1.88194 13.445 2.25086 13.4233 2.65234L13.3745 3.61262C13.3636 3.73198 13.3799 3.84862 13.4233 3.96256C13.4667 4.07649 13.5318 4.17143 13.6186 4.24739C13.7054 4.33419 13.8031 4.3993 13.9116 4.4427C14.0201 4.4861 14.134 4.50238 14.2534 4.49153L15.23 4.4427C15.6206 4.43185 15.9841 4.53222 16.3205 4.74381C16.6568 4.9554 16.901 5.24565 17.0529 5.61458C17.2048 5.9835 17.2373 6.36056 17.1505 6.74576C17.0637 7.13096 16.8738 7.45919 16.5809 7.73046L15.8485 8.3815C15.7617 8.45746 15.6938 8.54969 15.645 8.6582C15.5962 8.7667 15.5718 8.88064 15.5718 8.99999C15.5718 9.11935 15.5962 9.23328 15.645 9.34179C15.6938 9.4503 15.7617 9.54253 15.8485 9.61848L16.5809 10.2695C16.8738 10.5408 17.0637 10.8717 17.1505 11.2624C17.2373 11.653 17.2048 12.0273 17.0529 12.3854C16.901 12.7543 16.6568 13.0473 16.3205 13.2643C15.9841 13.4813 15.6152 13.579 15.2137 13.5573L14.2534 13.5085C14.134 13.4976 14.0174 13.5139 13.9035 13.5573C13.7895 13.6007 13.6946 13.6658 13.6186 13.7526C13.5318 13.8286 13.4667 13.9235 13.4233 14.0374C13.3799 14.1514 13.3582 14.268 13.3582 14.3874L13.4233 15.3639C13.4342 15.7546 13.3338 16.118 13.1222 16.4544C12.9106 16.7908 12.6204 17.0349 12.2515 17.1868C11.8934 17.3388 11.519 17.3713 11.1284 17.2845C10.7378 17.1977 10.4123 17.0078 10.1518 16.7148L9.5008 15.9824C9.414 15.8956 9.31634 15.8278 9.20783 15.779C9.09933 15.7301 8.98539 15.7057 8.86603 15.7057C8.74668 15.7057 8.63274 15.7301 8.52424 15.779C8.41573 15.8278 8.3235 15.8956 8.24755 15.9824L7.5965 16.7148C7.32524 17.0078 6.997 17.1977 6.6118 17.2845C6.2266 17.3713 5.84954 17.3388 5.48062 17.1868C5.11169 17.0349 4.82144 16.7908 4.60985 16.4544C4.39826 16.118 4.30332 15.7546 4.32502 15.3639L4.37385 14.3874C4.37385 14.268 4.35215 14.1514 4.30874 14.0374C4.26534 13.9235 4.20566 13.8286 4.12971 13.7526C4.0429 13.6658 3.94253 13.6007 3.8286 13.5573C3.71467 13.5139 3.60345 13.4976 3.49494 13.5085L2.51838 13.5573C2.1169 13.579 1.74798 13.484 1.41161 13.2725C1.07523 13.0609 0.831094 12.7706 0.679184 12.4017C0.527275 12.0328 0.494723 11.653 0.581528 11.2624C0.668334 10.8717 0.858221 10.5462 1.15119 10.2858L1.88361 9.63476C1.97042 9.54795 2.03823 9.4503 2.08706 9.34179C2.13589 9.23328 2.1603 9.11935 2.1603 8.99999C2.1603 8.88064 2.13589 8.7667 2.08706 8.6582C2.03823 8.54969 1.97042 8.45746 1.88361 8.3815L1.15119 7.73046C0.858221 7.45919 0.668334 7.13096 0.581528 6.74576C0.494723 6.36056 0.527275 5.9835 0.679184 5.61458C0.831094 5.24565 1.07523 4.9554 1.41161 4.74381C1.74798 4.53222 2.11148 4.43727 2.5021 4.45898L3.47866 4.5078C3.59802 4.5078 3.71467 4.4861 3.8286 4.4427C3.94253 4.3993 4.03747 4.33962 4.11343 4.26366C4.20024 4.17686 4.26534 4.07649 4.30874 3.96256C4.35215 3.84862 4.36842 3.73198 4.35757 3.61262L4.32502 2.63606C4.30332 2.24543 4.39826 1.88194 4.60985 1.54556C4.82144 1.20919 5.11169 0.965052 5.48062 0.813143C5.84954 0.661232 6.2266 0.628679 6.6118 0.715487C6.997 0.802292 7.32524 0.992178 7.5965 1.28515L8.24755 2.01757L8.31265 2.08267C8.3886 2.14778 8.47541 2.19932 8.57307 2.2373C8.67072 2.27527 8.76838 2.29426 8.86603 2.29426C8.98539 2.29426 9.09933 2.26985 9.20783 2.22102C9.31634 2.17219 9.40857 2.09895 9.48452 2.00129L10.1518 1.28515C10.4123 0.992178 10.7378 0.802292 11.1284 0.715487C11.519 0.628679 11.8988 0.661232 12.2677 0.813143ZM10.9168 1.98502L10.2658 2.70116C10.0813 2.90733 9.86973 3.06466 9.63101 3.17317C9.39229 3.28168 9.1373 3.33593 8.86603 3.33593C8.59477 3.33593 8.33978 3.28168 8.10106 3.17317C7.86235 3.06466 7.65076 2.90733 7.4663 2.70116L6.81525 1.98502C6.6959 1.85481 6.54941 1.77072 6.3758 1.73274C6.20219 1.69476 6.034 1.70832 5.87124 1.77343C5.70848 1.84938 5.58099 1.9606 5.48876 2.10709C5.39652 2.25357 5.35041 2.41362 5.35041 2.58723L5.39924 3.56379C5.42094 3.83506 5.38296 4.09276 5.28531 4.33691C5.18765 4.58105 5.04659 4.80077 4.86213 4.99609C4.66682 5.18055 4.44438 5.32161 4.19481 5.41926C3.94524 5.51692 3.69025 5.56032 3.42984 5.54947L2.45327 5.48437C2.27966 5.48437 2.1169 5.53048 1.96499 5.62271C1.81308 5.71494 1.70458 5.84244 1.63947 6.0052C1.57437 6.16796 1.5608 6.33615 1.59878 6.50976C1.63676 6.68337 1.72085 6.82985 1.85106 6.94921L2.58348 7.60025C2.77879 7.78471 2.9307 7.99902 3.03921 8.24316C3.14772 8.4873 3.20197 8.73958 3.20197 8.99999C3.20197 9.27126 3.14772 9.52896 3.03921 9.77311C2.9307 10.0172 2.77879 10.2261 2.58348 10.3997L1.85106 11.0508C1.72085 11.1701 1.63676 11.3166 1.59878 11.4902C1.5608 11.6638 1.57437 11.832 1.63947 11.9948C1.70458 12.1575 1.81308 12.2878 1.96499 12.3854C2.1169 12.4831 2.28509 12.5265 2.46955 12.5156L3.42984 12.4668C3.7011 12.4559 3.96152 12.4966 4.21109 12.5889C4.46065 12.6811 4.67767 12.8194 4.86213 13.0039C5.04659 13.1992 5.18765 13.4217 5.28531 13.6712C5.38296 13.9208 5.42636 14.1758 5.41551 14.4362L5.35041 15.4128C5.35041 15.5864 5.39652 15.7464 5.48876 15.8929C5.58099 16.0394 5.70848 16.1506 5.87124 16.2266C6.034 16.2917 6.20219 16.3052 6.3758 16.2672C6.54941 16.2293 6.6959 16.1452 6.81525 16.015L7.4663 15.2825C7.65076 15.0872 7.86506 14.9353 8.1092 14.8268C8.35334 14.7183 8.60562 14.6641 8.86603 14.6641C9.1373 14.6641 9.39501 14.7183 9.63915 14.8268C9.88329 14.9353 10.0922 15.0872 10.2658 15.2825L10.9168 16.015C11.0362 16.1452 11.1827 16.2293 11.3563 16.2672C11.5299 16.3052 11.6981 16.2862 11.8608 16.2103C12.0236 16.1452 12.1511 16.0394 12.2433 15.8929C12.3355 15.7464 12.3817 15.5864 12.3817 15.4128L12.3328 14.4362C12.3111 14.1758 12.3491 13.9208 12.4468 13.6712C12.5444 13.4217 12.6855 13.1992 12.8699 13.0039C13.0653 12.8194 13.285 12.6784 13.5291 12.5807C13.7733 12.4831 14.031 12.4451 14.3022 12.4668L15.2788 12.5156C15.4524 12.5265 15.6152 12.4831 15.7671 12.3854C15.919 12.2878 16.0275 12.1575 16.0926 11.9948C16.1577 11.832 16.1713 11.6638 16.1333 11.4902C16.0953 11.3166 16.0112 11.1701 15.881 11.0508L15.1486 10.3997C14.9533 10.2153 14.8014 10.0037 14.6929 9.76497C14.5844 9.52625 14.5301 9.27126 14.5301 8.99999C14.5301 8.72873 14.5844 8.47373 14.6929 8.23502C14.8014 7.9963 14.9533 7.78471 15.1486 7.60025L15.881 6.94921C16.0112 6.82985 16.0953 6.68337 16.1333 6.50976C16.1713 6.33615 16.1577 6.16796 16.0926 6.0052C16.0275 5.84244 15.919 5.71494 15.7671 5.62271C15.6152 5.53048 15.4524 5.48437 15.2788 5.48437L14.3022 5.53319C14.031 5.5549 13.7733 5.51692 13.5291 5.41926C13.285 5.32161 13.0707 5.18055 12.8862 4.99609C12.6909 4.80077 12.5471 4.58105 12.4549 4.33691C12.3627 4.09276 12.322 3.83506 12.3328 3.56379L12.3817 2.58723C12.3925 2.41362 12.3491 2.25086 12.2515 2.09895C12.1538 1.94704 12.0236 1.83853 11.8608 1.77343C11.6981 1.70832 11.5299 1.69476 11.3563 1.73274C11.1827 1.77072 11.0362 1.85481 10.9168 1.98502ZM8.86603 5.35416C9.36517 5.35416 9.83717 5.45181 10.2821 5.64713C10.7269 5.83159 11.1148 6.08929 11.4458 6.42024C11.7767 6.75119 12.0344 7.1391 12.2189 7.58398C12.4142 8.02886 12.5119 8.50086 12.5119 8.99999C12.5119 9.49913 12.4142 9.97113 12.2189 10.416C12.0344 10.8609 11.7767 11.2488 11.4458 11.5797C11.1148 11.9107 10.7269 12.1684 10.2821 12.3529C9.83717 12.5482 9.36517 12.6458 8.86603 12.6458C8.3669 12.6458 7.8949 12.5482 7.45002 12.3529C7.00514 12.1684 6.61723 11.9107 6.28628 11.5797C5.95534 11.2488 5.69763 10.8609 5.51317 10.416C5.31786 9.97113 5.2202 9.49913 5.2202 8.99999C5.2202 8.50086 5.31786 8.02886 5.51317 7.58398C5.69763 7.1391 5.95534 6.75119 6.28628 6.42024C6.61723 6.08929 7.00514 5.83159 7.45002 5.64713C7.8949 5.45181 8.3669 5.35416 8.86603 5.35416ZM8.86603 6.39583C8.14989 6.39583 7.53682 6.65082 7.02684 7.1608C6.51686 7.67078 6.26187 8.28385 6.26187 8.99999C6.26187 9.71614 6.51686 10.3292 7.02684 10.8392C7.53682 11.3492 8.14989 11.6042 8.86603 11.6042C9.58218 11.6042 10.1952 11.3492 10.7052 10.8392C11.2152 10.3292 11.4702 9.71614 11.4702 8.99999C11.4702 8.28385 11.2152 7.67078 10.7052 7.1608C10.1952 6.65082 9.58218 6.39583 8.86603 6.39583Z" fill="#3F3E45"/>
</svg>
