<svg width="116" height="82" viewBox="0 0 116 82" fill="none" xmlns="http://www.w3.org/2000/svg">
<g clip-path="url(#clip0_2031_472)">
<path d="M104.896 3.08948H11.1034C6.53308 3.08948 2.82812 6.79443 2.82812 11.3647V70.7918C2.82812 75.3621 6.53308 79.0671 11.1034 79.0671H104.896C109.466 79.0671 113.171 75.3621 113.171 70.7918V11.3647C113.171 6.79443 109.466 3.08948 104.896 3.08948Z" stroke="#B89207" stroke-width="4.8635" stroke-linecap="round" stroke-linejoin="round"/>
<path d="M103.363 42.5009H51.8735" stroke="#B89207" stroke-width="4.8635" stroke-linecap="round" stroke-linejoin="round"/>
<path d="M103.364 53.3173H73.9565" stroke="#B89207" stroke-width="4.8635" stroke-linecap="round" stroke-linejoin="round"/>
<path d="M103.364 64.1339H61.9951" stroke="#B89207" stroke-width="4.8635" stroke-linecap="round" stroke-linejoin="round"/>
<path d="M18.8945 21.6875C18.8945 20.9969 18.8605 20.3014 18.8945 19.6132C18.9973 18.3086 19.5918 17.0917 20.5576 16.2086C21.5235 15.3256 22.7886 14.8423 24.0972 14.8565C25.4058 14.8707 26.6602 15.3813 27.6067 16.2851C28.5531 17.189 29.121 18.4185 29.1954 19.7251C29.2392 20.8947 29.2319 22.0668 29.21 23.239C29.2161 24.6075 28.6784 25.9225 27.715 26.8945C26.7516 27.8666 25.4415 28.4161 24.0729 28.4222C22.7044 28.4284 21.3895 27.8906 20.4174 26.9272C19.4454 25.9638 18.8958 24.6537 18.8897 23.2852C18.8848 22.7526 18.8945 22.22 18.8945 21.6875Z" stroke="#B89207" stroke-width="4.8635" stroke-linecap="round" stroke-linejoin="round"/>
<path d="M13.958 41.5429L15.1739 35.3614C15.6395 34.1436 16.5043 33.1198 17.6272 32.4573C18.75 31.7947 20.0643 31.5326 21.3554 31.7137H26.7588C28.0498 31.5326 29.3642 31.7947 30.487 32.4573C31.6098 33.1198 32.4747 34.1436 32.9403 35.3614L34.1561 41.5429" stroke="#B89207" stroke-width="4.8635" stroke-linecap="round" stroke-linejoin="round"/>
<path d="M36.5119 42.5009H11.6011" stroke="#B89207" stroke-width="4.8635" stroke-linecap="round" stroke-linejoin="round"/>
</g>
<defs>
<clipPath id="clip0_2031_472">
<rect width="115.207" height="80.8411" fill="white" transform="translate(0.396484 0.657654)"/>
</clipPath>
</defs>
</svg>
