<svg width="38" height="39" viewBox="0 0 38 39" fill="none" xmlns="http://www.w3.org/2000/svg">
<path d="M31.8479 0.907227H5.4661C4.01691 0.908892 2.62756 1.48532 1.60282 2.51005C0.578091 3.53478 0.00166516 4.92414 0 6.37333L0 32.7551C0.00166516 34.2043 0.578091 35.5936 1.60282 36.6184C2.62756 37.6431 4.01691 38.2195 5.4661 38.2212H16.4713V25.0303H12.0974V18.4707H16.47V14.0251C16.472 12.2866 17.1635 10.6198 18.3927 9.39034C19.6219 8.16089 21.2886 7.46913 23.0271 7.4668H29.6597V14.0264H23.0271V18.472H29.6597L28.5637 25.0303H23.0271V38.2212H31.8479C33.2971 38.2195 34.6864 37.6431 35.7111 36.6184C36.7359 35.5936 37.3123 34.2043 37.314 32.7551V6.37333C37.3123 4.92414 36.7359 3.53478 35.7111 2.51005C34.6864 1.48532 33.2971 0.908892 31.8479 0.907227Z" fill="#B89207"/>
</svg>
