<svg width="168" height="113" viewBox="0 0 168 113" fill="none" xmlns="http://www.w3.org/2000/svg">
<g clip-path="url(#clip0_6084_105)">
<path d="M143.525 72.9377H128.369L122.307 79.0002" stroke="#B89207" stroke-width="6.06242" stroke-linecap="round" stroke-linejoin="round"/>
<path d="M152.619 97.1572V106.251C152.619 107.055 152.3 107.826 151.731 108.394C151.163 108.963 150.392 109.282 149.588 109.282H128.369C127.566 109.282 126.795 108.963 126.226 108.394C125.658 107.826 125.338 107.055 125.338 106.251" stroke="#B89207" stroke-width="6.06242" stroke-linecap="round" stroke-linejoin="round"/>
<path d="M107.939 54.7203H131.4L140.494 51.6891L146.556 42.5955H161.712C162.516 42.5955 163.287 42.9148 163.856 43.4833C164.424 44.0517 164.744 44.8227 164.744 45.6267V51.6891C164.744 52.493 164.424 53.264 163.856 53.8325C163.287 54.4009 162.516 54.7203 161.712 54.7203L149.588 57.7515L152.619 62.268C154.603 65.2597 155.658 68.7719 155.65 72.3619V88.0636C155.65 90.4754 154.692 92.7884 152.987 94.4937C151.281 96.1991 148.968 97.1572 146.556 97.1572H49.5577C47.146 97.1572 44.833 96.1991 43.1276 94.4937C41.4222 92.7884 40.4641 90.4754 40.4641 88.0636V72.3619" stroke="#B89207" stroke-width="6.06242" stroke-linecap="round" stroke-linejoin="round"/>
<path d="M107.939 27.4394H128.369C130.711 27.6086 132.891 28.6985 134.432 30.4706C135.826 32.1378 143.525 45.6266 143.525 45.6266" stroke="#B89207" stroke-width="6.06242" stroke-linecap="round" stroke-linejoin="round"/>
<path d="M73.8076 79.0002L67.7452 72.9377H52.5892" stroke="#B89207" stroke-width="6.06242" stroke-linecap="round" stroke-linejoin="round"/>
<path d="M43.496 97.1572V106.251C43.496 107.055 43.8153 107.826 44.3838 108.394C44.9523 108.963 45.7233 109.282 46.5272 109.282H67.7456C68.5496 109.282 69.3206 108.963 69.889 108.394C70.4575 107.826 70.7769 107.055 70.7769 106.251" stroke="#B89207" stroke-width="6.06242" stroke-linecap="round" stroke-linejoin="round"/>
<path d="M3.24134 3.97778H95.0566V60.0551H3.24134V3.97778Z" stroke="#B89207" stroke-width="6.06242" stroke-linecap="round" stroke-linejoin="round"/>
<path d="M93.4805 19.1944C90.9526 19.1944 88.9034 17.1452 88.9034 14.6173C88.9034 12.0894 90.9526 10.0402 93.4805 10.0402C96.0084 10.0402 98.0576 12.0894 98.0576 14.6173C98.0576 17.1452 96.0084 19.1944 93.4805 19.1944Z" fill="#B89207"/>
<path d="M68.1086 8.94897C66.7359 8.94897 65.6231 7.83613 65.6231 6.46337C65.6231 5.09062 66.7359 3.97778 68.1086 3.97778C69.4814 3.97778 70.5942 5.09062 70.5942 6.46337C70.5942 7.83613 69.4814 8.94897 68.1086 8.94897Z" fill="#B89207"/>
<path d="M68.1086 43.0198C66.7359 43.0198 65.6231 41.9069 65.6231 40.5342C65.6231 39.1614 66.7359 38.0486 68.1086 38.0486C69.4814 38.0486 70.5942 39.1614 70.5942 40.5342C70.5942 41.9069 69.4814 43.0198 68.1086 43.0198Z" fill="#B89207"/>
<path d="M68.1086 51.5376C66.7359 51.5376 65.6231 50.4248 65.6231 49.052C65.6231 47.6792 66.7359 46.5664 68.1086 46.5664C69.4814 46.5664 70.5942 47.6792 70.5942 49.052C70.5942 50.4248 69.4814 51.5376 68.1086 51.5376Z" fill="#B89207"/>
<path d="M68.1086 17.4666C66.7359 17.4666 65.6231 16.3538 65.6231 14.981C65.6231 13.6083 66.7359 12.4954 68.1086 12.4954C69.4814 12.4954 70.5942 13.6083 70.5942 14.981C70.5942 16.3538 69.4814 17.4666 68.1086 17.4666Z" fill="#B89207"/>
<path d="M68.1086 25.9843C66.7359 25.9843 65.6231 24.8715 65.6231 23.4987C65.6231 22.126 66.7359 21.0131 68.1086 21.0131C69.4814 21.0131 70.5942 22.126 70.5942 23.4987C70.5942 24.8715 69.4814 25.9843 68.1086 25.9843Z" fill="#B89207"/>
<path d="M68.1086 34.5021C66.7359 34.5021 65.6231 33.3892 65.6231 32.0165C65.6231 30.6437 66.7359 29.5309 68.1086 29.5309C69.4814 29.5309 70.5942 30.6437 70.5942 32.0165C70.5942 33.3892 69.4814 34.5021 68.1086 34.5021Z" fill="#B89207"/>
<path d="M68.1086 60.0551C66.7359 60.0551 65.6231 58.9423 65.6231 57.5695C65.6231 56.1968 66.7359 55.0839 68.1086 55.0839C69.4814 55.0839 70.5942 56.1968 70.5942 57.5695C70.5942 58.9423 69.4814 60.0551 68.1086 60.0551Z" fill="#B89207"/>
<path d="M93.4805 30.804C90.9526 30.804 88.9034 28.7548 88.9034 26.2269C88.9034 23.699 90.9526 21.6498 93.4805 21.6498C96.0084 21.6498 98.0576 23.699 98.0576 26.2269C98.0576 28.7548 96.0084 30.804 93.4805 30.804Z" fill="#B89207"/>
<path d="M93.4805 42.3834C90.9526 42.3834 88.9034 40.3341 88.9034 37.8063C88.9034 35.2784 90.9526 33.2291 93.4805 33.2291C96.0084 33.2291 98.0576 35.2784 98.0576 37.8063C98.0576 40.3341 96.0084 42.3834 93.4805 42.3834Z" fill="#B89207"/>
<path d="M93.4805 53.9927C90.9526 53.9927 88.9034 51.9434 88.9034 49.4156C88.9034 46.8877 90.9526 44.8384 93.4805 44.8384C96.0084 44.8384 98.0576 46.8877 98.0576 49.4156C98.0576 51.9434 96.0084 53.9927 93.4805 53.9927Z" fill="#B89207"/>
<path d="M4.78713 19.1944C2.25925 19.1944 0.210008 17.1452 0.210008 14.6173C0.210008 12.0894 2.25925 10.0402 4.78713 10.0402C7.315 10.0402 9.36426 12.0894 9.36426 14.6173C9.36426 17.1452 7.315 19.1944 4.78713 19.1944Z" fill="#B89207"/>
<path d="M4.78713 30.804C2.25925 30.804 0.210008 28.7548 0.210008 26.2269C0.210008 23.699 2.25925 21.6498 4.78713 21.6498C7.315 21.6498 9.36426 23.699 9.36426 26.2269C9.36426 28.7548 7.315 30.804 4.78713 30.804Z" fill="#B89207"/>
<path d="M4.78713 42.3834C2.25925 42.3834 0.210008 40.3341 0.210008 37.8063C0.210008 35.2784 2.25925 33.2291 4.78713 33.2291C7.315 33.2291 9.36426 35.2784 9.36426 37.8063C9.36426 40.3341 7.315 42.3834 4.78713 42.3834Z" fill="#B89207"/>
<path d="M4.78713 53.9927C2.25925 53.9927 0.210008 51.9434 0.210008 49.4156C0.210008 46.8877 2.25925 44.8384 4.78713 44.8384C7.315 44.8384 9.36426 46.8877 9.36426 49.4156C9.36426 51.9434 7.315 53.9927 4.78713 53.9927Z" fill="#B89207"/>
<path d="M55.6202 22.165H51.7402L45.2534 39.4732H49.194L50.5277 35.6236H56.8933L58.2573 39.4732H62.1069L55.6202 22.165ZM55.9839 32.7743H51.4977L53.5892 26.4087L55.9839 32.7743Z" fill="#B89207"/>
<path d="M43.4961 22.165H30.5528V25.1962H39.6465V29.0459H31.3713V32.0771H39.8586V36.3208H30.5225V39.4429H43.4961V22.165Z" fill="#B89207"/>
<path d="M27.9463 22.165H20.4592C19.4272 22.1675 18.4028 22.3417 17.428 22.6803C16.4841 23.0296 15.6261 23.5775 14.9121 24.2869C14.1875 25.053 13.6301 25.9614 13.2752 26.9543C12.8532 28.1617 12.648 29.4342 12.669 30.713C12.6677 31.9239 12.8413 33.1286 13.1843 34.2899C13.4813 35.3121 13.987 36.2617 14.6696 37.0786C15.3407 37.8619 16.18 38.4836 17.1249 38.8973C18.204 39.3679 19.3733 39.5956 20.5501 39.5642H27.9463V22.165ZM24.127 36.2602H20.732C20.1966 36.2709 19.6633 36.1889 19.1558 36.0177C18.6204 35.8397 18.1401 35.5265 17.7614 35.1083C17.3254 34.6494 16.9945 34.1013 16.7914 33.5018C16.5291 32.721 16.406 31.9002 16.4277 31.0768C16.4239 30.2823 16.5052 29.4896 16.6702 28.7124C16.822 28.0625 17.1114 27.4526 17.5189 26.924C17.9157 26.4024 18.4515 26.0032 19.0648 25.7722C19.8059 25.4224 20.6103 25.2264 21.4292 25.1962H24.127V36.2602Z" fill="#B89207"/>
</g>
<defs>
<clipPath id="clip0_6084_105">
<rect width="167.596" height="111.367" fill="white" transform="matrix(-1 0 0 1 167.775 0.946655)"/>
</clipPath>
</defs>
</svg>
