<svg width="139" height="146" viewBox="0 0 139 146" fill="none" xmlns="http://www.w3.org/2000/svg">
<g clip-path="url(#clip0_6084_250)">
<path d="M32.0627 98.2077C30.1982 99.2013 28.118 99.7209 26.0053 99.7209C23.8926 99.7209 21.8124 99.2013 19.9479 98.2077C19.452 97.9359 18.8685 97.8723 18.3257 98.0307C17.7829 98.1892 17.3252 98.5568 17.0534 99.0526C16.7817 99.5485 16.718 100.132 16.8764 100.675C17.0349 101.218 17.4025 101.675 17.8983 101.947C20.3921 103.287 23.1787 103.988 26.0094 103.988C28.8401 103.988 31.6267 103.287 34.1205 101.947C34.3658 101.812 34.5822 101.63 34.7571 101.411C34.9321 101.192 35.0623 100.941 35.1402 100.672C35.2182 100.403 35.2424 100.122 35.2114 99.8432C35.1805 99.5648 35.095 99.2952 34.9599 99.0499C34.8248 98.8045 34.6427 98.5882 34.424 98.4133C34.2052 98.2383 33.9542 98.1081 33.6852 98.0302C33.4161 97.9522 33.1344 97.928 32.856 97.959C32.5776 97.9899 32.3081 98.0754 32.0627 98.2105V98.2077Z" fill="#8D7008"/>
<path d="M24.0718 91.0967C24.0718 91.5182 23.9468 91.9303 23.7126 92.2808C23.4784 92.6313 23.1455 92.9045 22.756 93.0658C22.3666 93.2271 21.938 93.2693 21.5246 93.1871C21.1112 93.1048 20.7314 92.9018 20.4333 92.6038C20.1353 92.3057 19.9323 91.9259 19.85 91.5125C19.7678 91.0991 19.81 90.6705 19.9713 90.2811C20.1326 89.8916 20.4058 89.5588 20.7563 89.3246C21.1068 89.0904 21.5189 88.9653 21.9404 88.9653C22.5057 88.9653 23.0478 89.1899 23.4475 89.5896C23.8472 89.9893 24.0718 90.5314 24.0718 91.0967Z" fill="#8D7008"/>
<path d="M32.2099 91.0967C32.2099 91.5182 32.0849 91.9303 31.8507 92.2808C31.6165 92.6313 31.2837 92.9045 30.8942 93.0658C30.5048 93.2271 30.0762 93.2693 29.6628 93.1871C29.2494 93.1048 28.8696 92.9018 28.5715 92.6038C28.2735 92.3057 28.0705 91.9259 27.9882 91.5125C27.906 91.0991 27.9482 90.6705 28.1095 90.2811C28.2708 89.8916 28.544 89.5588 28.8945 89.3246C29.245 89.0904 29.6571 88.9653 30.0786 88.9653C30.6439 88.9653 31.186 89.1899 31.5857 89.5896C31.9854 89.9893 32.2099 90.5314 32.2099 91.0967Z" fill="#8D7008"/>
<path d="M136.065 122.863C135.935 122.614 135.758 122.394 135.544 122.214C135.329 122.034 135.081 121.899 134.814 121.815C134.547 121.731 134.266 121.7 133.988 121.725C133.709 121.749 133.438 121.828 133.189 121.958C132.941 122.087 132.721 122.264 132.541 122.479C132.361 122.693 132.225 122.941 132.141 123.208C132.057 123.475 132.027 123.756 132.051 124.035C132.076 124.314 132.155 124.585 132.284 124.833C133.907 127.931 134.749 131.379 134.737 134.877V134.912C134.735 136.598 134.064 138.215 132.872 139.408C131.679 140.6 130.063 141.271 128.376 141.273H97.608C96.3561 141.273 95.132 140.903 94.0894 140.21C95.0214 138.6 95.5112 136.772 95.5094 134.912V134.877C95.5124 131.512 94.8588 128.179 93.5852 125.065C95.0755 122.121 97.216 119.554 99.8447 117.56C102.473 115.566 105.521 114.196 108.758 113.553C111.994 112.911 115.335 113.013 118.526 113.853C121.717 114.692 124.675 116.246 127.177 118.398C127.389 118.581 127.635 118.72 127.901 118.808C128.167 118.895 128.447 118.93 128.726 118.909C129.005 118.888 129.278 118.813 129.528 118.687C129.778 118.561 130 118.387 130.183 118.175C130.366 117.963 130.505 117.717 130.593 117.451C130.68 117.185 130.715 116.904 130.694 116.625C130.673 116.346 130.598 116.074 130.472 115.824C130.346 115.574 130.172 115.351 129.96 115.168C127.661 113.191 125.034 111.631 122.197 110.56C125.515 108.55 128.083 105.51 129.511 101.904C130.939 98.2973 131.147 94.3228 130.104 90.5871C129.06 86.8513 126.823 83.5597 123.734 81.2148C120.644 78.8698 116.872 77.6004 112.993 77.6004C109.115 77.6004 105.343 78.8698 102.253 81.2148C99.1637 83.5597 96.9265 86.8513 95.8833 90.5871C94.8401 94.3228 95.0481 98.2973 96.4757 101.904C97.9033 105.51 100.472 108.55 103.789 110.56C98.6565 112.511 94.2695 116.031 91.2522 120.619C88.2336 116.032 83.8471 112.511 78.7149 110.557C82.032 108.546 84.6001 105.506 86.027 101.899C87.4539 98.292 87.6613 94.3173 86.6176 90.5815C85.5738 86.8457 83.3362 83.5542 80.2464 81.2093C77.1566 78.8644 73.3843 77.5951 69.5055 77.5951C65.6266 77.5951 61.8544 78.8644 58.7645 81.2093C55.6747 83.5542 53.4371 86.8457 52.3934 90.5815C51.3496 94.3173 51.557 98.292 52.984 101.899C54.4109 105.506 56.9789 108.546 60.296 110.557C55.1642 112.513 50.7779 116.034 47.7588 120.622C44.7482 116.025 40.3593 112.5 35.2215 110.551C38.5372 108.54 41.1035 105.499 42.529 101.892C43.9545 98.2853 44.1607 94.3112 43.1163 90.5763C42.0719 86.8415 39.8342 83.5508 36.7446 81.2067C33.6551 78.8626 29.8834 77.5938 26.0053 77.5938C22.1271 77.5938 18.3555 78.8626 15.2659 81.2067C12.1764 83.5508 9.93867 86.8415 8.89425 90.5763C7.84984 94.3112 8.0561 98.2853 9.48158 101.892C10.907 105.499 13.4734 108.54 16.789 110.551C13.4417 111.821 10.3933 113.77 7.83581 116.275C7.63538 116.471 7.47544 116.704 7.36511 116.961C7.25479 117.219 7.19625 117.495 7.19283 117.775C7.18942 118.055 7.24119 118.333 7.3452 118.593C7.44921 118.853 7.60342 119.09 7.79902 119.291C7.99462 119.491 8.22778 119.651 8.4852 119.761C8.74261 119.872 9.01924 119.93 9.29928 119.934C9.57931 119.937 9.85728 119.885 10.1173 119.781C10.3773 119.677 10.6143 119.523 10.8148 119.328C13.2589 116.943 16.2299 115.168 19.4875 114.145C22.7451 113.122 26.1978 112.88 29.5661 113.44C32.9344 113.999 36.1238 115.343 38.8762 117.363C41.6286 119.384 43.8667 122.024 45.4094 125.07C44.136 128.184 43.4824 131.517 43.4852 134.882V134.917C43.4834 136.778 43.9732 138.606 44.9052 140.216C43.8625 140.909 42.6385 141.279 41.3866 141.279H10.6294C8.94298 141.277 7.32622 140.606 6.13372 139.413C4.94121 138.221 4.27031 136.604 4.26815 134.917V134.882C4.26191 131.915 4.86681 128.979 6.04517 126.256C6.1563 125.999 6.21573 125.722 6.22006 125.442C6.22439 125.163 6.17353 124.884 6.0704 124.624C5.96727 124.364 5.81388 124.126 5.61898 123.925C5.42409 123.724 5.19151 123.564 4.93453 123.453C4.67754 123.341 4.40119 123.282 4.12124 123.278C3.84129 123.273 3.56322 123.324 3.30292 123.427C3.04263 123.53 2.80519 123.684 2.60417 123.879C2.40316 124.074 2.24249 124.306 2.13136 124.563C0.720275 127.818 -0.00524396 131.329 2.8532e-05 134.877V134.912C2.8532e-05 137.731 1.11991 140.435 3.11331 142.428C5.10671 144.421 7.81035 145.541 10.6294 145.541H41.392C43.6857 145.539 45.9172 144.796 47.7533 143.421C49.5874 144.799 51.8203 145.544 54.1146 145.541H84.8854C87.1799 145.544 89.4129 144.8 91.2467 143.421C93.0828 144.796 95.3143 145.539 97.608 145.541H128.371C131.19 145.541 133.893 144.421 135.887 142.428C137.88 140.435 139 137.731 139 134.912V134.877C138.999 130.694 137.993 126.574 136.065 122.863ZM99.4804 95.3651C99.4804 92.6946 100.272 90.0841 101.756 87.8637C103.24 85.6433 105.348 83.9127 107.815 82.8908C110.283 81.8688 112.997 81.6014 115.617 82.1224C118.236 82.6434 120.642 83.9293 122.53 85.8176C124.418 87.7059 125.704 90.1118 126.225 92.7309C126.746 95.3501 126.479 98.0649 125.457 100.532C124.435 102.999 122.704 105.108 120.484 106.592C118.263 108.075 115.653 108.867 112.982 108.867C109.403 108.863 105.971 107.439 103.44 104.908C100.909 102.377 99.4847 98.9447 99.4804 95.3651ZM12.4991 95.3651C12.4991 92.6946 13.291 90.0841 14.7746 87.8637C16.2583 85.6433 18.367 83.9127 20.8342 82.8908C23.3014 81.8688 26.0162 81.6014 28.6353 82.1224C31.2545 82.6434 33.6603 83.9293 35.5486 85.8176C37.4369 87.7059 38.7229 90.1118 39.2438 92.7309C39.7648 95.3501 39.4974 98.0649 38.4755 100.532C37.4536 102.999 35.723 105.108 33.5026 106.592C31.2822 108.075 28.6717 108.867 26.0012 108.867C22.423 108.861 18.9933 107.436 16.4639 104.905C13.9344 102.374 12.5116 98.9433 12.5073 95.3651H12.4991ZM55.9898 95.3651C55.9898 92.6946 56.7817 90.0841 58.2653 87.8637C59.7489 85.6433 61.8576 83.9127 64.3248 82.8908C66.792 81.8688 69.5068 81.6014 72.126 82.1224C74.7451 82.6434 77.151 83.9293 79.0393 85.8176C80.9276 87.7059 82.2135 90.1118 82.7345 92.7309C83.2555 95.3501 82.9881 98.0649 81.9661 100.532C80.9442 102.999 79.2136 105.108 76.9932 106.592C74.7728 108.075 72.1623 108.867 69.4918 108.867C65.9136 108.861 62.4839 107.436 59.9545 104.905C57.4251 102.374 56.0023 98.9433 55.9979 95.3651H55.9898ZM54.1065 141.273C52.42 141.271 50.8032 140.6 49.6107 139.408C48.4182 138.215 47.7473 136.598 47.7452 134.912V134.877C47.8093 129.151 50.1285 123.683 54.1996 119.657C58.2706 115.631 63.7651 113.373 69.4905 113.373C75.2159 113.373 80.7103 115.631 84.7814 119.657C88.8525 123.683 91.1717 129.151 91.2358 134.877V134.912C91.2336 136.598 90.5628 138.215 89.3702 139.408C88.1777 140.6 86.561 141.271 84.8745 141.273H54.1065Z" fill="#8D7008"/>
<path d="M119.044 98.2077C117.18 99.2013 115.099 99.7209 112.987 99.7209C110.874 99.7209 108.794 99.2013 106.929 98.2077C106.434 97.9359 105.85 97.8723 105.307 98.0307C104.764 98.1892 104.307 98.5568 104.035 99.0526C103.763 99.5485 103.699 100.132 103.858 100.675C104.016 101.218 104.384 101.675 104.88 101.947C107.373 103.287 110.16 103.988 112.991 103.988C115.822 103.988 118.608 103.287 121.102 101.947C121.347 101.812 121.564 101.63 121.739 101.412C121.914 101.193 122.044 100.942 122.122 100.673C122.2 100.404 122.224 100.123 122.194 99.8445C122.163 99.5661 122.078 99.2966 121.943 99.0513C121.808 98.8059 121.626 98.5895 121.407 98.4145C121.189 98.2395 120.938 98.1092 120.669 98.0312C120.4 97.9531 120.118 97.9287 119.84 97.9595C119.562 97.9902 119.292 98.0755 119.047 98.2105L119.044 98.2077Z" fill="#8D7008"/>
<path d="M111.053 91.0967C111.053 91.5182 110.928 91.9303 110.693 92.2808C110.459 92.6313 110.126 92.9045 109.737 93.0658C109.348 93.2271 108.919 93.2693 108.506 93.1871C108.092 93.1048 107.712 92.9018 107.414 92.6038C107.116 92.3057 106.913 91.9259 106.831 91.5125C106.749 91.0991 106.791 90.6705 106.952 90.2811C107.114 89.8916 107.387 89.5588 107.737 89.3246C108.088 89.0904 108.5 88.9653 108.921 88.9653C109.487 88.9653 110.029 89.1899 110.428 89.5896C110.828 89.9893 111.053 90.5314 111.053 91.0967Z" fill="#8D7008"/>
<path d="M119.194 91.0967C119.194 91.5182 119.069 91.9303 118.835 92.2808C118.6 92.6313 118.268 92.9045 117.878 93.0658C117.489 93.2271 117.06 93.2693 116.647 93.1871C116.233 93.1048 115.853 92.9018 115.555 92.6038C115.257 92.3057 115.054 91.9259 114.972 91.5125C114.89 91.0991 114.932 90.6705 115.093 90.2811C115.255 89.8916 115.528 89.5588 115.878 89.3246C116.229 89.0904 116.641 88.9653 117.062 88.9653C117.628 88.9653 118.17 89.1899 118.57 89.5896C118.969 89.9893 119.194 90.5314 119.194 91.0967Z" fill="#8D7008"/>
<path d="M75.553 98.2077C73.6885 99.2013 71.6082 99.7209 69.4956 99.7209C67.3829 99.7209 65.3026 99.2013 63.4382 98.2077C62.9423 97.9359 62.3588 97.8723 61.8159 98.0307C61.2731 98.1892 60.8155 98.5568 60.5437 99.0526C60.2719 99.5485 60.2082 100.132 60.3667 100.675C60.5251 101.218 60.8927 101.675 61.3886 101.947C63.8823 103.287 66.6689 103.988 69.4996 103.988C72.3304 103.988 75.117 103.287 77.6107 101.947C77.8561 101.812 78.0724 101.63 78.2474 101.411C78.4223 101.192 78.5525 100.941 78.6305 100.672C78.7084 100.403 78.7326 100.122 78.7017 99.8432C78.6707 99.5648 78.5853 99.2952 78.4501 99.0499C78.315 98.8045 78.1329 98.5882 77.9142 98.4133C77.6955 98.2383 77.4444 98.1081 77.1754 98.0302C76.9064 97.9522 76.6246 97.928 76.3463 97.959C76.0679 97.9899 75.7983 98.0754 75.553 98.2105V98.2077Z" fill="#8D7008"/>
<path d="M75.7031 91.0967C75.7031 91.5182 75.5781 91.9303 75.3439 92.2808C75.1097 92.6313 74.7768 92.9045 74.3874 93.0658C73.9979 93.2271 73.5694 93.2693 73.156 93.1871C72.7425 93.1048 72.3627 92.9018 72.0647 92.6038C71.7666 92.3057 71.5636 91.9259 71.4814 91.5125C71.3991 91.0991 71.4413 90.6705 71.6027 90.2811C71.764 89.8916 72.0372 89.5588 72.3877 89.3246C72.7382 89.0904 73.1502 88.9653 73.5718 88.9653C74.137 88.9653 74.6791 89.1899 75.0788 89.5896C75.4785 89.9893 75.7031 90.5314 75.7031 91.0967Z" fill="#8D7008"/>
<path d="M83.7134 29.9206H113.844C114.409 29.9206 114.951 29.6961 115.351 29.2964C115.75 28.8967 115.975 28.3546 115.975 27.7893C115.975 27.224 115.75 26.6819 115.351 26.2822C114.951 25.8825 114.409 25.658 113.844 25.658H83.7134C83.1481 25.658 82.606 25.8825 82.2063 26.2822C81.8066 26.6819 81.582 27.224 81.582 27.7893C81.582 28.3546 81.8066 28.8967 82.2063 29.2964C82.606 29.6961 83.1481 29.9206 83.7134 29.9206Z" fill="#8D7008"/>
<path d="M83.7134 38.4458H113.844C114.409 38.4458 114.951 38.2212 115.351 37.8215C115.75 37.4218 115.975 36.8797 115.975 36.3144C115.975 35.7492 115.75 35.2071 115.351 34.8074C114.951 34.4077 114.409 34.1831 113.844 34.1831H83.7134C83.1481 34.1831 82.606 34.4077 82.2063 34.8074C81.8066 35.2071 81.582 35.7492 81.582 36.3144C81.582 36.8797 81.8066 37.4218 82.2063 37.8215C82.606 38.2212 83.1481 38.4458 83.7134 38.4458Z" fill="#8D7008"/>
<path d="M83.7134 46.9739H113.844C114.124 46.9739 114.401 46.9187 114.659 46.8116C114.918 46.7045 115.153 46.5475 115.351 46.3496C115.549 46.1517 115.706 45.9168 115.813 45.6582C115.92 45.3996 115.975 45.1224 115.975 44.8425C115.975 44.5626 115.92 44.2855 115.813 44.0269C115.706 43.7683 115.549 43.5334 115.351 43.3355C115.153 43.1375 114.918 42.9805 114.659 42.8734C114.401 42.7663 114.124 42.7112 113.844 42.7112H83.7134C83.1481 42.7112 82.606 42.9358 82.2063 43.3355C81.8066 43.7352 81.582 44.2772 81.582 44.8425C81.582 45.4078 81.8066 45.9499 82.2063 46.3496C82.606 46.7493 83.1481 46.9739 83.7134 46.9739Z" fill="#8D7008"/>
<path d="M20.9997 59.1976H31.1984C31.3028 61.5075 31.8801 63.7713 32.8946 65.849C33.9091 67.9268 35.3392 69.7742 37.0964 71.277C39.5467 73.0591 42.5166 73.9826 45.5454 73.9044C46.9596 73.8996 48.3692 73.7452 49.7509 73.4438C50.3067 73.3242 50.8037 73.0152 51.1569 72.5697C51.5102 72.1242 51.6977 71.5698 51.6874 71.0013C51.6771 70.4328 51.4696 69.8856 51.1005 69.4532C50.7313 69.0207 50.2234 68.73 49.6636 68.6306C49.0975 68.5632 48.5537 68.3698 48.0722 68.0647C47.5906 67.7595 47.1836 67.3503 46.8809 66.8672C45.847 64.4462 45.6364 61.7527 46.2813 59.2004H59.4454C61.6892 59.2024 63.9029 58.6847 65.913 57.6877C66.9804 60.4442 68.853 62.8154 71.287 64.4925C73.7211 66.1696 76.6037 67.075 79.5596 67.0907H92.7237C93.3702 69.6438 93.1596 72.3386 92.1241 74.7602C91.8211 75.2437 91.4137 75.6531 90.9316 75.9582C90.4495 76.2634 89.9052 76.4566 89.3386 76.5236C88.7799 76.6238 88.2733 76.9146 87.905 77.3465C87.5368 77.7783 87.3297 78.3246 87.319 78.892C87.303 79.4628 87.488 80.0212 87.8417 80.4695C88.1953 80.9178 88.6953 81.2277 89.2541 81.345C90.6349 81.6463 92.0436 81.8007 93.4568 81.8056C96.4859 81.8826 99.4557 80.9581 101.906 79.1755C103.661 77.6697 105.088 75.8198 106.099 73.7402C107.111 71.6605 107.684 69.3955 107.785 67.0852H117.994C121.865 67.0823 125.576 65.5444 128.314 62.8089C131.052 60.0733 132.594 56.3634 132.6 52.4929V22.4853C132.592 18.6174 131.05 14.9107 128.313 12.1775C125.576 9.44431 121.868 7.90752 118 7.90392H79.5568C77.3139 7.90623 75.1013 8.42277 73.0892 9.41384C72.0343 6.64867 70.1655 4.26852 67.7295 2.58776C65.2935 0.906993 62.405 0.00468366 59.4454 0L33.1063 0C32.541 0 31.9989 0.224551 31.5992 0.624253C31.1995 1.02396 30.975 1.56607 30.975 2.13133C30.975 2.6966 31.1995 3.23871 31.5992 3.63841C31.9989 4.03812 32.541 4.26267 33.1063 4.26267H59.4345C62.1738 4.26698 64.7998 5.35632 66.7378 7.29225C68.6757 9.22818 69.7678 11.853 69.775 14.5923V44.6026C69.7678 47.3419 68.6757 49.9667 66.7378 51.9027C64.7998 53.8386 62.1738 54.9279 59.4345 54.9323H44.5888C44.1287 54.9323 43.6809 55.0813 43.3125 55.3569C42.9441 55.6325 42.6747 56.0199 42.5447 56.4613C42.3103 57.2571 40.3316 64.3652 43.2478 69.0993C43.3269 69.2274 43.4086 69.3528 43.4931 69.4755C42.111 69.2588 40.8018 68.7108 39.6774 67.8783C37.0746 65.9051 35.5892 62.2257 35.284 56.9382C35.2513 56.3957 35.0129 55.886 34.6173 55.5132C34.2218 55.1404 33.6989 54.9327 33.1553 54.9323H20.9997C18.2604 54.9279 15.6344 53.8386 13.6964 51.9027C11.7585 49.9667 10.6664 47.3419 10.6591 44.6026V14.5923C10.6664 11.853 11.7585 9.22818 13.6964 7.29225C15.6344 5.35632 18.2604 4.26698 20.9997 4.26267H24.0195C24.5848 4.26267 25.1269 4.03812 25.5266 3.63841C25.9263 3.23871 26.1508 2.6966 26.1508 2.13133C26.1508 1.56607 25.9263 1.02396 25.5266 0.624253C25.1269 0.224551 24.5848 0 24.0195 0H20.9997C17.1294 0.00288285 13.4184 1.54086 10.6807 4.2765C7.943 7.01215 6.40226 10.722 6.39648 14.5923V44.6026C6.40154 48.4733 7.94196 52.1839 10.6797 54.9202C13.4175 57.6564 17.129 59.1948 20.9997 59.1976ZM74.0486 44.6054V14.5923C74.0486 14.3197 74.0486 14.0335 74.0241 13.7555C75.6766 12.7021 77.5971 12.1458 79.5568 12.153H118C120.739 12.1573 123.365 13.2466 125.303 15.1825C127.241 17.1185 128.333 19.7433 128.34 22.4826V52.4929C128.333 55.2322 127.241 57.857 125.303 59.793C123.365 61.7289 120.739 62.8182 118 62.8225H105.839C105.295 62.823 104.772 63.0307 104.377 63.4035C103.981 63.7763 103.743 64.2859 103.71 64.8285C103.397 70.1132 101.919 73.7954 99.3194 75.7686C98.1949 76.601 96.8858 77.1489 95.5037 77.3658C95.5882 77.2431 95.6726 77.1177 95.749 76.9896C98.668 72.2664 96.6893 65.1474 96.4549 64.3515C96.3248 63.9102 96.0555 63.5228 95.687 63.2472C95.3186 62.9716 94.8708 62.8226 94.4107 62.8225H79.5568C77.276 62.8117 75.0619 62.0518 73.2551 60.6596C71.4483 59.2675 70.149 57.3203 69.557 55.1176C70.9773 53.7593 72.1075 52.1273 72.8795 50.3201C73.6515 48.5128 74.0492 46.5706 74.0486 44.6054Z" fill="#8D7008"/>
<path d="M20.4658 25.4123C20.4658 29.8903 22.7934 38.631 38.3695 46.8701C38.9402 47.172 39.5759 47.3299 40.2215 47.3299C40.8671 47.3299 41.5029 47.172 42.0735 46.8701C57.6497 38.631 59.9772 29.8903 59.9772 25.4123C60.0714 23.8905 59.8619 22.3651 59.3609 20.925C58.8599 19.485 58.0774 18.1589 57.0591 17.0241C56.0407 15.8893 54.8067 14.9684 53.4291 14.3151C52.0514 13.6617 50.5575 13.289 49.0344 13.2185C45.7645 13.2262 42.6178 14.4672 40.2229 16.6935C37.8272 14.4665 34.6795 13.2255 31.4086 13.2185C29.8855 13.289 28.3916 13.6617 27.014 14.3151C25.6363 14.9684 24.4023 15.8893 23.3839 17.0241C22.3656 18.1589 21.5831 19.485 21.0821 20.925C20.5811 22.3651 20.3716 23.8905 20.4658 25.4123ZM31.4086 17.4812C32.5838 17.4821 33.7466 17.7212 34.8269 18.184C35.9071 18.6468 36.8823 19.3238 37.6936 20.174C38.0234 20.5093 38.4166 20.7757 38.8504 20.9576C39.2842 21.1394 39.7498 21.2331 40.2201 21.2331C40.6905 21.2331 41.1561 21.1394 41.5899 20.9576C42.0237 20.7757 42.4169 20.5093 42.7467 20.174C43.5576 19.323 44.5327 18.6454 45.6129 18.1821C46.6932 17.7188 47.8562 17.4794 49.0317 17.4784C49.9941 17.5523 50.9322 17.8172 51.7912 18.2576C52.6502 18.698 53.4129 19.305 54.0348 20.0433C54.6566 20.7816 55.1252 21.6364 55.4131 22.5578C55.7011 23.4791 55.8026 24.4486 55.7118 25.4096C55.7118 31.3675 50.0673 37.7833 40.2201 43.0245C30.373 37.7833 24.7285 31.3703 24.7285 25.4096C24.6381 24.4488 24.7399 23.4796 25.028 22.5586C25.3161 21.6375 25.7848 20.7831 26.4066 20.0451C27.0284 19.3071 27.7909 18.7003 28.6498 18.2601C29.5086 17.8199 30.4464 17.5551 31.4086 17.4812Z" fill="#8D7008"/>
</g>
<defs>
<clipPath id="clip0_6084_250">
<rect width="139" height="145.538" fill="white"/>
</clipPath>
</defs>
</svg>
