<svg width="164" height="134" viewBox="0 0 164 134" fill="none" xmlns="http://www.w3.org/2000/svg">
<path d="M155.251 98.8291C154.992 98.652 154.7 98.5277 154.393 98.4633C154.085 98.3989 153.768 98.3958 153.46 98.4541C153.151 98.5123 152.857 98.6307 152.594 98.8026C152.332 98.9745 152.106 99.1965 151.929 99.4559L146.435 107.507C144.661 110.105 143.658 113.151 143.542 116.295L142.978 131.404C142.971 132.027 143.208 132.628 143.638 133.079C144.068 133.53 144.658 133.796 145.28 133.819C145.903 133.842 146.511 133.621 146.973 133.204C147.436 132.786 147.717 132.204 147.757 131.582L148.321 116.473C148.404 114.231 149.119 112.058 150.384 110.205L155.878 102.154C156.235 101.63 156.369 100.986 156.252 100.363C156.134 99.7401 155.774 99.1893 155.251 98.8317V98.8291Z" fill="#8D7008"/>
<path d="M159.897 73.6109L145.475 51.2385V9.67304C145.472 7.10841 144.452 4.64957 142.639 2.8361C140.826 1.02263 138.367 0.0026549 135.802 0H27.4355C24.8708 0.0026549 22.412 1.02263 20.5985 2.8361C18.7851 4.64957 17.7651 7.10841 17.7624 9.67304V28.0413C17.7825 28.6619 18.0432 29.2504 18.4894 29.6824C18.9355 30.1143 19.5321 30.3558 20.1531 30.3558C20.7741 30.3558 21.3707 30.1143 21.8169 29.6824C22.263 29.2504 22.5237 28.6619 22.5438 28.0413V9.67304C22.5451 8.37653 23.0606 7.13346 23.9771 6.21645C24.8936 5.29944 26.1364 4.78335 27.433 4.78136H135.802C137.099 4.78335 138.341 5.29944 139.258 6.21645C140.174 7.13346 140.69 8.37653 140.691 9.67304V81.9174C140.69 82.5853 140.552 83.2458 140.285 83.8581L135.423 78.5928V12.8598C135.425 12.1179 135.133 11.4055 134.61 10.879C134.088 10.3525 133.377 10.0549 132.635 10.0516H116.393C116.073 10.0413 115.754 10.0954 115.454 10.2109C115.155 10.3264 114.882 10.5008 114.652 10.7238C114.422 10.9468 114.239 11.2139 114.113 11.5091C113.988 11.8043 113.924 12.1217 113.924 12.4423C113.924 12.7629 113.988 13.0803 114.113 13.3755C114.239 13.6707 114.422 13.9378 114.652 14.1608C114.882 14.3838 115.155 14.5583 115.454 14.6737C115.754 14.7892 116.073 14.8434 116.393 14.833H130.642V73.3977L122.661 64.7452C121.369 63.3427 119.584 62.4956 117.68 62.3815C115.776 62.2674 113.902 62.8953 112.452 64.1334H74.2161C73.8956 64.123 73.5763 64.1772 73.2772 64.2926C72.9781 64.4081 72.7052 64.5825 72.4749 64.8056C72.2445 65.0286 72.0613 65.2956 71.9362 65.5909C71.8111 65.8861 71.7467 66.2034 71.7467 66.5241C71.7467 66.8447 71.8111 67.1621 71.9362 67.4573C72.0613 67.7525 72.2445 68.0196 72.4749 68.2426C72.7052 68.4656 72.9781 68.64 73.2772 68.7555C73.5763 68.871 73.8956 68.9251 74.2161 68.9148H109.917C109.74 70.4374 110.042 71.9775 110.782 73.32L112.685 76.7575H50.5525L52.4555 73.32C52.677 72.9161 52.86 72.4921 53.0021 72.0539L53.8094 72.6506C54.2944 73.0102 54.8975 73.1728 55.4976 73.1058C56.0976 73.0388 56.65 72.7472 57.0438 72.2895L64.2823 63.8777C64.4958 63.6409 64.6599 63.3638 64.7648 63.0628C64.8698 62.7617 64.9135 62.4427 64.8933 62.1244C64.8732 61.8062 64.7896 61.4953 64.6476 61.2098C64.5055 60.9244 64.3078 60.6702 64.0661 60.4622C63.8244 60.2543 63.5436 60.0968 63.2401 59.999C62.9366 59.9011 62.6167 59.8649 62.299 59.8926C61.9814 59.9202 61.6725 60.011 61.3904 60.1597C61.1084 60.3085 60.859 60.5121 60.6567 60.7586L54.8675 67.4856L51.8287 65.2291C51.622 64.9587 51.3966 64.7032 51.1542 64.4644C50.4485 63.7744 49.6114 63.2331 48.6927 62.8725C47.7739 62.512 46.7922 62.3394 45.8056 62.3651C44.8189 62.3909 43.8475 62.6143 42.9488 63.0223C42.0501 63.4302 41.2424 64.0144 40.5735 64.7402L35.3233 70.4342V14.833H106.833C107.454 14.8129 108.042 14.5522 108.474 14.1061C108.906 13.6599 109.148 13.0633 109.148 12.4423C109.148 11.8213 108.906 11.2247 108.474 10.7786C108.042 10.3324 107.454 10.0717 106.833 10.0516H33.33C32.5877 10.0549 31.8771 10.3529 31.3543 10.8799C30.8315 11.4069 30.5393 12.1199 30.542 12.8623V75.6242L22.95 83.8581C22.6832 83.2458 22.5449 82.5853 22.5438 81.9174V37.6015C22.5237 36.9808 22.263 36.3923 21.8169 35.9604C21.3707 35.5285 20.7741 35.287 20.1531 35.287C19.5321 35.287 18.9355 35.5285 18.4894 35.9604C18.0432 36.3923 17.7825 36.9808 17.7624 37.6015V51.2385L3.34062 73.6109C1.10939 77.0626 -0.0521767 81.0967 0.00179918 85.2064C0.055775 89.3162 1.32289 93.3184 3.644 96.7103L12.8507 110.197C14.1165 112.05 14.8327 114.223 14.9167 116.465L15.4808 131.574C15.4842 131.893 15.5515 132.209 15.6789 132.502C15.8062 132.795 15.9909 133.059 16.2222 133.28C16.4534 133.5 16.7265 133.672 17.0252 133.785C17.324 133.899 17.6424 133.951 17.9616 133.939C18.2809 133.927 18.5945 133.851 18.8841 133.716C19.1736 133.581 19.4331 133.389 19.6473 133.152C19.8615 132.915 20.026 132.638 20.1312 132.336C20.2364 132.034 20.2801 131.715 20.2597 131.396L19.6955 116.285C19.5768 113.145 18.5738 110.103 16.8021 107.509L7.59295 94.015C5.80576 91.4003 4.83026 88.3162 4.78878 85.1494C4.7473 81.9826 5.64168 78.874 7.35977 76.2134L17.7624 60.0516V81.9049C17.7597 83.9216 18.3873 85.8888 19.5576 87.5312L18.2664 88.9328C18.0353 89.1597 17.8527 89.4313 17.7297 89.731C17.6067 90.0306 17.5459 90.3521 17.5509 90.676C17.5559 90.9999 17.6266 91.3193 17.7587 91.6151C17.8909 91.9108 18.0817 92.1766 18.3197 92.3964C18.5576 92.6161 18.8377 92.7853 19.143 92.8935C19.4483 93.0018 19.7724 93.047 20.0956 93.0262C20.4189 93.0055 20.7345 92.9193 21.0235 92.7729C21.3124 92.6266 21.5686 92.423 21.7766 92.1747L44.0912 67.9871C44.5226 67.5264 45.1069 67.2386 45.735 67.1773C46.363 67.116 46.992 67.2854 47.5042 67.654C48.0165 68.0225 48.3771 68.5649 48.5186 69.1799C48.6602 69.7949 48.573 70.4404 48.2734 70.9958L34.852 95.231C34.3682 96.0956 34.1573 97.0863 34.2468 98.0729C34.3363 99.0596 34.722 99.9961 35.3534 100.76C36.6377 102.331 37.4988 104.204 37.8547 106.202C38.2106 108.199 38.0495 110.255 37.3868 112.173C36.7211 114.077 36.3582 116.073 36.3112 118.09L36.0605 129.169C36.0602 129.794 36.3046 130.395 36.7414 130.842C37.1781 131.289 37.7724 131.547 38.3972 131.562C39.022 131.576 39.6277 131.345 40.0845 130.919C40.5414 130.492 40.8132 129.904 40.8418 129.28L41.0925 118.2C41.1271 116.683 41.3995 115.18 41.8999 113.747C42.8308 111.054 43.0571 108.167 42.5572 105.361C42.0573 102.556 40.848 99.9245 39.0441 97.7182C39.0241 97.6939 39.012 97.6641 39.0093 97.6328C39.0066 97.6015 39.0135 97.5701 39.0291 97.5427L42.3261 91.5855H120.894L124.191 97.5427C124.206 97.5701 124.213 97.6015 124.211 97.6328C124.208 97.6641 124.196 97.6939 124.176 97.7182C122.372 99.9245 121.163 102.556 120.663 105.361C120.163 108.167 120.389 111.054 121.32 113.747C121.821 115.18 122.093 116.683 122.127 118.2L122.378 129.28C122.378 129.598 122.442 129.914 122.566 130.208C122.69 130.501 122.871 130.767 123.099 130.99C123.327 131.213 123.597 131.387 123.893 131.504C124.19 131.621 124.507 131.678 124.825 131.67C125.144 131.663 125.458 131.592 125.749 131.462C126.039 131.331 126.301 131.144 126.519 130.911C126.736 130.678 126.905 130.404 127.015 130.105C127.125 129.806 127.174 129.488 127.16 129.169L126.909 118.09C126.863 116.073 126.501 114.077 125.836 112.173C125.173 110.255 125.013 108.199 125.369 106.201C125.725 104.204 126.587 102.33 127.872 100.76C128.503 99.9961 128.889 99.0596 128.978 98.0729C129.068 97.0863 128.857 96.0956 128.373 95.231L114.964 71.0058C114.665 70.4504 114.577 69.8049 114.719 69.1899C114.86 68.5749 115.221 68.0325 115.733 67.664C116.246 67.2954 116.874 67.126 117.503 67.1873C118.131 67.2486 118.715 67.5364 119.146 67.9971L141.461 92.1847C141.669 92.4331 141.925 92.6366 142.214 92.783C142.503 92.9294 142.819 93.0155 143.142 93.0363C143.465 93.057 143.789 93.0119 144.095 92.9036C144.4 92.7953 144.68 92.6262 144.918 92.4064C145.156 92.1866 145.347 91.9208 145.479 91.6251C145.611 91.3294 145.682 91.0099 145.687 90.686C145.692 90.3621 145.631 90.0406 145.508 89.741C145.385 89.4413 145.202 89.1698 144.971 88.9428L143.667 87.5312C144.837 85.8929 145.466 83.9305 145.468 81.9174V60.0516L155.87 76.1908C157.357 78.481 158.233 81.1131 158.417 83.8372C158.6 86.5614 158.084 89.2872 156.918 91.7559C156.777 92.0413 156.693 92.3521 156.673 92.6701C156.653 92.9881 156.697 93.3069 156.802 93.6078C156.907 93.9087 157.071 94.1855 157.284 94.4221C157.498 94.6587 157.756 94.8503 158.045 94.9856C158.333 95.1209 158.646 95.1972 158.964 95.21C159.283 95.2228 159.6 95.1719 159.899 95.0602C160.197 94.9486 160.47 94.7784 160.702 94.5597C160.934 94.3411 161.12 94.0783 161.248 93.7868C162.76 90.5871 163.429 87.0543 163.193 83.5233C162.956 79.9924 161.822 76.5804 159.897 73.6109ZM44.9913 86.8066L47.9073 81.5413H115.335L118.251 86.8066H44.9913Z" fill="#8D7008"/>
<path d="M28.9974 47.5202V44.0677C28.9773 43.4471 28.7167 42.8585 28.2705 42.4266C27.8244 41.9947 27.2277 41.7532 26.6068 41.7532C25.9858 41.7532 25.3892 41.9947 24.943 42.4266C24.4969 42.8585 24.2362 43.4471 24.2161 44.0677V47.5202C24.2057 47.8407 24.2599 48.1599 24.3753 48.459C24.4908 48.7582 24.6652 49.031 24.8883 49.2614C25.1113 49.4917 25.3783 49.6749 25.6736 49.8C25.9688 49.9251 26.2861 49.9896 26.6068 49.9896C26.9274 49.9896 27.2448 49.9251 27.54 49.8C27.8352 49.6749 28.1023 49.4917 28.3253 49.2614C28.5483 49.031 28.7227 48.7582 28.8382 48.459C28.9537 48.1599 29.0078 47.8407 28.9974 47.5202Z" fill="#8D7008"/>
<path d="M64.0289 22.5C63.5484 22.0862 62.9232 21.8802 62.2908 21.9272C61.6585 21.9743 61.0707 22.2704 60.6566 22.7507L54.8673 29.4777L51.3622 26.9027C51.1111 26.7016 50.822 26.5531 50.5122 26.4663C50.2024 26.3794 49.8783 26.356 49.5592 26.3973C49.2402 26.4386 48.9327 26.5439 48.6553 26.7068C48.3778 26.8698 48.1362 27.087 47.9446 27.3455C47.7531 27.604 47.6157 27.8985 47.5406 28.2114C47.4656 28.5242 47.4544 28.849 47.5078 29.1663C47.5611 29.4836 47.678 29.7868 47.8513 30.0579C48.0246 30.3289 48.2508 30.5623 48.5164 30.7439L53.7992 34.6552C54.2842 35.0148 54.8874 35.1774 55.4874 35.1104C56.0874 35.0435 56.6399 34.7518 57.0336 34.2942L64.2721 25.8823C64.4789 25.6446 64.6368 25.3683 64.7365 25.0694C64.8363 24.7705 64.876 24.4549 64.8534 24.1406C64.8308 23.8263 64.7464 23.5195 64.6049 23.238C64.4634 22.9564 64.2676 22.7056 64.0289 22.5Z" fill="#8D7008"/>
<path d="M119.206 26.1282H74.211C73.5903 26.1483 73.0018 26.409 72.5699 26.8551C72.138 27.3013 71.8965 27.8979 71.8965 28.5189C71.8965 29.1399 72.138 29.7365 72.5699 30.1827C73.0018 30.6288 73.5903 30.8895 74.211 30.9096H119.206C119.527 30.9199 119.846 30.8658 120.145 30.7503C120.444 30.6349 120.717 30.4604 120.948 30.2374C121.178 30.0144 121.361 29.7473 121.486 29.4521C121.611 29.1569 121.676 28.8395 121.676 28.5189C121.676 28.1983 121.611 27.8809 121.486 27.5857C121.361 27.2905 121.178 27.0234 120.948 26.8004C120.717 26.5774 120.444 26.4029 120.145 26.2875C119.846 26.172 119.527 26.1178 119.206 26.1282Z" fill="#8D7008"/>
<path d="M119.206 45.1309H74.211C73.5903 45.151 73.0018 45.4117 72.5699 45.8578C72.138 46.304 71.8965 46.9006 71.8965 47.5216C71.8965 48.1426 72.138 48.7392 72.5699 49.1853C73.0018 49.6315 73.5903 49.8921 74.211 49.9122H119.206C119.527 49.9226 119.846 49.8685 120.145 49.753C120.444 49.6375 120.717 49.4631 120.948 49.2401C121.178 49.0171 121.361 48.75 121.486 48.4548C121.611 48.1596 121.676 47.8422 121.676 47.5216C121.676 47.201 121.611 46.8836 121.486 46.5884C121.361 46.2931 121.178 46.0261 120.948 45.8031C120.717 45.5801 120.444 45.4056 120.145 45.2902C119.846 45.1747 119.527 45.1205 119.206 45.1309Z" fill="#8D7008"/>
<path d="M61.5691 41.6006C61.3472 41.3786 61.0838 41.2025 60.7938 41.0824C60.5039 40.9622 60.1931 40.9004 59.8792 40.9004C59.5654 40.9004 59.2545 40.9622 58.9646 41.0824C58.6746 41.2025 58.4112 41.3786 58.1893 41.6006L55.6494 44.1404L53.1096 41.6006C52.8876 41.3787 52.6242 41.2026 52.3342 41.0825C52.0443 40.9624 51.7335 40.9006 51.4197 40.9006C51.1058 40.9006 50.7951 40.9624 50.5051 41.0825C50.2152 41.2026 49.9517 41.3787 49.7298 41.6006C49.5079 41.8225 49.3318 42.0859 49.2117 42.3759C49.0916 42.6658 49.0298 42.9766 49.0298 43.2905C49.0298 43.6043 49.0916 43.9151 49.2117 44.205C49.3318 44.495 49.5079 44.7584 49.7298 44.9804L52.2697 47.5202L49.7298 50.0601C49.2816 50.5083 49.0298 51.1161 49.0298 51.75C49.0298 52.3838 49.2816 52.9917 49.7298 53.4399C50.178 53.8881 50.7858 54.1399 51.4197 54.1399C52.0535 54.1399 52.6614 53.8881 53.1096 53.4399L55.6494 50.9L58.1893 53.4399C58.4112 53.6618 58.6747 53.8378 58.9646 53.958C59.2546 54.0781 59.5654 54.1399 59.8792 54.1399C60.1931 54.1399 60.5038 54.0781 60.7938 53.958C61.0837 53.8378 61.3472 53.6618 61.5691 53.4399C61.791 53.218 61.9671 52.9545 62.0872 52.6646C62.2073 52.3746 62.2691 52.0638 62.2691 51.75C62.2691 51.4361 62.2073 51.1254 62.0872 50.8354C61.9671 50.5455 61.791 50.282 61.5691 50.0601L59.0292 47.5202L61.5691 44.9804C61.7915 44.7584 61.9679 44.4948 62.0882 44.2046C62.2086 43.9145 62.2705 43.6034 62.2705 43.2892C62.2705 42.9751 62.2086 42.664 62.0882 42.3738C61.9679 42.0836 61.7915 41.82 61.5691 41.5981V41.6006Z" fill="#8D7008"/>
</svg>
