<svg width="177" height="26" viewBox="0 0 177 26" fill="none" xmlns="http://www.w3.org/2000/svg">
<path d="M26.5462 10.4107C26.5462 10.6456 26.4089 10.902 26.1343 11.1797L20.3831 16.8511L21.7456 24.8617C21.7562 24.9364 21.7615 25.0433 21.7615 25.1821C21.7615 25.4064 21.706 25.596 21.5951 25.7508C21.4842 25.9057 21.3231 25.9832 21.1119 25.9832C20.9112 25.9832 20.6999 25.9191 20.4781 25.7909L13.3644 22.0099L6.25068 25.7909C6.0183 25.9191 5.80706 25.9832 5.61694 25.9832C5.39513 25.9832 5.22877 25.9057 5.11787 25.7508C5.00696 25.596 4.95151 25.4064 4.95151 25.1821C4.95151 25.118 4.96207 25.0112 4.9832 24.8617L6.34574 16.8511L0.578705 11.1797C0.314646 10.8913 0.182617 10.635 0.182617 10.4107C0.182617 10.0155 0.478362 9.76982 1.06985 9.67369L9.02329 8.50415L12.5881 1.21456C12.7888 0.776646 13.0475 0.557692 13.3644 0.557692C13.6813 0.557692 13.9401 0.776646 14.1407 1.21456L17.7055 8.50415L25.659 9.67369C26.2504 9.76982 26.5462 10.0155 26.5462 10.4107Z" fill="#B68A35"/>
<path d="M176.646 10.4107C176.646 10.6456 176.508 10.902 176.234 11.1797L170.483 16.8511L171.845 24.8617C171.856 24.9364 171.861 25.0433 171.861 25.1821C171.861 25.4064 171.806 25.596 171.695 25.7508C171.584 25.9057 171.423 25.9832 171.211 25.9832C171.011 25.9832 170.8 25.9191 170.578 25.7909L163.464 22.0099L156.35 25.7909C156.118 25.9191 155.907 25.9832 155.717 25.9832C155.495 25.9832 155.328 25.9057 155.217 25.7508C155.107 25.596 155.051 25.4064 155.051 25.1821C155.051 25.118 155.062 25.0112 155.083 24.8617L156.445 16.8511L150.678 11.1797C150.414 10.8913 150.282 10.635 150.282 10.4107C150.282 10.0155 150.578 9.76982 151.169 9.67369L159.123 8.50415L162.688 1.21456C162.888 0.776646 163.147 0.557692 163.464 0.557692C163.781 0.557692 164.04 0.776646 164.24 1.21456L167.805 8.50415L175.759 9.67369C176.35 9.76982 176.646 10.0155 176.646 10.4107Z" fill="#B68A35"/>
<path d="M64.0711 10.4107C64.0711 10.6456 63.9338 10.902 63.6592 11.1797L57.908 16.8511L59.2705 24.8617C59.2811 24.9364 59.2864 25.0433 59.2864 25.1821C59.2864 25.4064 59.2309 25.596 59.12 25.7508C59.0091 25.9057 58.848 25.9832 58.6368 25.9832C58.4361 25.9832 58.2248 25.9191 58.003 25.7909L50.8893 22.0099L43.7756 25.7909C43.5432 25.9191 43.332 25.9832 43.1418 25.9832C42.92 25.9832 42.7537 25.9057 42.6428 25.7508C42.5319 25.596 42.4764 25.4064 42.4764 25.1821C42.4764 25.118 42.487 25.0112 42.5081 24.8617L43.8706 16.8511L38.1036 11.1797C37.8395 10.8913 37.7075 10.635 37.7075 10.4107C37.7075 10.0155 38.0033 9.76982 38.5948 9.67369L46.5482 8.50415L50.113 1.21456C50.3137 0.776646 50.5724 0.557692 50.8893 0.557692C51.2062 0.557692 51.465 0.776646 51.6656 1.21456L55.2304 8.50415L63.1839 9.67369C63.7754 9.76982 64.0711 10.0155 64.0711 10.4107Z" fill="#B68A35"/>
<path d="M101.596 10.4107C101.596 10.6456 101.459 10.902 101.184 11.1797L95.4329 16.8511L96.7954 24.8617C96.806 24.9364 96.8113 25.0433 96.8113 25.1821C96.8113 25.4064 96.7558 25.596 96.6449 25.7508C96.534 25.9057 96.3729 25.9832 96.1617 25.9832C95.961 25.9832 95.7497 25.9191 95.5279 25.7909L88.4142 22.0099L81.3005 25.7909C81.0681 25.9191 80.8569 25.9832 80.6667 25.9832C80.4449 25.9832 80.2786 25.9057 80.1677 25.7508C80.0568 25.596 80.0013 25.4064 80.0013 25.1821C80.0013 25.118 80.0119 25.0112 80.033 24.8617L81.3955 16.8511L75.6285 11.1797C75.3645 10.8913 75.2324 10.635 75.2324 10.4107C75.2324 10.0155 75.5282 9.76982 76.1197 9.67369L84.0731 8.50415L87.6379 1.21456C87.8386 0.776646 88.0973 0.557692 88.4142 0.557692C88.7311 0.557692 88.9899 0.776646 89.1905 1.21456L92.7553 8.50415L100.709 9.67369C101.3 9.76982 101.596 10.0155 101.596 10.4107Z" fill="#B68A35"/>
<path d="M139.121 10.4107C139.121 10.6456 138.984 10.902 138.709 11.1797L132.958 16.8511L134.32 24.8617C134.331 24.9364 134.336 25.0433 134.336 25.1821C134.336 25.4064 134.281 25.596 134.17 25.7508C134.059 25.9057 133.898 25.9832 133.687 25.9832C133.486 25.9832 133.275 25.9191 133.053 25.7909L125.939 22.0099L118.825 25.7909C118.593 25.9191 118.382 25.9832 118.192 25.9832C117.97 25.9832 117.803 25.9057 117.693 25.7508C117.582 25.596 117.526 25.4064 117.526 25.1821C117.526 25.118 117.537 25.0112 117.558 24.8617L118.92 16.8511L113.153 11.1797C112.889 10.8913 112.757 10.635 112.757 10.4107C112.757 10.0155 113.053 9.76982 113.645 9.67369L121.598 8.50415L125.163 1.21456C125.363 0.776646 125.622 0.557692 125.939 0.557692C126.256 0.557692 126.515 0.776646 126.715 1.21456L130.28 8.50415L138.234 9.67369C138.825 9.76982 139.121 10.0155 139.121 10.4107Z" fill="#B68A35"/>
</svg>
