<svg width="98" height="116" viewBox="0 0 98 116" fill="none" xmlns="http://www.w3.org/2000/svg">
<path d="M89.1174 0H19.7979C19.3302 9.85439e-09 18.8818 0.185762 18.5511 0.516421C18.2204 0.84708 18.0347 1.29555 18.0347 1.76317C18.0347 2.23079 18.2204 2.67926 18.5511 3.00992C18.8818 3.34058 19.3302 3.52634 19.7979 3.52634H89.1174C90.5397 3.52803 91.9033 4.09381 92.9091 5.09957C93.9149 6.10533 94.4806 7.46895 94.4823 8.89131V92.9794C94.4823 93.447 94.6681 93.8955 94.9987 94.2261C95.3294 94.5568 95.7779 94.7425 96.2455 94.7425C96.7131 94.7425 97.1616 94.5568 97.4922 94.2261C97.8229 93.8955 98.0087 93.447 98.0087 92.9794V8.89131C98.0059 6.53405 97.0682 4.27415 95.4013 2.60731C93.7345 0.940476 91.4746 0.00281263 89.1174 0Z" fill="#8D7008"/>
<path d="M96.2379 98.6271C95.7706 98.6271 95.3223 98.8127 94.9919 99.1432C94.6614 99.4736 94.4758 99.9218 94.4758 100.389V106.766C94.4741 108.188 93.9083 109.552 92.9026 110.558C91.8968 111.563 90.5332 112.129 89.1108 112.131H8.89131C7.46913 112.129 6.10583 111.563 5.10019 110.557C4.09455 109.551 3.52859 108.188 3.52634 106.766V8.89131C3.52803 7.46895 4.09381 6.10533 5.09957 5.09957C6.10533 4.09381 7.46895 3.52803 8.89131 3.52634H12.22C12.4515 3.52634 12.6808 3.48074 12.8947 3.39213C13.1086 3.30352 13.303 3.17365 13.4667 3.00992C13.6305 2.8462 13.7603 2.65183 13.8489 2.43791C13.9375 2.22399 13.9831 1.99471 13.9831 1.76317C13.9831 1.53163 13.9375 1.30235 13.8489 1.08843C13.7603 0.874517 13.6305 0.680146 13.4667 0.516421C13.303 0.352695 13.1086 0.222821 12.8947 0.134213C12.6808 0.0456058 12.4515 -4.8794e-09 12.22 0L8.89131 0C6.53405 0.00281263 4.27415 0.940477 2.60731 2.60731C0.940476 4.27415 0.00281263 6.53405 0 8.89131V106.751C0.00562255 109.106 0.944527 111.364 2.61106 113.028C4.27759 114.693 6.53589 115.629 8.89131 115.632H89.1108C91.4682 115.629 93.7285 114.692 95.3954 113.025C97.0624 111.358 97.9999 109.098 98.0021 106.74V100.364C97.9954 99.9004 97.8065 99.4584 97.4763 99.1334C97.1461 98.8083 96.7012 98.6265 96.2379 98.6271Z" fill="#8D7008"/>
<path d="M24.5317 11.3743C21.8857 11.3743 19.299 12.159 17.0989 13.6291C14.8988 15.0992 13.184 17.1888 12.1715 19.6335C11.159 22.0782 10.8942 24.7683 11.4105 27.3635C11.9269 29.9587 13.2013 32.3425 15.0725 34.2134C16.9437 36.0843 19.3277 37.3583 21.923 37.8743C24.5183 38.3903 27.2084 38.125 29.6529 37.1121C32.0975 36.0992 34.1867 34.3841 35.6565 32.1838C37.1263 29.9834 37.9106 27.3967 37.9102 24.7506C37.9062 21.2038 36.4954 17.8034 33.9872 15.2957C31.4791 12.7879 28.0785 11.3776 24.5317 11.3743ZM24.5317 34.6048C22.5832 34.6048 20.6784 34.0269 19.0582 32.9444C17.4381 31.8618 16.1753 30.3231 15.4296 28.5229C14.6839 26.7227 14.4888 24.7418 14.869 22.8306C15.2491 20.9195 16.1874 19.1641 17.5653 17.7862C18.9431 16.4084 20.6986 15.4701 22.6097 15.0899C24.5208 14.7098 26.5017 14.9049 28.302 15.6506C30.1022 16.3962 31.6409 17.659 32.7234 19.2792C33.806 20.8993 34.3838 22.8041 34.3838 24.7527C34.381 27.3648 33.3421 29.869 31.4951 31.7161C29.6481 33.5631 27.1438 34.602 24.5317 34.6048Z" fill="#8D7008"/>
<path d="M46.1274 18.1887H84.5473C85.015 18.1887 85.4634 18.0029 85.7941 17.6723C86.1247 17.3416 86.3105 16.8931 86.3105 16.4255C86.3105 15.9579 86.1247 15.5094 85.7941 15.1788C85.4634 14.8481 85.015 14.6624 84.5473 14.6624H46.1274C45.6598 14.6624 45.2113 14.8481 44.8807 15.1788C44.55 15.5094 44.3643 15.9579 44.3643 16.4255C44.3643 16.8931 44.55 17.3416 44.8807 17.6723C45.2113 18.0029 45.6598 18.1887 46.1274 18.1887Z" fill="#8D7008"/>
<path d="M46.1274 26.5144H73.9386C74.4062 26.5144 74.8546 26.3286 75.1853 25.9979C75.516 25.6673 75.7017 25.2188 75.7017 24.7512C75.7017 24.2836 75.516 23.8351 75.1853 23.5044C74.8546 23.1738 74.4062 22.988 73.9386 22.988H46.1274C45.6598 22.988 45.2113 23.1738 44.8807 23.5044C44.55 23.8351 44.3643 24.2836 44.3643 24.7512C44.3643 25.2188 44.55 25.6673 44.8807 25.9979C45.2113 26.3286 45.6598 26.5144 46.1274 26.5144Z" fill="#8D7008"/>
<path d="M46.1274 34.8423H79.6649C80.1325 34.8423 80.581 34.6565 80.9116 34.3258C81.2423 33.9952 81.428 33.5467 81.428 33.0791C81.428 32.6115 81.2423 32.163 80.9116 31.8323C80.581 31.5017 80.1325 31.3159 79.6649 31.3159H46.1274C45.6598 31.3159 45.2113 31.5017 44.8807 31.8323C44.55 32.163 44.3643 32.6115 44.3643 33.0791C44.3643 33.5467 44.55 33.9952 44.8807 34.3258C45.2113 34.6565 45.6598 34.8423 46.1274 34.8423Z" fill="#8D7008"/>
<path d="M46.1274 51.2756H84.5473C85.015 51.2756 85.4634 51.0898 85.7941 50.7592C86.1247 50.4285 86.3105 49.9801 86.3105 49.5124C86.3105 49.0448 86.1247 48.5964 85.7941 48.2657C85.4634 47.9351 85.015 47.7493 84.5473 47.7493H46.1274C45.6598 47.7493 45.2113 47.9351 44.8807 48.2657C44.55 48.5964 44.3643 49.0448 44.3643 49.5124C44.3643 49.9801 44.55 50.4285 44.8807 50.7592C45.2113 51.0898 45.6598 51.2756 46.1274 51.2756Z" fill="#8D7008"/>
<path d="M46.1274 59.6101H73.9386C74.4062 59.6101 74.8546 59.4243 75.1853 59.0937C75.516 58.763 75.7017 58.3145 75.7017 57.8469C75.7017 57.3793 75.516 56.9308 75.1853 56.6002C74.8546 56.2695 74.4062 56.0837 73.9386 56.0837H46.1274C45.6598 56.0837 45.2113 56.2695 44.8807 56.6002C44.55 56.9308 44.3643 57.3793 44.3643 57.8469C44.3643 58.3145 44.55 58.763 44.8807 59.0937C45.2113 59.4243 45.6598 59.6101 46.1274 59.6101Z" fill="#8D7008"/>
<path d="M46.1274 67.938H79.6649C80.1325 67.938 80.581 67.7522 80.9116 67.4215C81.2423 67.0909 81.428 66.6424 81.428 66.1748C81.428 65.7072 81.2423 65.2587 80.9116 64.928C80.581 64.5974 80.1325 64.4116 79.6649 64.4116H46.1274C45.6598 64.4116 45.2113 64.5974 44.8807 64.928C44.55 65.2587 44.3643 65.7072 44.3643 66.1748C44.3643 66.6424 44.55 67.0909 44.8807 67.4215C45.2113 67.7522 45.6598 67.938 46.1274 67.938Z" fill="#8D7008"/>
<path d="M24.5317 77.5647C21.8857 77.5647 19.299 78.3494 17.0989 79.8195C14.8988 81.2896 13.184 83.3792 12.1715 85.8239C11.159 88.2686 10.8942 90.9587 11.4105 93.5539C11.9269 96.1491 13.2013 98.5329 15.0725 100.404C16.9437 102.275 19.3277 103.549 21.923 104.065C24.5183 104.581 27.2084 104.315 29.6529 103.303C32.0975 102.29 34.1867 100.575 35.6565 98.3742C37.1263 96.1739 37.9106 93.5871 37.9102 90.941C37.9062 87.3942 36.4954 83.9939 33.9872 81.4861C31.4791 78.9784 28.0785 77.5681 24.5317 77.5647ZM24.5317 100.795C22.5832 100.795 20.6784 100.217 19.0582 99.1348C17.4381 98.0522 16.1753 96.5136 15.4296 94.7134C14.6839 92.9131 14.4888 90.9322 14.869 89.0211C15.2491 87.11 16.1874 85.3545 17.5653 83.9767C18.9431 82.5988 20.6986 81.6605 22.6097 81.2803C24.5208 80.9002 26.5017 81.0953 28.302 81.841C30.1022 82.5866 31.6409 83.8494 32.7234 85.4696C33.806 87.0898 34.3838 88.9946 34.3838 90.9431C34.381 93.5552 33.3421 96.0595 31.4951 97.9065C29.6481 99.7535 27.1438 100.792 24.5317 100.795Z" fill="#8D7008"/>
<path d="M46.1274 84.377H84.5473C85.015 84.377 85.4634 84.1912 85.7941 83.8605C86.1247 83.5299 86.3105 83.0814 86.3105 82.6138C86.3105 82.1462 86.1247 81.6977 85.7941 81.3671C85.4634 81.0364 85.015 80.8506 84.5473 80.8506H46.1274C45.6598 80.8506 45.2113 81.0364 44.8807 81.3671C44.55 81.6977 44.3643 82.1462 44.3643 82.6138C44.3643 83.0814 44.55 83.5299 44.8807 83.8605C45.2113 84.1912 45.6598 84.377 46.1274 84.377Z" fill="#8D7008"/>
<path d="M46.1274 92.7012H73.9385C74.4058 92.7012 74.854 92.5156 75.1845 92.1851C75.5149 91.8546 75.7006 91.4064 75.7006 90.9391C75.7006 90.4717 75.5149 90.0235 75.1845 89.6931C74.854 89.3626 74.4058 89.177 73.9385 89.177H46.1274C45.66 89.177 45.2118 89.3626 44.8814 89.6931C44.5509 90.0235 44.3652 90.4717 44.3652 90.9391C44.3652 91.4064 44.5509 91.8546 44.8814 92.1851C45.2118 92.5156 45.66 92.7012 46.1274 92.7012Z" fill="#8D7008"/>
<path d="M46.1274 101.035H79.6649C80.1325 101.035 80.581 100.85 80.9116 100.519C81.2423 100.188 81.428 99.7398 81.428 99.2722C81.428 98.8046 81.2423 98.3561 80.9116 98.0254C80.581 97.6948 80.1325 97.509 79.6649 97.509H46.1274C45.6598 97.509 45.2113 97.6948 44.8807 98.0254C44.55 98.3561 44.3643 98.8046 44.3643 99.2722C44.3643 99.7398 44.55 100.188 44.8807 100.519C45.2113 100.85 45.6598 101.035 46.1274 101.035Z" fill="#8D7008"/>
<path d="M22.104 55.1296C21.9403 54.9659 21.7459 54.836 21.532 54.7474C21.3181 54.6588 21.0889 54.6132 20.8573 54.6132C20.6258 54.6132 20.3966 54.6588 20.1827 54.7474C19.9688 54.836 19.7744 54.9659 19.6107 55.1296C19.447 55.2933 19.3171 55.4876 19.2285 55.7016C19.1399 55.9155 19.0943 56.1447 19.0943 56.3762C19.0943 56.6078 19.1399 56.837 19.2285 57.0509C19.3171 57.2648 19.447 57.4592 19.6107 57.6229L23.9575 61.9719C24.2883 62.3022 24.7367 62.4877 25.2042 62.4877C25.6717 62.4877 26.12 62.3022 26.4508 61.9719L35.5462 52.8765L35.5717 52.851L41.6105 46.8122C41.7742 46.6485 41.9041 46.4541 41.9927 46.2402C42.0813 46.0263 42.1269 45.7971 42.1269 45.5655C42.1269 45.334 42.0813 45.1047 41.9927 44.8908C41.9041 44.6769 41.7742 44.4826 41.6105 44.3189C41.4468 44.1552 41.2524 44.0253 41.0385 43.9367C40.8246 43.8481 40.5954 43.8025 40.3638 43.8025C40.1323 43.8025 39.903 43.8481 39.6891 43.9367C39.4752 44.0253 39.2809 44.1552 39.1172 44.3189L34.5068 48.9314C32.4237 46.5994 29.5896 45.0707 26.4967 44.6109C23.4039 44.1511 20.2476 44.7891 17.5762 46.4142C14.9048 48.0393 12.887 50.5488 11.8734 53.5069C10.8597 56.4649 10.9142 59.6845 12.0273 62.6065C13.1405 65.5285 15.242 67.9684 17.9668 69.5022C20.6917 71.036 23.8677 71.5669 26.9432 71.0027C30.0188 70.4385 32.7996 68.8148 34.8026 66.4137C36.8056 64.0126 37.9042 60.9857 37.9077 57.8589C37.9077 57.3912 37.722 56.9428 37.3913 56.6121C37.0606 56.2814 36.6122 56.0957 36.1445 56.0957C35.6769 56.0957 35.2284 56.2814 34.8978 56.6121C34.5671 56.9428 34.3814 57.3912 34.3814 57.8589C34.3823 60.1715 33.57 62.4107 32.0866 64.1849C30.6033 65.9591 28.5433 67.1552 26.2671 67.5639C23.9909 67.9726 21.6434 67.568 19.6355 66.4207C17.6275 65.2735 16.0869 63.4567 15.2831 61.2883C14.4794 59.1198 14.4637 56.7378 15.2389 54.559C16.0141 52.3802 17.5307 50.5433 19.5234 49.3698C21.5161 48.1962 23.858 47.7607 26.1394 48.1395C28.4207 48.5183 30.4963 49.6872 32.0028 51.4417L25.201 58.2436L22.104 55.1296Z" fill="#8D7008"/>
</svg>
