<svg width="29" height="20" viewBox="0 0 29 20" fill="none" xmlns="http://www.w3.org/2000/svg">
<path d="M28.3481 2.10625C28.353 2.18136 28.363 2.25087 28.363 2.33046V16.6797C28.363 18.1656 27.6157 19.8186 26.1472 19.8186H3.1022C1.6342 19.8186 0 18.1656 0 16.6797V2.33046C0 2.25423 0.00720155 2.18137 0.0149571 2.1085C-0.0249284 1.85571 0.0376696 1.58722 0.216046 1.3787C0.258148 1.32994 0.304127 1.2879 0.352322 1.25091C0.911273 0.480755 2.04745 0.0883923 3.1022 0.0883923H26.1472C27.3465 0.0883923 28.0561 0.600704 28.2794 1.59394C28.353 1.75649 28.3752 1.93418 28.3481 2.10625ZM3.1022 1.88205C2.85735 1.88205 2.52331 1.87084 2.25242 1.92129L14.1815 11.5414L26.1593 1.88205H26.1472H3.1022ZM26.1472 18.0249C26.6363 18.0249 26.5903 17.1746 26.5903 16.6797V3.83153L14.7626 13.4063C14.5953 13.552 14.3887 13.6249 14.1815 13.6249C13.9743 13.6249 13.7677 13.552 13.601 13.4063L1.77269 3.83153V16.6797C1.77269 17.1746 2.61361 18.0249 3.1022 18.0249H26.1472Z" fill="black"/>
</svg>
