<svg width="22" height="57" viewBox="0 0 22 57" fill="none" xmlns="http://www.w3.org/2000/svg">
<path d="M19.8419 29.6168C20.0608 29.8244 20.1703 30.0631 20.1703 30.333C20.1703 30.6029 20.0608 30.8416 19.8419 31.0492L4.53941 45.5607C4.32049 45.7683 4.06874 45.8721 3.78414 45.8721C3.49955 45.8721 3.24779 45.7683 3.02887 45.5607L1.38697 44.0036C1.16805 43.796 1.05859 43.5573 1.05859 43.2874C1.05859 43.0175 1.16805 42.7788 1.38697 42.5712L14.2923 30.333L1.38697 18.0948C1.16805 17.8872 1.05859 17.6484 1.05859 17.3786C1.05859 17.1087 1.16805 16.8699 1.38697 16.6623L3.02887 15.1053C3.24779 14.8977 3.49955 14.7939 3.78414 14.7939C4.06874 14.7939 4.32049 14.8977 4.53941 15.1053L19.8419 29.6168Z" fill="#707070"/>
</svg>
