<svg width="21" height="21" viewBox="0 0 21 21" fill="none" xmlns="http://www.w3.org/2000/svg">
<path fill-rule="evenodd" clip-rule="evenodd" d="M14.5105 15.4974C13.19 16.6216 11.4783 17.3 9.60817 17.3C5.42922 17.3 2.0415 13.9123 2.0415 9.73333C2.0415 5.55438 5.42922 2.16666 9.60817 2.16666C13.7871 2.16666 17.1748 5.55438 17.1748 9.73333C17.1748 11.5922 16.5046 13.2944 15.3925 14.6117L19.0245 18.2437L18.1407 19.1275L14.5105 15.4974ZM15.9248 9.73333C15.9248 13.2219 13.0968 16.05 9.60817 16.05C6.11957 16.05 3.2915 13.2219 3.2915 9.73333C3.2915 6.24473 6.11957 3.41666 9.60817 3.41666C13.0968 3.41666 15.9248 6.24473 15.9248 9.73333Z" fill="black" fill-opacity="0.7"/>
</svg>
