<svg width="34" height="35" viewBox="0 0 34 35" fill="none" xmlns="http://www.w3.org/2000/svg">
<g clip-path="url(#clip0_6098_84)">
<path d="M22.839 0.907471H10.3815C7.62823 0.907766 4.98783 2.00162 3.04099 3.94846C1.09415 5.8953 0.000295334 8.5357 0 11.2889L0 23.7465C0.000295334 26.4997 1.09415 29.1401 3.04099 31.087C4.98783 33.0338 7.62823 34.1277 10.3815 34.128H22.839C25.5923 34.1277 28.2327 33.0338 30.1795 31.087C32.1263 29.1401 33.2202 26.4997 33.2205 23.7465V11.2889C33.2202 8.5357 32.1263 5.8953 30.1795 3.94846C28.2327 2.00162 25.5923 0.907766 22.839 0.907471ZM30.1064 23.7465C30.1043 25.6733 29.338 27.5206 27.9755 28.883C26.6131 30.2455 24.7658 31.0118 22.839 31.0139H10.3815C8.45545 31.0106 6.60931 30.2438 5.24783 28.8814C3.88634 27.5191 3.12062 25.6725 3.11856 23.7465V11.2889C3.1218 9.3637 3.88804 7.51823 5.2494 6.15687C6.61076 4.79551 8.45623 4.02927 10.3815 4.02603H22.839C24.7658 4.0281 26.6131 4.79443 27.9755 6.15688C29.338 7.51932 30.1043 9.36661 30.1064 11.2934V23.7465Z" fill="#B89207"/>
<path d="M16.6111 9.21313C14.9684 9.21313 13.3627 9.70024 11.9968 10.6128C10.631 11.5255 9.5665 12.8226 8.93788 14.3402C8.30926 15.8578 8.14479 17.5278 8.46525 19.1388C8.78572 20.7499 9.57673 22.2298 10.7383 23.3913C11.8998 24.5529 13.3797 25.3439 14.9908 25.6644C16.6019 25.9848 18.2718 25.8204 19.7894 25.1917C21.307 24.5631 22.6042 23.4986 23.5168 22.1328C24.4294 20.767 24.9165 19.1612 24.9165 17.5185C24.9165 15.3158 24.0414 13.2033 22.4839 11.6457C20.9263 10.0882 18.8138 9.21313 16.6111 9.21313ZM16.6111 22.7087C15.5846 22.7087 14.5811 22.4043 13.7276 21.834C12.874 21.2637 12.2088 20.4531 11.816 19.5047C11.4231 18.5564 11.3204 17.5128 11.5206 16.506C11.7209 15.4992 12.2152 14.5744 12.9411 13.8485C13.6669 13.1227 14.5917 12.6283 15.5985 12.4281C16.6053 12.2278 17.6489 12.3306 18.5973 12.7234C19.5457 13.1163 20.3563 13.7815 20.9266 14.635C21.4969 15.4885 21.8013 16.492 21.8013 17.5185C21.7992 18.8944 21.2517 20.2134 20.2788 21.1863C19.3059 22.1592 17.987 22.7067 16.6111 22.7087Z" fill="#B89207"/>
</g>
<defs>
<clipPath id="clip0_6098_84">
<rect width="33.2205" height="33.2205" fill="white" transform="translate(0 0.907227)"/>
</clipPath>
</defs>
</svg>
