<svg width="170" height="112" viewBox="0 0 170 112" fill="none" xmlns="http://www.w3.org/2000/svg">
<g clip-path="url(#clip0_6084_144)">
<path d="M24.2153 71.866H39.3482L45.4013 77.9192" stroke="#B89207" stroke-width="6.05313" stroke-linecap="round" stroke-linejoin="round"/>
<path d="M15.1328 96.0754V105.155C15.1328 105.958 15.4516 106.728 16.0192 107.295C16.5868 107.863 17.3567 108.182 18.1594 108.182H39.3453C40.148 108.182 40.9178 107.863 41.4854 107.295C42.053 106.728 42.3719 105.958 42.3719 105.155" stroke="#B89207" stroke-width="6.05313" stroke-linecap="round" stroke-linejoin="round"/>
<path d="M59.7503 53.7034H36.3186L27.2389 50.6769L21.1858 41.5972H6.05293C5.25024 41.5972 4.48037 41.9163 3.91278 42.4839C3.34519 43.0514 3.02637 43.821 3.02637 44.6237V50.6769C3.02637 51.4796 3.34519 52.2495 3.91278 52.8171C4.48037 53.3847 5.25024 53.7034 6.05293 53.7034L18.1592 56.73L15.1568 61.2336C13.168 64.2164 12.1065 67.7211 12.1061 71.3061V86.9957C12.1061 89.4038 13.0626 91.7133 14.7654 93.416C16.4682 95.1188 18.7777 96.0754 21.1858 96.0754H118.036C120.444 96.0754 122.753 95.1188 124.456 93.416C126.159 91.7133 127.116 89.4038 127.116 86.9957V71.3061" stroke="#B89207" stroke-width="6.05313" stroke-linecap="round" stroke-linejoin="round"/>
<path d="M59.7504 26.4644H39.3452C38.1867 26.5454 37.0556 26.8546 36.0168 27.374C34.9781 27.8933 34.0521 28.6127 33.2921 29.4909C31.9029 31.1374 24.2124 44.6238 24.2124 44.6238" stroke="#B89207" stroke-width="6.05313" stroke-linecap="round" stroke-linejoin="round"/>
<path d="M93.8228 77.9192L99.8759 71.866H115.009" stroke="#B89207" stroke-width="6.05313" stroke-linecap="round" stroke-linejoin="round"/>
<path d="M124.09 96.0754V105.155C124.09 105.958 123.771 106.728 123.203 107.295C122.636 107.863 121.866 108.182 121.063 108.182H99.8772C99.0745 108.182 98.3046 107.863 97.737 107.295C97.1694 106.728 96.8506 105.958 96.8506 105.155" stroke="#B89207" stroke-width="6.05313" stroke-linecap="round" stroke-linejoin="round"/>
<path d="M157.602 3.02667H78.0397C73.0251 3.02667 68.96 7.09179 68.96 12.1064V49.9385C68.96 54.953 73.0251 59.0182 78.0397 59.0182H157.602C162.617 59.0182 166.682 54.953 166.682 49.9385V12.1064C166.682 7.09179 162.617 3.02667 157.602 3.02667Z" stroke="#B89207" stroke-width="6.05313" stroke-linecap="round" stroke-linejoin="round"/>
<path d="M155.856 17.3455H85.7188" stroke="#B89207" stroke-width="6.05313" stroke-linecap="round" stroke-linejoin="round"/>
<path d="M155.854 30.8077H119.253" stroke="#B89207" stroke-width="6.05313" stroke-linecap="round" stroke-linejoin="round"/>
<path d="M155.856 44.2698H104.368" stroke="#B89207" stroke-width="6.05313" stroke-linecap="round" stroke-linejoin="round"/>
</g>
<defs>
<clipPath id="clip0_6084_144">
<rect width="169.709" height="111.208" fill="white"/>
</clipPath>
</defs>
</svg>
