<svg width="96" height="100" viewBox="0 0 96 100" fill="none" xmlns="http://www.w3.org/2000/svg">
<path d="M75.3482 1.41553H21.7185C10.5117 1.41553 1.42676 10.83 1.42676 22.4433V78.0181C1.42676 89.6314 10.5117 99.0459 21.7185 99.0459H75.3482C86.5551 99.0459 95.64 89.6314 95.64 78.0181V22.4433C95.64 10.83 86.5551 1.41553 75.3482 1.41553Z" fill="#B89207"/>
<path d="M24.3935 7.79807C23.6828 7.79905 23.0016 8.09143 22.4997 8.61092C21.9977 9.13042 21.7161 9.83448 21.7168 10.5683C21.7175 11.3021 22.0003 12.0055 22.5032 12.524C23.006 13.0425 23.6877 13.3336 24.3983 13.3332C25.109 13.3329 25.7904 13.0412 26.2928 12.5223C26.7952 12.0033 27.0774 11.2996 27.0775 10.5658V10.5603C27.0762 9.82651 26.7927 9.12333 26.2894 8.60531C25.7861 8.0873 25.1042 7.79708 24.3935 7.79807ZM72.3356 7.79807C71.625 7.79906 70.9437 8.09144 70.4418 8.61093C69.9398 9.13042 69.6582 9.83449 69.6589 10.5683C69.6596 11.3021 69.9425 12.0056 70.4454 12.5241C70.9484 13.0426 71.6301 13.3337 72.3408 13.3332C73.0514 13.3328 73.7327 13.0411 74.235 12.5221C74.7374 12.0032 75.0196 11.2995 75.0196 10.5658V10.5603C75.0183 9.82651 74.7348 9.12332 74.2315 8.6053C73.7282 8.08729 73.0463 7.79707 72.3356 7.79807Z" fill="white"/>
<path d="M24.2868 10.1838C23.3554 10.2356 23.4025 11.6395 23.4025 11.6395C28.4085 21.7415 37.6259 26.6965 48.2553 26.697C58.8706 26.6809 68.1795 21.6713 73.1788 11.5827C73.1788 11.5827 73.377 9.68295 71.426 10.3414C66.2991 19.1476 57.6857 24.3573 48.2616 24.3737C38.8196 24.3762 30.237 19.2212 25.1003 10.3983C24.7686 10.2324 24.5018 10.1719 24.2868 10.1838ZM58.1665 49.4505L55.3185 58.24L52.5461 49.457H49.8397L54.2092 62.2334H56.3161L59.1703 53.8404L62.0214 62.2334H64.1456L68.5057 49.457H65.867L63.0898 58.24L60.2419 49.4505H58.1665ZM43.0393 49.4537L37.5133 62.2269H40.1111L41.1779 59.7541L41.2534 59.5673H46.9949L48.12 62.2269H50.7885L45.3129 49.5284L45.2641 49.4537L43.0393 49.4537ZM83.0585 49.4553V62.2187H85.5698V49.4554L83.0585 49.4553ZM11.0557 49.4569V62.2382H13.6015V57.0475H19.3478V62.2383H21.8936V49.457H19.3478V54.6137H13.6015V49.457L11.0557 49.4569ZM33.6741 49.4601V56.776C33.6741 58.8542 32.6619 59.9636 30.823 59.9636C28.9737 59.9636 27.9546 58.8232 27.9546 56.6883V49.4684H25.4103V56.7762C25.4103 60.3722 27.3721 62.4333 30.7899 62.4333C34.2402 62.4333 36.2183 60.3325 36.2183 56.6706V49.4603L33.6741 49.4601ZM70.5574 49.4649V62.2284H80.0296V59.9019H73.0671V56.737H77.6962V54.4091H73.0671V51.7933H79.7873V49.4652L70.5574 49.4649ZM44.1171 52.6883L45.9329 56.9676L46.0556 57.2617H42.2069L42.3281 56.9676L44.1171 52.6883Z" fill="white"/>
</svg>
