<svg width="86" height="101" viewBox="0 0 86 101" fill="none" xmlns="http://www.w3.org/2000/svg">
<path d="M61.7846 0.910889C55.8761 1.61842 50.4592 4.55119 46.6366 9.11225C44.7477 11.2487 43.3295 13.7587 42.4742 16.4793C41.6189 19.1999 41.3457 22.07 41.6723 24.9031C44.6434 24.8354 47.5608 24.098 50.2072 22.7458C52.8536 21.3935 55.1608 19.4613 56.9566 17.0932C58.7903 14.8486 60.1611 12.2628 60.9898 9.48526C61.8185 6.70771 62.0886 3.79346 61.7846 0.910889Z" fill="#B89207"/>
<path d="M82.7904 34.3664C80.5603 31.3771 77.6953 28.9194 74.4016 27.1703C71.1079 25.4212 67.4674 24.4242 63.7423 24.251C54.7996 24.251 51.0184 28.5315 44.8043 28.5315C38.3989 28.5315 33.5332 24.2626 25.7997 24.2626C21.5651 24.4925 17.4521 25.7606 13.8229 27.9549C10.1937 30.1493 7.15988 33.2026 4.98863 36.8459C-2.22002 48.0257 -0.987637 69.0366 10.6952 86.9503C14.8766 93.3565 20.4585 100.56 27.7628 100.624C34.2611 100.685 36.0937 96.4537 44.8971 96.4102C53.7006 96.3667 55.3708 100.679 61.8575 100.61C69.1676 100.554 75.054 92.5705 79.2353 86.1643C81.7612 82.3484 83.9168 78.3 85.6727 74.074C81.7716 72.5802 78.377 70.0055 75.8864 66.6515C73.3959 63.2976 71.9125 59.3033 71.61 55.1366C71.3075 50.9698 72.1986 46.8032 74.1787 43.1246C76.1588 39.4461 79.146 36.4081 82.7904 34.3664Z" fill="#B89207"/>
</svg>
