<svg width="83" height="98" viewBox="0 0 83 98" fill="none" xmlns="http://www.w3.org/2000/svg">
<path d="M6.67186 32.147C5.88521 32.1326 5.10396 32.2795 4.37631 32.5788C3.64865 32.878 2.99003 33.3232 2.44107 33.8868C1.8813 34.4265 1.43812 35.0753 1.13887 35.793C0.839618 36.5107 0.690667 37.2821 0.701206 38.0596V62.9804C0.696592 63.7655 0.847786 64.5438 1.14602 65.27C1.44426 65.9963 1.88362 66.6562 2.43866 67.2115C2.9937 67.7668 3.65339 68.2065 4.37954 68.5051C5.10568 68.8037 5.88384 68.9553 6.66897 68.951C7.4515 68.9668 8.22883 68.8203 8.95198 68.5209C9.67513 68.2215 10.3284 67.7755 10.8708 67.2112C11.4272 66.6583 11.8658 65.9983 12.1598 65.2711C12.4539 64.5439 12.5974 63.7646 12.5816 62.9804V38.0596C12.5748 36.4938 11.9495 34.9942 10.8421 33.8873C9.73465 32.7804 8.23472 32.1559 6.66897 32.1498L6.67186 32.147Z" fill="#B89207"/>
<path d="M54.6661 9.77542L58.7809 2.18377C58.851 2.09264 58.8997 1.98683 58.9231 1.87426C58.9466 1.76168 58.9443 1.64526 58.9164 1.5337C58.8885 1.42214 58.8357 1.31833 58.7621 1.23004C58.6884 1.14175 58.5957 1.07127 58.4909 1.02386C58.3938 0.962677 58.2848 0.923002 58.1711 0.907505C58.0574 0.892009 57.9417 0.901051 57.8318 0.934022C57.7219 0.966993 57.6204 1.02313 57.534 1.09865C57.4476 1.17417 57.3784 1.26732 57.331 1.37183L53.1611 9.02727C49.4874 7.42036 45.521 6.59083 41.5112 6.59083C37.5014 6.59083 33.535 7.42036 29.8613 9.02727L25.6885 1.37183C25.6412 1.26732 25.572 1.17417 25.4856 1.09865C25.3992 1.02313 25.2976 0.966993 25.1877 0.934022C25.0778 0.901051 24.9621 0.892009 24.8484 0.907505C24.7347 0.923002 24.6257 0.962677 24.5286 1.02386C24.4238 1.07127 24.3312 1.14175 24.2575 1.23004C24.1838 1.31833 24.1311 1.42214 24.1032 1.5337C24.0753 1.64526 24.073 1.76168 24.0964 1.87426C24.1199 1.98683 24.1685 2.09264 24.2386 2.18377L28.3534 9.77542C24.2961 11.7985 20.854 14.8702 18.384 18.672C15.9414 22.3775 14.6509 26.7233 14.6751 31.1614H68.2835C68.3074 26.7234 67.0169 22.3776 64.5747 18.672C62.1174 14.8817 58.6981 11.8117 54.6661 9.77542ZM30.8878 20.8178C30.6818 21.0322 30.434 21.2021 30.1596 21.3168C29.8853 21.4315 29.5903 21.4887 29.293 21.4848C28.9996 21.4907 28.7084 21.4343 28.4384 21.3194C28.1685 21.2044 27.926 21.0334 27.7271 20.8178C27.3192 20.387 27.0919 19.8162 27.0919 19.2229C27.0919 18.6296 27.3192 18.0589 27.7271 17.628C27.9264 17.4128 28.1689 17.2422 28.4388 17.1273C28.7086 17.0123 28.9997 16.9557 29.293 16.9611C29.7403 16.9593 30.178 17.0906 30.5504 17.3384C30.9228 17.5863 31.213 17.9393 31.3841 18.3526C31.5551 18.7659 31.5993 19.2208 31.5109 19.6593C31.4225 20.0978 31.2056 20.5001 30.8878 20.8149V20.8178ZM55.3156 20.8178C55.1168 21.0328 54.8748 21.2033 54.6054 21.3183C54.3361 21.4332 54.0455 21.4899 53.7527 21.4848C53.1532 21.4848 52.5782 21.2466 52.1543 20.8227C51.7304 20.3988 51.4923 19.8239 51.4923 19.2244C51.4923 18.6249 51.7304 18.0499 52.1543 17.626C52.5782 17.2021 53.1532 16.964 53.7527 16.964C54.0455 16.959 54.336 17.0158 54.6053 17.1307C54.8746 17.2457 55.1167 17.4161 55.3156 17.6309C55.7235 18.0618 55.9508 18.6325 55.9508 19.2258C55.9508 19.8191 55.7235 20.387 55.3156 20.8178Z" fill="#B89207"/>
<path d="M14.9103 71.8452C14.9038 72.6848 15.0643 73.5173 15.3826 74.2943C15.7009 75.0712 16.1705 75.7771 16.7642 76.3708C17.3579 76.9645 18.0638 77.4342 18.8408 77.7525C19.6178 78.0707 20.4503 78.2313 21.2899 78.2247H25.5787L25.6367 91.3811C25.6223 92.1677 25.7692 92.9489 26.0685 93.6766C26.3677 94.4043 26.8129 95.0629 27.3765 95.6118C27.9164 96.1715 28.5651 96.6146 29.2828 96.9138C30.0005 97.2131 30.7718 97.3621 31.5493 97.3517C32.3345 97.356 33.1126 97.2044 33.8388 96.9058C34.5649 96.6072 35.2246 96.1675 35.7796 95.6122C36.3347 95.0569 36.774 94.397 37.0723 93.6707C37.3705 92.9444 37.5217 92.1662 37.5171 91.3811V78.2218H45.5147V91.3868C45.5147 92.97 46.1436 94.4883 47.263 95.6077C48.3825 96.7272 49.9008 97.3561 51.4839 97.3561C53.067 97.3561 54.5853 96.7272 55.7048 95.6077C56.8242 94.4883 57.4531 92.97 57.4531 91.3868V78.2218H61.8028C62.6338 78.2338 63.4584 78.0756 64.2259 77.7569C64.9934 77.4383 65.6875 76.9659 66.2656 76.3688C66.8669 75.7819 67.3415 75.0779 67.6602 74.3003C67.9789 73.5228 68.1349 72.6882 68.1186 71.8481V33.2461H14.9103V71.8452Z" fill="#B89207"/>
<path d="M76.346 32.1469C75.571 32.1358 74.8018 32.2816 74.0847 32.5757C73.3675 32.8697 72.7173 33.3058 72.1732 33.8577C71.6088 34.4001 71.1628 35.0534 70.8634 35.7765C70.5639 36.4997 70.4175 37.277 70.4333 38.0595V62.9803C70.4187 63.767 70.5656 64.5482 70.8649 65.2759C71.1641 66.0036 71.6094 66.6622 72.1732 67.2111C72.713 67.7707 73.3618 68.2138 74.0794 68.5131C74.7971 68.8123 75.5685 68.9613 76.346 68.9509C77.1311 68.9552 77.9092 68.8036 78.6354 68.505C79.3615 68.2064 80.0212 67.7667 80.5763 67.2114C81.1313 66.6561 81.5707 65.9962 81.8689 65.27C82.1671 64.5437 82.3183 63.7654 82.3137 62.9803V38.0595C82.3296 37.2769 82.1832 36.4996 81.8838 35.7764C81.5843 35.0532 81.1383 34.3999 80.5738 33.8577C80.0213 33.3016 79.3618 32.8633 78.6351 32.5692C77.9085 32.2751 77.1297 32.1315 76.346 32.1469Z" fill="#B89207"/>
</svg>
