<svg width="5" height="5" viewBox="0 0 5 5" fill="none" xmlns="http://www.w3.org/2000/svg">
<path d="M4.26268 2.13137C4.26268 2.55291 4.13768 2.96496 3.90349 3.31545C3.66929 3.66595 3.33642 3.93915 2.94697 4.10046C2.55752 4.26178 2.129 4.30397 1.71556 4.22173C1.30212 4.13949 0.922328 3.9365 0.624256 3.63842C0.326184 3.34035 0.123185 2.9606 0.0409472 2.54716C-0.0412908 2.13372 0.000942861 1.7052 0.162258 1.31575C0.323574 0.926301 0.59673 0.593428 0.947226 0.359234C1.29772 0.12504 1.70981 0 2.13135 0C2.69662 0 3.2387 0.224612 3.63841 0.624314C4.03811 1.02402 4.26268 1.5661 4.26268 2.13137Z" fill="#8D7008"/>
</svg>
