<svg width="24" height="24" viewBox="0 0 24 24" fill="none" xmlns="http://www.w3.org/2000/svg">
<path d="M12 0C9.62663 0 7.30655 0.703788 5.33316 2.02236C3.35977 3.34094 1.8217 5.21509 0.913451 7.4078C0.00519943 9.60051 -0.232441 12.0133 0.230582 14.3411C0.693605 16.6689 1.83649 18.8071 3.51472 20.4853C5.19295 22.1635 7.33115 23.3064 9.65892 23.7694C11.9867 24.2324 14.3995 23.9948 16.5922 23.0866C18.7849 22.1783 20.6591 20.6402 21.9776 18.6668C23.2962 16.6935 24 14.3734 24 12C23.9966 8.81846 22.7312 5.76821 20.4815 3.51852C18.2318 1.26883 15.1815 0.00344108 12 0ZM8.00001 7C8.39557 7 8.78225 7.1173 9.11115 7.33706C9.44004 7.55682 9.69639 7.86918 9.84776 8.23463C9.99914 8.60009 10.0387 9.00222 9.96158 9.39018C9.88441 9.77814 9.69392 10.1345 9.41422 10.4142C9.13451 10.6939 8.77815 10.8844 8.39019 10.9616C8.00222 11.0387 7.60009 10.9991 7.23464 10.8478C6.86919 10.6964 6.55683 10.44 6.33707 10.1111C6.1173 9.78224 6.00001 9.39556 6.00001 9C6.00001 8.46957 6.21072 7.96086 6.58579 7.58579C6.96086 7.21071 7.46957 7 8.00001 7ZM6.84401 14.162C6.95399 14.0902 7.07703 14.0408 7.2061 14.0166C7.33518 13.9924 7.46776 13.9938 7.59628 14.0209C7.72479 14.0479 7.84673 14.0999 7.95512 14.1741C8.06351 14.2482 8.15624 14.343 8.22801 14.453C8.63666 15.0811 9.19571 15.5973 9.85442 15.9546C10.5131 16.3119 11.2506 16.499 12 16.499C12.7494 16.499 13.4869 16.3119 14.1456 15.9546C14.8043 15.5973 15.3634 15.0811 15.772 14.453C15.9171 14.2307 16.1445 14.0752 16.4042 14.0207C16.664 13.9661 16.9348 14.0169 17.157 14.162C17.3793 14.3071 17.5348 14.5345 17.5893 14.7942C17.6439 15.054 17.5931 15.3247 17.448 15.547C16.8579 16.455 16.0502 17.2011 15.0984 17.7177C14.1467 18.2342 13.0809 18.5048 11.998 18.5048C10.9151 18.5048 9.84935 18.2342 8.89757 17.7177C7.94579 17.2011 7.13815 16.455 6.54801 15.547C6.47631 15.4367 6.42709 15.3133 6.40316 15.1839C6.37923 15.0546 6.38107 14.9217 6.40857 14.7931C6.43607 14.6644 6.48868 14.5424 6.5634 14.4341C6.63812 14.3259 6.73348 14.2334 6.84401 14.162ZM16 11C15.6044 11 15.2178 10.8827 14.8889 10.6629C14.56 10.4432 14.3036 10.1308 14.1522 9.76537C14.0009 9.39991 13.9613 8.99778 14.0384 8.60982C14.1156 8.22186 14.3061 7.86549 14.5858 7.58579C14.8655 7.30608 15.2219 7.1156 15.6098 7.03843C15.9978 6.96126 16.3999 7.00087 16.7654 7.15224C17.1308 7.30362 17.4432 7.55996 17.6629 7.88886C17.8827 8.21776 18 8.60444 18 9C18 9.53043 17.7893 10.0391 17.4142 10.4142C17.0391 10.7893 16.5304 11 16 11Z" fill="white"/>
</svg>
