<svg width="86" height="87" viewBox="0 0 86 87" fill="none" xmlns="http://www.w3.org/2000/svg">
<path d="M28.3033 60.3325C29.9913 58.9083 31.1544 57.0758 31.6434 55.0699C32.1325 53.0639 31.9253 50.976 31.0483 49.0738C30.1713 47.1715 28.6646 45.5416 26.7212 44.3929C24.7778 43.2442 22.4864 42.6291 20.1406 42.6265C17.7948 42.6238 15.5016 43.2338 13.5548 44.3781C11.6081 45.5224 10.0966 47.149 9.21402 49.0492C8.33147 50.9495 8.11809 53.037 8.60125 55.044C9.08441 57.051 10.2421 58.8861 11.9259 60.3141C8.53576 61.4743 5.61461 63.4863 3.53098 66.0965C1.44736 68.7066 0.294642 71.7979 0.218262 74.9802C0.218262 75.5572 0.480407 76.1105 0.94703 76.5185C1.41365 76.9264 2.04653 77.1557 2.70643 77.1557C3.36634 77.1557 3.99921 76.9264 4.46583 76.5185C4.93246 76.1105 5.1946 75.5572 5.1946 74.9802C5.1946 68.5037 11.8913 63.2331 20.1221 63.2331C28.2613 63.2331 34.8844 68.5024 34.8844 74.9802C34.8844 75.5572 35.1465 76.1105 35.6131 76.5185C36.0798 76.9264 36.7126 77.1557 37.3725 77.1557C38.0324 77.1557 38.6653 76.9264 39.1319 76.5185C39.5986 76.1105 39.8607 75.5572 39.8607 74.9802C39.7936 71.8159 38.6616 68.739 36.6061 66.1339C34.5506 63.5288 31.6628 61.511 28.3033 60.3325ZM13.3217 52.9378C13.3217 51.7618 13.7206 50.6122 14.4678 49.6344C15.215 48.6567 16.2771 47.8946 17.5197 47.4446C18.7623 46.9946 20.1297 46.8768 21.4488 47.1062C22.768 47.3356 23.9797 47.9019 24.9307 48.7334C25.8818 49.565 26.5295 50.6244 26.7919 51.7778C27.0542 52.9311 26.9196 54.1267 26.4049 55.2131C25.8902 56.2996 25.0185 57.2281 23.9002 57.8815C22.7819 58.5348 21.4671 58.8835 20.1221 58.8835C18.3192 58.8818 16.5906 58.2548 15.3157 57.1401C14.0408 56.0254 13.3237 54.5141 13.3217 52.9378Z" fill="#B89207"/>
<path d="M45.4961 42.4965C45.4961 43.0735 45.7583 43.6268 46.2249 44.0348C46.6915 44.4428 47.3244 44.672 47.9843 44.672C48.6442 44.672 49.277 44.4428 49.7437 44.0348C50.2103 43.6268 50.4725 43.0735 50.4725 42.4965C50.4725 36.02 57.094 30.7495 65.2347 30.7495C73.4655 30.7495 80.1622 36.0187 80.1622 42.4965C80.1622 43.0735 80.4243 43.6268 80.891 44.0348C81.3576 44.4428 81.9905 44.672 82.6504 44.672C83.3103 44.672 83.9431 44.4428 84.4097 44.0348C84.8764 43.6268 85.1385 43.0735 85.1385 42.4965C85.0631 39.3154 83.9122 36.225 81.8308 33.615C79.7494 31.005 76.8308 28.9923 73.4429 27.8305C75.1267 26.4025 76.2844 24.5674 76.7676 22.5603C77.2507 20.5533 77.0373 18.4659 76.1548 16.5656C75.2722 14.6653 73.7607 13.0388 71.814 11.8944C69.8672 10.7501 67.574 10.1402 65.2282 10.1428C62.8824 10.1455 60.591 10.7605 58.6476 11.9092C56.7043 13.0579 55.1975 14.6879 54.3205 16.5901C53.4436 18.4924 53.2363 20.5803 53.7254 22.5862C54.2144 24.5921 55.3775 26.4247 57.0655 27.8489C53.7038 29.0257 50.8134 31.0429 48.7557 33.6481C46.698 36.2533 45.5642 39.331 45.4961 42.4965ZM58.4328 20.4541C58.4328 19.2781 58.8316 18.1286 59.5789 17.1508C60.3261 16.173 61.3881 15.4109 62.6308 14.9609C63.8734 14.5109 65.2407 14.3932 66.5599 14.6226C67.879 14.852 69.0907 15.4183 70.0418 16.2498C70.9928 17.0813 71.6405 18.1408 71.9029 19.2941C72.1653 20.4475 72.0306 21.643 71.5159 22.7294C71.0012 23.8159 70.1296 24.7445 69.0113 25.3978C67.893 26.0512 66.5781 26.3999 65.2332 26.3999C63.4302 26.3981 61.7017 25.7711 60.4268 24.6565C59.1519 23.5418 58.4347 22.0305 58.4328 20.4541Z" fill="#B89207"/>
<path d="M10.6687 37.7108H34.8848C36.2042 37.7097 37.4693 37.251 38.4023 36.4353C39.3353 35.6195 39.86 34.5134 39.8611 33.3598V28.574C40.073 28.3875 41.6642 26.8295 46.1717 22.3458C46.9004 21.8176 47.4378 21.1156 47.7184 20.3252C47.999 19.5348 48.0107 18.6901 47.7522 17.894C47.4936 17.0979 46.9759 16.3847 46.2621 15.8412C45.5482 15.2977 44.6691 14.9473 43.7316 14.8328C43.2178 14.7514 45.431 14.7974 10.6657 14.7974C9.3468 14.7991 8.08251 15.2581 7.15017 16.0738C6.21783 16.8895 5.69357 17.9951 5.69238 19.1483V33.3598C5.69358 34.5134 6.21825 35.6195 7.15124 36.4353C8.08422 37.251 9.34928 37.7097 10.6687 37.7108ZM10.6687 19.1483C30.0257 19.1483 40.0249 19.1483 42.7926 19.1483C42.4815 19.4242 40.7281 21.0374 36.464 25.2399C35.4587 26.1266 34.8916 27.3229 34.8848 28.5714V33.3572H10.6687V19.1483Z" fill="#B89207"/>
<path d="M59.8723 59.25C59.4643 59.4895 59.1465 59.8293 58.9592 60.2265C58.7719 60.6237 58.7234 61.0606 58.8198 61.4819C58.9163 61.9032 59.1533 62.29 59.501 62.5937C59.8487 62.8973 60.2916 63.104 60.7735 63.1877C61.2555 63.2715 61.7551 63.2284 62.2092 63.0641C62.6632 62.8998 63.0514 62.6215 63.3247 62.2645C63.598 61.9074 63.7442 61.4875 63.7448 61.0579C63.7454 60.6282 63.6004 60.2081 63.3281 59.8504C63.1465 59.6123 62.9131 59.4078 62.641 59.2487C62.369 59.0896 62.0637 58.9791 61.7427 58.9233C61.4216 58.8675 61.0912 58.8677 60.7702 58.9238C60.4493 58.9798 60.1442 59.0907 59.8723 59.25Z" fill="#B89207"/>
<path d="M69.4289 61.4834C69.5249 61.9055 69.7619 62.2931 70.11 62.5974C70.4581 62.9017 70.9015 63.1089 71.3843 63.1928C71.867 63.2766 72.3674 63.2335 72.822 63.0687C73.2767 62.9039 73.6652 62.625 73.9386 62.2671C74.2119 61.9092 74.3576 61.4884 74.3574 61.0581C74.3572 60.6278 74.2111 60.2072 73.9374 59.8495C73.6638 59.4918 73.2749 59.2131 72.8201 59.0487C72.3652 58.8842 71.8648 58.8414 71.3821 58.9256C70.7355 59.0388 70.1667 59.3718 69.8005 59.8513C69.4343 60.3309 69.3006 60.9178 69.4289 61.4834Z" fill="#B89207"/>
<path d="M85.1356 68.1629V53.9514C85.1344 52.7978 84.6097 51.6917 83.6768 50.876C82.7438 50.0603 81.4788 49.6015 80.1594 49.6005C39.2236 49.6005 42.1008 49.5598 41.623 49.6359C40.6856 49.7505 39.8065 50.1008 39.0927 50.6443C38.3789 51.1878 37.8612 51.901 37.6027 52.6972C37.3441 53.4933 37.3558 54.3379 37.6364 55.1283C37.917 55.9187 38.4543 56.6208 39.183 57.1489C43.6904 61.6339 45.2845 63.1919 45.4933 63.3772V68.1629C45.4945 69.3166 46.0192 70.4226 46.9521 71.2384C47.8851 72.0541 49.15 72.5128 50.4694 72.5139H80.1579C81.4776 72.5132 82.743 72.0546 83.6762 71.2388C84.6095 70.423 85.1344 69.3168 85.1356 68.1629ZM80.1594 68.1629H50.4724V63.3772C50.4656 62.1286 49.8986 60.9323 48.8934 60.0456C44.6294 55.8418 42.876 54.2299 42.565 53.954C45.3325 53.954 60.8048 53.954 80.1609 53.954L80.1594 68.1629Z" fill="#B89207"/>
</svg>
