<svg width="122" height="55" viewBox="0 0 122 55" fill="none" xmlns="http://www.w3.org/2000/svg">
<path d="M6.09942 54.9885H16.2659C17.1166 54.9869 17.9574 54.8049 18.7326 54.4546C19.5079 54.1043 20.2 53.5936 20.7635 52.9562H71.7579C74.7415 52.9579 77.6679 52.1378 80.2161 50.5858L118.317 27.3918C119.922 26.4237 121.113 24.8975 121.662 23.1056C122.212 21.3138 122.08 19.3823 121.294 17.6811C120.507 15.98 119.121 14.6288 117.4 13.8865C115.679 13.1442 113.745 13.063 111.968 13.6583C69.0959 27.8895 74.5356 26.5238 70.6005 26.5238C72.994 19.7924 67.001 12.2926 59.2998 12.2926H48.8162C45.1158 12.2853 41.5297 11.0091 38.6567 8.67692C32.5688 3.76729 26.9509 4.15849 21.9903 4.15849C21.5711 2.97379 20.7962 1.94748 19.7716 1.21991C18.7469 0.492344 17.5226 0.0990315 16.2659 0.09375H6.09942C4.48175 0.09375 2.93034 0.736367 1.78648 1.88023C0.642616 3.02409 0 4.5755 0 6.19317L0 48.8891C0 50.5068 0.642616 52.0582 1.78648 53.2021C2.93034 54.3459 4.48175 54.9885 6.09942 54.9885ZM36.1104 11.8389C39.7052 14.7541 44.1903 16.3496 48.8185 16.3596H59.3091C64.6654 16.3596 69.1908 22.2183 66.0497 26.5261H54.3254C50.3145 26.529 46.3938 27.716 43.0547 29.9381L41.5687 30.9334C41.2058 31.1759 40.9306 31.5288 40.7839 31.9398C40.6371 32.3508 40.6265 32.7982 40.7538 33.2156C40.881 33.6331 41.1392 33.9986 41.4902 34.2579C41.8413 34.5172 42.2665 34.6567 42.7029 34.6556C43.483 34.6556 43.7607 34.3524 45.307 33.32C47.9792 31.5353 51.1213 30.5847 54.3346 30.5885H72.4083C74.7069 30.5885 72.4246 31.1071 113.259 17.5147C114.084 17.2539 114.975 17.3031 115.766 17.6531C116.557 18.0031 117.192 18.6298 117.554 19.4155C117.915 20.2011 117.977 21.0917 117.728 21.9198C117.479 22.7479 116.936 23.4566 116.201 23.9127L78.1096 47.1114C76.1961 48.2767 73.9983 48.8919 71.7579 48.8891H22.3653V8.22554H25.944C29.6452 8.23824 33.2314 9.51285 36.1104 11.8389ZM4.06705 6.19317C4.06705 5.65415 4.28118 5.13721 4.66232 4.75607C5.04346 4.37493 5.5604 4.1608 6.09942 4.1608H16.2659C16.8049 4.1608 17.3219 4.37493 17.703 4.75607C18.0841 5.13721 18.2983 5.65415 18.2983 6.19317V48.8891C18.2983 49.4281 18.0841 49.9451 17.703 50.3262C17.3219 50.7074 16.8049 50.9215 16.2659 50.9215H6.09942C5.5604 50.9215 5.04346 50.7074 4.66232 50.3262C4.28118 49.9451 4.06705 49.4281 4.06705 48.8891V6.19317Z" fill="#8D7008"/>
</svg>
