<svg width="10" height="8" viewBox="0 0 10 8" fill="none" xmlns="http://www.w3.org/2000/svg">
<path d="M6.42002 0.607884L1.54049 4.26754C1.32694 4.42774 1.14704 4.62842 1.01105 4.85815C0.875068 5.08787 0.78566 5.34213 0.747937 5.60641C0.710214 5.87068 0.724914 6.1398 0.791196 6.3984C0.857479 6.657 0.97405 6.9 1.13425 7.11355C1.45778 7.54483 1.93938 7.82991 2.47311 7.9061C2.73739 7.94382 3.00651 7.92912 3.26511 7.86284C3.5237 7.79655 3.76671 7.67999 3.98026 7.51979L8.85979 3.86014C9.29107 3.53661 9.57616 3.055 9.65234 2.52127C9.72853 1.98754 9.58957 1.4454 9.26603 1.01413C8.9425 0.582853 8.4609 0.297764 7.92717 0.221579C7.39344 0.145393 6.8513 0.284351 6.42002 0.607884Z" fill="#8D7008"/>
</svg>
