<svg width="17" height="17" viewBox="0 0 17 17" fill="none" xmlns="http://www.w3.org/2000/svg">
<path d="M11.7238 0.313145C12.0927 0.465054 12.383 0.709194 12.5946 1.04557C12.8061 1.38194 12.9011 1.75086 12.8794 2.15234L12.8306 3.11262C12.8197 3.23198 12.836 3.34863 12.8794 3.46256C12.9228 3.57649 12.9879 3.67143 13.0747 3.74739C13.1615 3.83419 13.2592 3.8993 13.3677 3.9427C13.4762 3.9861 13.5901 4.00238 13.7095 3.99153L14.686 3.9427C15.0766 3.93185 15.4401 4.03222 15.7765 4.24381C16.1129 4.4554 16.357 4.74565 16.5089 5.11458C16.6608 5.4835 16.6934 5.86056 16.6066 6.24576C16.5198 6.63096 16.3299 6.9592 16.0369 7.23046L15.3045 7.8815C15.2177 7.95746 15.1499 8.04969 15.1011 8.1582C15.0522 8.2667 15.0278 8.38064 15.0278 8.49999C15.0278 8.61935 15.0522 8.73328 15.1011 8.84179C15.1499 8.9503 15.2177 9.04253 15.3045 9.11848L16.0369 9.76953C16.3299 10.0408 16.5198 10.3717 16.6066 10.7624C16.6934 11.153 16.6608 11.5273 16.5089 11.8854C16.357 12.2543 16.1129 12.5473 15.7765 12.7643C15.4401 12.9813 15.0712 13.079 14.6697 13.0573L13.7095 13.0085C13.5901 12.9976 13.4735 13.0139 13.3595 13.0573C13.2456 13.1007 13.1506 13.1658 13.0747 13.2526C12.9879 13.3286 12.9228 13.4235 12.8794 13.5374C12.836 13.6514 12.8143 13.768 12.8143 13.8874L12.8794 14.8639C12.8902 15.2546 12.7899 15.618 12.5783 15.9544C12.3667 16.2908 12.0764 16.5349 11.7075 16.6868C11.3494 16.8388 10.9751 16.8713 10.5845 16.7845C10.1938 16.6977 9.86831 16.5078 9.6079 16.2148L8.95685 15.4824C8.87005 15.3956 8.77239 15.3278 8.66389 15.279C8.55538 15.2301 8.44145 15.2057 8.32209 15.2057C8.20273 15.2057 8.0888 15.2301 7.98029 15.279C7.87178 15.3278 7.77955 15.3956 7.7036 15.4824L7.05256 16.2148C6.78129 16.5078 6.45306 16.6977 6.06786 16.7845C5.68266 16.8713 5.3056 16.8388 4.93667 16.6868C4.56775 16.5349 4.27749 16.2908 4.0659 15.9544C3.85432 15.618 3.75937 15.2546 3.78107 14.8639L3.8299 13.8874C3.8299 13.768 3.8082 13.6514 3.7648 13.5374C3.72139 13.4235 3.66172 13.3286 3.58576 13.2526C3.49895 13.1658 3.39859 13.1007 3.28465 13.0573C3.17072 13.0139 3.0595 12.9976 2.95099 13.0085L1.97443 13.0573C1.57296 13.079 1.20403 12.984 0.867661 12.7725C0.53129 12.5609 0.287149 12.2706 0.135239 11.9017C-0.0166706 11.5328 -0.0492227 11.153 0.0375829 10.7624C0.124388 10.3717 0.314276 10.0462 0.607244 9.7858L1.33967 9.13476C1.42647 9.04795 1.49429 8.9503 1.54312 8.84179C1.59194 8.73328 1.61636 8.61935 1.61636 8.49999C1.61636 8.38064 1.59194 8.2667 1.54312 8.1582C1.49429 8.04969 1.42647 7.95746 1.33967 7.8815L0.607244 7.23046C0.314276 6.9592 0.124388 6.63096 0.0375829 6.24576C-0.0492227 5.86056 -0.0166706 5.4835 0.135239 5.11458C0.287149 4.74565 0.53129 4.4554 0.867661 4.24381C1.20403 4.03222 1.56753 3.93728 1.95816 3.95898L2.93472 4.00781C3.05408 4.00781 3.17072 3.9861 3.28465 3.9427C3.39859 3.8993 3.49353 3.83962 3.56948 3.76367C3.65629 3.67686 3.72139 3.57649 3.7648 3.46256C3.8082 3.34863 3.82448 3.23198 3.81362 3.11262L3.78107 2.13606C3.75937 1.74544 3.85432 1.38194 4.0659 1.04557C4.27749 0.709194 4.56775 0.465054 4.93667 0.313145C5.3056 0.161236 5.68266 0.128683 6.06786 0.215488C6.45306 0.302294 6.78129 0.49218 7.05256 0.785149L7.7036 1.51757L7.7687 1.58267C7.84466 1.64778 7.93146 1.69932 8.02912 1.7373C8.12678 1.77528 8.22443 1.79426 8.32209 1.79426C8.44145 1.79426 8.55538 1.76985 8.66389 1.72102C8.77239 1.67219 8.86462 1.59895 8.94058 1.5013L9.6079 0.785149C9.86831 0.49218 10.1938 0.302294 10.5845 0.215488C10.9751 0.128683 11.3549 0.161236 11.7238 0.313145ZM10.3729 1.48502L9.72183 2.20117C9.53737 2.40733 9.32578 2.56466 9.08706 2.67317C8.84835 2.78168 8.59336 2.83593 8.32209 2.83593C8.05082 2.83593 7.79583 2.78168 7.55711 2.67317C7.3184 2.56466 7.10681 2.40733 6.92235 2.20117L6.27131 1.48502C6.15195 1.35481 6.00547 1.27072 5.83185 1.23274C5.65824 1.19476 5.49006 1.20833 5.3273 1.27343C5.16454 1.34939 5.03704 1.4606 4.94481 1.60709C4.85258 1.75357 4.80646 1.91362 4.80646 2.08723L4.85529 3.0638C4.87699 3.33506 4.83902 3.59277 4.74136 3.83691C4.6437 4.08105 4.50264 4.30077 4.31818 4.49609C4.12287 4.68055 3.90043 4.82161 3.65086 4.91926C3.4013 5.01692 3.14631 5.06032 2.88589 5.04947L1.90933 4.98437C1.73572 4.98437 1.57296 5.03048 1.42105 5.12271C1.26914 5.21495 1.16063 5.34244 1.09553 5.5052C1.03042 5.66796 1.01686 5.83615 1.05484 6.00976C1.09281 6.18337 1.17691 6.32985 1.30711 6.44921L2.03954 7.10025C2.23485 7.28471 2.38676 7.49902 2.49527 7.74316C2.60377 7.9873 2.65803 8.23958 2.65803 8.49999C2.65803 8.77126 2.60377 9.02897 2.49527 9.27311C2.38676 9.51725 2.23485 9.72612 2.03954 9.89973L1.30711 10.5508C1.17691 10.6701 1.09281 10.8166 1.05484 10.9902C1.01686 11.1638 1.03042 11.332 1.09553 11.4948C1.16063 11.6575 1.26914 11.7878 1.42105 11.8854C1.57296 11.9831 1.74114 12.0265 1.9256 12.0156L2.88589 11.9668C3.15716 11.9559 3.41757 11.9966 3.66714 12.0889C3.91671 12.1811 4.13372 12.3194 4.31818 12.5039C4.50264 12.6992 4.6437 12.9217 4.74136 13.1712C4.83902 13.4208 4.88242 13.6758 4.87157 13.9362L4.80646 14.9128C4.80646 15.0864 4.85258 15.2464 4.94481 15.3929C5.03704 15.5394 5.16454 15.6506 5.3273 15.7266C5.49006 15.7917 5.65824 15.8052 5.83185 15.7672C6.00547 15.7293 6.15195 15.6452 6.27131 15.515L6.92235 14.7825C7.10681 14.5872 7.32111 14.4353 7.56525 14.3268C7.80939 14.2183 8.06167 14.1641 8.32209 14.1641C8.59336 14.1641 8.85106 14.2183 9.0952 14.3268C9.33934 14.4353 9.54822 14.5872 9.72183 14.7825L10.3729 15.515C10.4922 15.6452 10.6387 15.7293 10.8123 15.7672C10.9859 15.8052 11.1541 15.7862 11.3169 15.7103C11.4796 15.6452 11.6071 15.5394 11.6994 15.3929C11.7916 15.2464 11.8377 15.0864 11.8377 14.9128L11.7889 13.9362C11.7672 13.6758 11.8052 13.4208 11.9028 13.1712C12.0005 12.9217 12.1415 12.6992 12.326 12.5039C12.5213 12.3194 12.741 12.1784 12.9852 12.0807C13.2293 11.9831 13.487 11.9451 13.7583 11.9668L14.7348 12.0156C14.9085 12.0265 15.0712 11.9831 15.2231 11.8854C15.375 11.7878 15.4835 11.6575 15.5487 11.4948C15.6138 11.332 15.6273 11.1638 15.5893 10.9902C15.5514 10.8166 15.4673 10.6701 15.3371 10.5508L14.6046 9.89973C14.4093 9.71527 14.2574 9.50368 14.1489 9.26497C14.0404 9.02625 13.9862 8.77126 13.9862 8.49999C13.9862 8.22873 14.0404 7.97373 14.1489 7.73502C14.2574 7.4963 14.4093 7.28471 14.6046 7.10025L15.3371 6.44921C15.4673 6.32985 15.5514 6.18337 15.5893 6.00976C15.6273 5.83615 15.6138 5.66796 15.5487 5.5052C15.4835 5.34244 15.375 5.21495 15.2231 5.12271C15.0712 5.03048 14.9085 4.98437 14.7348 4.98437L13.7583 5.0332C13.487 5.0549 13.2293 5.01692 12.9852 4.91926C12.741 4.82161 12.5267 4.68055 12.3423 4.49609C12.147 4.30077 12.0032 4.08105 11.911 3.83691C11.8187 3.59277 11.778 3.33506 11.7889 3.0638L11.8377 2.08723C11.8486 1.91362 11.8052 1.75086 11.7075 1.59895C11.6098 1.44704 11.4796 1.33854 11.3169 1.27343C11.1541 1.20833 10.9859 1.19476 10.8123 1.23274C10.6387 1.27072 10.4922 1.35481 10.3729 1.48502ZM8.32209 4.85416C8.82122 4.85416 9.29323 4.95182 9.7381 5.14713C10.183 5.33159 10.5709 5.58929 10.9018 5.92024C11.2328 6.25119 11.4905 6.6391 11.675 7.08398C11.8703 7.52886 11.9679 8.00086 11.9679 8.49999C11.9679 8.99913 11.8703 9.47113 11.675 9.91601C11.4905 10.3609 11.2328 10.7488 10.9018 11.0797C10.5709 11.4107 10.183 11.6684 9.7381 11.8529C9.29323 12.0482 8.82122 12.1458 8.32209 12.1458C7.82296 12.1458 7.35095 12.0482 6.90607 11.8529C6.46119 11.6684 6.07328 11.4107 5.74234 11.0797C5.41139 10.7488 5.15369 10.3609 4.96922 9.91601C4.77391 9.47113 4.67626 8.99913 4.67626 8.49999C4.67626 8.00086 4.77391 7.52886 4.96922 7.08398C5.15369 6.6391 5.41139 6.25119 5.74234 5.92024C6.07328 5.58929 6.46119 5.33159 6.90607 5.14713C7.35095 4.95182 7.82296 4.85416 8.32209 4.85416ZM8.32209 5.89583C7.60594 5.89583 6.99288 6.15082 6.4829 6.6608C5.97291 7.17078 5.71792 7.78385 5.71792 8.49999C5.71792 9.21614 5.97291 9.8292 6.4829 10.3392C6.99288 10.8492 7.60594 11.1042 8.32209 11.1042C9.03823 11.1042 9.6513 10.8492 10.1613 10.3392C10.6713 9.8292 10.9263 9.21614 10.9263 8.49999C10.9263 7.78385 10.6713 7.17078 10.1613 6.6608C9.6513 6.15082 9.03823 5.89583 8.32209 5.89583Z" fill="#3F3E45"/>
</svg>
