<svg width="58" height="85" viewBox="0 0 58 85" fill="none" xmlns="http://www.w3.org/2000/svg">
<path d="M30.4588 0.0251859C24.4032 -0.219545 18.4276 1.4744 13.4013 4.86054C8.37498 8.24669 4.56031 13.1484 2.51231 18.8523C0.464315 24.5563 0.289849 30.765 2.0143 36.575C3.73875 42.3849 7.27215 47.4931 12.1004 51.1562C14.058 52.5979 15.6887 54.4373 16.8855 56.5536C18.0822 58.6699 18.8181 61.0153 19.0447 63.436C17.8732 63.8683 16.8636 64.6515 16.1536 65.6786C15.4435 66.7057 15.0675 67.9268 15.0769 69.1755C15.0863 70.4241 15.4805 71.6395 16.2059 72.6558C16.9313 73.6722 17.9525 74.4401 19.1303 74.8548C19.1706 77.5242 20.2593 80.0707 22.1613 81.9442C24.0633 83.8177 26.6259 84.8679 29.2956 84.8679C31.9654 84.8679 34.528 83.8177 36.43 81.9442C38.332 80.0707 39.4207 77.5242 39.4609 74.8548C40.6393 74.44 41.661 73.6718 42.3867 72.655C43.1125 71.6382 43.5069 70.4223 43.5163 69.1732C43.5257 67.924 43.1495 66.7023 42.4391 65.6748C41.7287 64.6472 40.7186 63.8638 39.5466 63.4314C39.7918 60.9967 40.544 58.6403 41.7548 56.5138C42.9655 54.3874 44.608 52.5379 46.5766 51.0844C51.2237 47.5288 54.6624 42.6277 56.4249 37.0481C58.1873 31.4686 58.1879 25.4815 56.4265 19.9016C54.6651 14.3216 51.2273 9.41992 46.5809 5.86343C41.9344 2.30693 36.3051 0.26838 30.4588 0.0251859ZM29.3014 81.3246C28.5 81.3258 27.7063 81.1691 26.9655 80.8634C26.2247 80.5577 25.5514 80.109 24.9841 79.543C24.4168 78.977 23.9666 78.3047 23.6592 77.5646C23.3519 76.8245 23.1933 76.0311 23.1927 75.2298H35.3916C35.3904 76.845 34.7485 78.3939 33.6067 79.5365C32.465 80.679 30.9167 81.3221 29.3014 81.3246ZM37.4332 71.1581H21.1604C20.621 71.1581 20.1038 70.9438 19.7225 70.5625C19.3411 70.1811 19.1268 69.6639 19.1268 69.1246C19.1268 68.5852 19.3411 68.068 19.7225 67.6866C20.1038 67.3053 20.621 67.091 21.1604 67.091H37.4263C37.9656 67.091 38.4828 67.3053 38.8642 67.6866C39.2455 68.068 39.4598 68.5852 39.4598 69.1246C39.4598 69.6639 39.2455 70.1811 38.8642 70.5625C38.4828 70.9438 37.9656 71.1581 37.4263 71.1581H37.4332ZM44.116 47.8483C41.6986 49.6372 39.6817 51.9113 38.1945 54.5251C36.7073 57.1388 35.7825 60.0344 35.4795 63.0263H23.114C22.8287 60.0468 21.9185 57.1608 20.4427 54.5568C18.967 51.9527 16.9589 49.6889 14.5494 47.9132C10.4799 44.8285 7.48066 40.545 5.97406 35.6659C4.46747 30.7867 4.52945 25.5579 6.15128 20.7159C7.77312 15.8739 10.8731 11.6626 15.0145 8.6753C19.156 5.68799 24.1302 4.07515 29.2366 4.06396C34.343 4.05276 39.3243 5.64378 43.4788 8.6129C47.6333 11.582 50.7517 15.7796 52.3947 20.6145C54.0378 25.4494 54.1227 30.6779 52.6375 35.5636C51.1523 40.4492 48.1719 44.7459 44.116 47.8483Z" fill="#8D7008"/>
</svg>
