<svg width="10" height="8" viewBox="0 0 10 8" fill="none" xmlns="http://www.w3.org/2000/svg">
<path d="M9.44679 0.812477C9.2867 0.598628 9.08603 0.418435 8.85625 0.282204C8.62647 0.145973 8.37209 0.0563766 8.10766 0.0185388C7.84322 -0.0192991 7.57392 -0.00463584 7.31516 0.0616899C7.0564 0.128016 6.81324 0.244703 6.59961 0.405077L1.72008 4.06704C1.37822 4.32283 1.1256 4.67978 0.998064 5.08724C0.870527 5.4947 0.874554 5.93198 1.00957 6.33702C1.14458 6.74207 1.40373 7.0943 1.75023 7.34375C2.09674 7.5932 2.51301 7.72718 2.93996 7.7267C3.83578 7.7267 3.71772 7.65031 9.03938 3.65964C9.25323 3.49956 9.43343 3.29889 9.56966 3.06911C9.70589 2.83933 9.79548 2.58495 9.83332 2.32052C9.87115 2.05608 9.8565 1.78678 9.79017 1.52802C9.72385 1.26926 9.60716 1.02611 9.44679 0.812477Z" fill="#8D7008"/>
</svg>
