<svg width="29" height="33" viewBox="0 0 29 33" fill="none" xmlns="http://www.w3.org/2000/svg">
<path d="M17.3291 0.515896C15.2506 0.0641477 13.0973 0.0836053 11.0272 0.572841C8.9572 1.06208 7.02301 2.00867 5.36664 3.34313C3.71027 4.6776 2.37377 6.36606 1.45525 8.28457C0.536726 10.2031 0.0594947 12.3029 0.0585938 14.43C0.0585938 14.9693 0.272836 15.4865 0.654196 15.8679C1.03556 16.2493 1.5528 16.4635 2.09212 16.4635C2.63145 16.4635 3.14868 16.2493 3.53004 15.8679C3.9114 15.4865 4.12565 14.9693 4.12565 14.43C4.12577 12.4814 4.68585 10.574 5.73921 8.93471C6.79258 7.29544 8.29484 5.9934 10.0671 5.18363C11.8394 4.37386 13.8071 4.09047 15.7359 4.36719C17.6647 4.64391 19.4733 5.46909 20.9465 6.74449C22.4196 8.01989 23.4952 9.69177 24.0452 11.5611C24.5952 13.4304 24.5964 15.4184 24.0487 17.2883C23.501 19.1583 22.4274 20.8315 20.9558 22.1087C19.4842 23.3859 17.6766 24.2132 15.7481 24.4923C14.7827 24.6329 13.8996 25.115 13.2592 25.851C12.6187 26.587 12.2633 27.5282 12.2574 28.5038V30.6959C12.2574 31.2352 12.4717 31.7524 12.853 32.1338C13.2344 32.5152 13.7516 32.7294 14.291 32.7294C14.8303 32.7294 15.3475 32.5152 15.7289 32.1338C16.1102 31.7524 16.3245 31.2352 16.3245 30.6959V28.5177C19.6363 28.0535 22.6789 26.4379 24.9184 23.9542C27.1579 21.4705 28.4512 18.2776 28.5713 14.9355C28.6915 11.5934 27.6308 8.31581 25.5755 5.67775C23.5201 3.0397 20.6014 1.20973 17.3314 0.508951L17.3291 0.515896Z" fill="#8D7008"/>
</svg>
