<svg width="17" height="26" viewBox="0 0 17 26" fill="none" xmlns="http://www.w3.org/2000/svg">
<path d="M10.9779 12.0085C10.9779 12.0085 11.1759 11.8082 11.5719 11.4075C11.9679 11.0068 12.1659 10.2401 12.1659 9.10739C12.1659 7.97471 11.7699 7.00766 10.9779 6.20624C10.1858 5.40482 9.23006 5.0041 8.11063 5.0041C6.99119 5.0041 6.03545 5.40482 5.24339 6.20624C4.45134 7.00766 4.05531 7.97471 4.05531 9.10739C4.05531 10.2401 4.45134 11.2071 5.24339 12.0085C6.03545 12.81 6.99119 13.2107 8.11063 13.2107C9.23006 13.2107 10.1858 12.81 10.9779 12.0085ZM16.2213 9.10739C16.2213 10.2721 16.047 11.2285 15.6985 11.9765L9.93235 24.3825C9.76338 24.7351 9.51256 25.0129 9.1799 25.216C8.84724 25.419 8.49082 25.5205 8.11063 25.5205C7.73044 25.5205 7.37402 25.419 7.04136 25.216C6.70869 25.0129 6.46316 24.7351 6.30475 24.3825L0.522755 11.9765C0.174252 11.2285 0 10.2721 0 9.10739C0 6.84203 0.792054 4.90793 2.37616 3.30509C3.96027 1.70225 5.87176 0.900826 8.11063 0.900826C10.3495 0.900826 12.261 1.70225 13.8451 3.30509C15.4292 4.90793 16.2213 6.84203 16.2213 9.10739Z" fill="black"/>
</svg>
