<svg width="10" height="8" viewBox="0 0 10 8" fill="none" xmlns="http://www.w3.org/2000/svg">
<path d="M1.31719 1.0128C1.15681 1.22643 1.04013 1.46958 0.973801 1.72834C0.907475 1.9871 0.89281 2.2564 0.930648 2.52084C0.968485 2.78527 1.05808 3.03966 1.19432 3.26944C1.33055 3.49922 1.51074 3.69988 1.72458 3.85997L6.60413 7.51962C7.0354 7.84315 7.57753 7.98211 8.11126 7.90593C8.64499 7.82974 9.1266 7.54465 9.45014 7.11338C9.77367 6.6821 9.91262 6.13996 9.83644 5.60623C9.76025 5.0725 9.47516 4.5909 9.04389 4.26737L4.16435 0.607712C3.95073 0.447337 3.70758 0.33065 3.44881 0.264325C3.19005 0.197999 2.92075 0.183338 2.65632 0.221176C2.39188 0.259014 2.13749 0.348609 1.90771 0.48484C1.67793 0.621071 1.47727 0.798951 1.31719 1.0128Z" fill="#8D7008"/>
</svg>
