<svg width="10" height="8" viewBox="0 0 10 8" fill="none" xmlns="http://www.w3.org/2000/svg">
<path d="M3.98027 0.407194C3.76672 0.246996 3.52371 0.130428 3.26512 0.0641456C3.00652 -0.00213705 2.7374 -0.0168365 2.47312 0.0208866C1.93939 0.0970718 1.45779 0.38216 1.13426 0.813436C0.810722 1.24471 0.67176 1.78685 0.747945 2.32058C0.824131 2.85431 1.10922 3.33591 1.5405 3.65945C6.86447 7.64548 6.74179 7.7265 7.63992 7.7265C8.06687 7.72699 8.48314 7.593 8.82964 7.34355C9.17615 7.09411 9.4353 6.74187 9.57031 6.33682C9.70533 5.93178 9.70935 5.4945 9.58181 5.08704C9.45428 4.67958 9.20166 4.32263 8.8598 4.06685L3.98027 0.407194Z" fill="#8D7008"/>
</svg>
