<svg width="23" height="23" viewBox="0 0 23 23" fill="none" xmlns="http://www.w3.org/2000/svg">
<path d="M22.2841 18.0797C22.2841 18.3681 22.2313 18.7447 22.1258 19.2095C22.0203 19.6742 21.9095 20.0401 21.7934 20.3072C21.5719 20.8414 20.9282 21.4077 19.8626 22.0059C18.8708 22.5508 17.8895 22.8232 16.9188 22.8232C16.6339 22.8232 16.357 22.8045 16.0879 22.7672C15.8188 22.7298 15.5155 22.663 15.1779 22.5668C14.8402 22.4707 14.5896 22.3932 14.4261 22.3345C14.2625 22.2757 13.9698 22.1662 13.5477 22.0059C13.1257 21.8457 12.8672 21.7495 12.7722 21.7175C11.7382 21.3436 10.8149 20.9002 10.0025 20.3874C8.65196 19.5433 7.25657 18.3922 5.81633 16.9339C4.3761 15.4755 3.23921 14.0626 2.40567 12.6951C1.89921 11.8725 1.46134 10.9376 1.09205 9.89063C1.06039 9.79448 0.965432 9.53273 0.807165 9.10538C0.648897 8.67803 0.540748 8.38156 0.482716 8.21596C0.424685 8.05037 0.348189 7.79663 0.253228 7.45475C0.158268 7.11287 0.0923227 6.80572 0.0553936 6.53328C0.0184646 6.26085 0 5.9804 0 5.69194C0 4.70904 0.269055 3.71546 0.807165 2.71119C1.39803 1.63214 1.95724 0.980433 2.4848 0.756075C2.74858 0.638554 3.10996 0.526375 3.56893 0.419538C4.02791 0.3127 4.39984 0.259283 4.68472 0.259283C4.83244 0.259283 4.94322 0.275309 5.01708 0.30736C5.207 0.371462 5.48661 0.777441 5.8559 1.5253C5.97196 1.72829 6.13023 2.01675 6.3307 2.39068C6.53117 2.76461 6.71582 3.10382 6.88464 3.4083C7.05346 3.71279 7.217 3.99858 7.37527 4.26567C7.40692 4.3084 7.49924 4.44195 7.65224 4.66631C7.80523 4.89066 7.91865 5.0803 7.99251 5.23521C8.06637 5.39013 8.1033 5.54237 8.1033 5.69194C8.1033 5.90561 7.95294 6.17271 7.65224 6.49322C7.35153 6.81373 7.02444 7.10753 6.67098 7.37462C6.31751 7.64171 5.99043 7.92483 5.68972 8.22398C5.38901 8.52312 5.23866 8.76884 5.23866 8.96115C5.23866 9.0573 5.26503 9.1775 5.31779 9.32172C5.37055 9.46595 5.41539 9.57546 5.45232 9.65025C5.48925 9.72503 5.5631 9.85324 5.67389 10.0349C5.78468 10.2165 5.84535 10.318 5.8559 10.3393C6.65779 11.803 7.57574 13.0583 8.60976 14.1053C9.64377 15.1524 10.8835 16.0818 12.329 16.8938C12.3501 16.9045 12.4504 16.9659 12.6298 17.0781C12.8091 17.1903 12.9357 17.2651 13.0096 17.3024C13.0835 17.3398 13.1916 17.3852 13.334 17.4387C13.4765 17.4921 13.5952 17.5188 13.6901 17.5188C13.8801 17.5188 14.1227 17.3665 14.4182 17.0621C14.7136 16.7576 14.9932 16.4264 15.257 16.0685C15.5208 15.7106 15.8109 15.3794 16.1275 15.0749C16.444 14.7704 16.7078 14.6182 16.9188 14.6182C17.0665 14.6182 17.2169 14.6556 17.3699 14.7303C17.5229 14.8051 17.7101 14.92 17.9317 15.0749C18.1533 15.2298 18.2852 15.3233 18.3274 15.3553C18.5912 15.5156 18.8734 15.6812 19.1741 15.8521C19.4748 16.0231 19.8098 16.21 20.1791 16.413C20.5484 16.616 20.8333 16.7763 21.0338 16.8938C21.7723 17.2677 22.1733 17.5508 22.2366 17.7431C22.2682 17.8179 22.2841 17.9301 22.2841 18.0797Z" fill="black"/>
</svg>
