<svg width="25" height="21" viewBox="0 0 25 21" fill="none" xmlns="http://www.w3.org/2000/svg">
<path d="M16.2054 11.6853H21.2112C21.2006 11.6533 21.1874 11.6105 21.1716 11.5571C21.1558 11.5037 21.1426 11.4609 21.132 11.4289L17.7737 3.47878H6.5582L3.1999 11.4289C3.18934 11.4503 3.17614 11.493 3.16029 11.5571C3.14445 11.6212 3.13125 11.664 3.12069 11.6853H8.12647L9.63137 14.7628H14.7005L16.2054 11.6853ZM24.3319 12.1662V19.8919C24.3319 20.1697 24.2316 20.4102 24.0309 20.6132C23.8303 20.8162 23.5926 20.9177 23.3181 20.9177H1.01383C0.73925 20.9177 0.501634 20.8162 0.30098 20.6132C0.100327 20.4102 0 20.1697 0 19.8919V12.1662C0 11.5037 0.132009 10.8465 0.396027 10.1947L4.1662 1.347C4.27181 1.07986 4.46454 0.855461 4.7444 0.673805C5.02426 0.492149 5.30148 0.401321 5.57606 0.401321H18.7558C19.0304 0.401321 19.3076 0.492149 19.5875 0.673805C19.8673 0.855461 20.0601 1.07986 20.1657 1.347L23.9359 10.1947C24.1999 10.8465 24.3319 11.5037 24.3319 12.1662Z" fill="black"/>
</svg>
