<svg width="116" height="82" viewBox="0 0 116 82" fill="none" xmlns="http://www.w3.org/2000/svg">
<g clip-path="url(#clip0_6084_168)">
<path d="M104.896 2.99658H11.1034C6.53308 2.99658 2.82812 6.70154 2.82812 11.2718V70.6989C2.82812 75.2692 6.53308 78.9742 11.1034 78.9742H104.896C109.466 78.9742 113.171 75.2692 113.171 70.6989V11.2718C113.171 6.70154 109.466 2.99658 104.896 2.99658Z" stroke="#B89207" stroke-width="4.8635" stroke-linecap="round" stroke-linejoin="round"/>
<path d="M103.363 42.408H51.8735" stroke="#B89207" stroke-width="4.8635" stroke-linecap="round" stroke-linejoin="round"/>
<path d="M103.364 53.2244H73.9565" stroke="#B89207" stroke-width="4.8635" stroke-linecap="round" stroke-linejoin="round"/>
<path d="M103.364 64.041H61.9951" stroke="#B89207" stroke-width="4.8635" stroke-linecap="round" stroke-linejoin="round"/>
<path d="M18.8945 21.5946C18.8945 20.904 18.8605 20.2085 18.8945 19.5203C18.9973 18.2157 19.5918 16.9988 20.5576 16.1157C21.5235 15.2327 22.7886 14.7494 24.0972 14.7636C25.4058 14.7778 26.6602 15.2884 27.6067 16.1922C28.5531 17.0961 29.121 18.3256 29.1954 19.6322C29.2392 20.8018 29.2319 21.974 29.21 23.1461C29.2161 24.5146 28.6784 25.8296 27.715 26.8016C26.7516 27.7737 25.4415 28.3232 24.0729 28.3293C22.7044 28.3355 21.3895 27.7977 20.4174 26.8343C19.4454 25.8709 18.8958 24.5609 18.8897 23.1923C18.8848 22.6597 18.8945 22.1272 18.8945 21.5946Z" stroke="#B89207" stroke-width="4.8635" stroke-linecap="round" stroke-linejoin="round"/>
<path d="M13.958 41.45L15.1739 35.2685C15.6395 34.0507 16.5043 33.0269 17.6272 32.3644C18.75 31.7018 20.0643 31.4397 21.3554 31.6208H26.7588C28.0498 31.4397 29.3642 31.7018 30.487 32.3644C31.6098 33.0269 32.4747 34.0507 32.9403 35.2685L34.1561 41.45" stroke="#B89207" stroke-width="4.8635" stroke-linecap="round" stroke-linejoin="round"/>
<path d="M36.5119 42.408H11.6011" stroke="#B89207" stroke-width="4.8635" stroke-linecap="round" stroke-linejoin="round"/>
</g>
<defs>
<clipPath id="clip0_6084_168">
<rect width="115.207" height="80.8411" fill="white" transform="translate(0.396484 0.564758)"/>
</clipPath>
</defs>
</svg>
